<svg xmlns="http://www.w3.org/2000/svg" xmlns:xlink="http://www.w3.org/1999/xlink" width="110" height="110" viewBox="0 0 110 110"><defs><clipPath id="a"><path d="M0,0H66V66H0Z" fill="none"/></clipPath></defs><g transform="translate(-340 -420)"><g transform="translate(340 420)" fill="none" stroke="#3e9e6c" stroke-miterlimit="10" stroke-width="4"><circle cx="55" cy="55" r="55" stroke="none"/><circle cx="55" cy="55" r="53" fill="none"/></g><g transform="translate(363 436)"><path d="M0,0H66V66H0Z" fill="none"/><g clip-path="url(#a)"><path d="M4.531,58H0V56.3c.048-.356.092-.719.135-1.07.092-.749.186-1.523.319-2.276A28.713,28.713,0,0,1,3.328,44.47,29.385,29.385,0,0,1,8.7,37.3a28.53,28.53,0,0,1,10.342-6.543c.078-.029.156-.065.245-.107l.158-.072a18.557,18.557,0,0,1-5.505-6.4,16.542,16.542,0,0,1-1.659-8.219A16.1,16.1,0,0,1,18.231,3.952,16.714,16.714,0,0,1,29.014,0a16.5,16.5,0,0,1,6.9,1.5,16.934,16.934,0,0,1,5.935,4.531,16.716,16.716,0,0,1,3.783,12.825A16.907,16.907,0,0,1,38.541,30.58l.23.1c.123.051.234.1.345.143A30.475,30.475,0,0,1,51.181,39.26a30.079,30.079,0,0,1,6.3,13.3,20.508,20.508,0,0,1,.3,2.111c.036.337.073.685.118,1.026.018.136.043.272.067.4.012.066.024.131.035.195V58H53.469a24.515,24.515,0,0,0-21.4-24.246,27.718,27.718,0,0,0-3.3-.2,23.593,23.593,0,0,0-16.254,6.432A23.968,23.968,0,0,0,4.672,55.4c-.069.588-.089,1.192-.108,1.775-.009.27-.018.549-.032.822ZM29,5A12.033,12.033,0,0,0,17,16.973,12.039,12.039,0,0,0,29,29,12.032,12.032,0,0,0,41,17.027,12.038,12.038,0,0,0,29,5Z" transform="translate(4 8)" fill="#3e9e6c"/></g></g></g></svg>