<svg xmlns="http://www.w3.org/2000/svg" xmlns:xlink="http://www.w3.org/1999/xlink" width="41" height="25" viewBox="0 0 41 25"><defs><clipPath id="a"><path d="M0,0H24V25H0Z" fill="none"/></clipPath><clipPath id="b"><path d="M0,0H13V13H0Z" fill="none"/></clipPath></defs><path d="M0,0H24V25H0Z" fill="none"/><g clip-path="url(#a)"><path d="M23.98,11.75H12.316l.014,3.329H20.2c-.93,4.055-3.8,6.54-7.655,6.54A9.12,9.12,0,1,1,18.762,5.815L21.342,3.6a12.52,12.52,0,1,0-8.8,21.4C19.193,25,24,19.943,24,13.04Z" fill="#3fdd6e"/></g><g transform="translate(28 7)"><path d="M0,0H13V13H0Z" fill="none"/><g clip-path="url(#b)"><path d="M13,4.928H8.072V0H4.928V4.928H0V8.072H4.928V13H8.072V8.072H13Z" fill="#3fdd6e"/></g></g></svg>