<svg xmlns="http://www.w3.org/2000/svg" xmlns:xlink="http://www.w3.org/1999/xlink" width="204" height="65" viewBox="0 0 204 65"><defs><clipPath id="a"><path d="M0,0H14V15H0Z" fill="none"/></clipPath><clipPath id="b"><path d="M0,0H68V65H0Z" fill="none"/></clipPath></defs><path d="M.1,8.678A9.466,9.466,0,0,1,9.755.009c4.662.2,7.537,3.114,7.973,6.95a.107.107,0,0,1-.1.118H14.366a.1.1,0,0,1-.1-.088c-.319-2.152-1.905-3.832-5.036-3.832-4.125,0-5.769,3.276-5.769,7.4S5.106,17.87,9.231,17.87a4.972,4.972,0,0,0,5.357-4.858.106.106,0,0,0-.1-.115H9.91a.1.1,0,0,1-.1-.1V9.959a.1.1,0,0,1,.1-.1H17.9a.1.1,0,0,1,.1.1v1.856C18,17.4,14.6,21,9.231,21,2.5,21-.6,15.683.1,8.678" transform="translate(74 31)" fill="#027850"/><path d="M.1.2H2.6A.1.1,0,0,1,2.7.29l.269,2.263h.112A3.881,3.881,0,0,1,6.825,0H7.9A.1.1,0,0,1,8,.1V2.938a.1.1,0,0,1-.1.1H6.769c-2.434,0-3.693,1.721-3.693,4.733V14.9a.1.1,0,0,1-.1.1H.1a.1.1,0,0,1-.1-.1V.3A.1.1,0,0,1,.1.2" transform="translate(95 35)" fill="#027850"/><path d="M7.192,15a6.948,6.948,0,0,1-5.331-2.17A7.776,7.776,0,0,1,0,7.5a7.924,7.924,0,0,1,1.765-5.31A6.862,6.862,0,0,1,7.133,0a6.7,6.7,0,0,1,5.1,2.03A7.259,7.259,0,0,1,14,7.051V8.3a.1.1,0,0,1-.105.1H3.586a.11.11,0,0,0-.078.033.1.1,0,0,0-.029.071c.039,2.38,1.427,3.8,3.713,3.8,1.73,0,2.905-.674,3.308-1.9a.1.1,0,0,1,.1-.069h3.072a.108.108,0,0,1,.083.039.1.1,0,0,1,.022.08,5.132,5.132,0,0,1-2.128,3.24A7.606,7.606,0,0,1,7.192,15ZM7.133,2.725a3.291,3.291,0,0,0-3.619,3.29.1.1,0,0,0,.027.074.109.109,0,0,0,.079.034h6.822a.11.11,0,0,0,.079-.033.1.1,0,0,0,.028-.072A3.157,3.157,0,0,0,7.133,2.725Z" transform="translate(104 35)" fill="#027850"/><path d="M7.192,15a6.948,6.948,0,0,1-5.331-2.17A7.776,7.776,0,0,1,0,7.5a7.924,7.924,0,0,1,1.765-5.31A6.862,6.862,0,0,1,7.133,0a6.7,6.7,0,0,1,5.1,2.03A7.259,7.259,0,0,1,14,7.051V8.3a.1.1,0,0,1-.105.1H3.586a.11.11,0,0,0-.078.033.1.1,0,0,0-.029.071c.039,2.38,1.427,3.8,3.713,3.8,1.73,0,2.905-.674,3.308-1.9a.1.1,0,0,1,.1-.069h3.072a.108.108,0,0,1,.083.039.1.1,0,0,1,.022.08,5.132,5.132,0,0,1-2.128,3.24A7.606,7.606,0,0,1,7.192,15ZM7.133,2.725a3.291,3.291,0,0,0-3.619,3.29.1.1,0,0,0,.027.074.109.109,0,0,0,.079.034h6.822a.11.11,0,0,0,.079-.033.1.1,0,0,0,.028-.072A3.157,3.157,0,0,0,7.133,2.725Z" transform="translate(119 35)" fill="#027850"/><path d="M.1.257H2.822a.1.1,0,0,1,.1.088L3.17,2.172h.116A4.878,4.878,0,0,1,7.639,0,4.961,4.961,0,0,1,13,5.372V14.9a.1.1,0,0,1-.1.1H9.816a.1.1,0,0,1-.1-.1V6.258A3.257,3.257,0,0,0,5.619,3.089c-1.451.425-2.333,1.764-2.333,3.768V14.9a.1.1,0,0,1-.1.1H.1a.1.1,0,0,1-.1-.1V.358a.1.1,0,0,1,.1-.1" transform="translate(136 35)" fill="#027850"/><path d="M0,.291V0H3.245a.1.1,0,0,1,.1.079L6.01,11.047h.117L9,.077A.1.1,0,0,1,9.1,0h3.837a.1.1,0,0,1,.1.077L15.9,11.047h.116L18.684.079a.1.1,0,0,1,.1-.079H22V.291L18.023,14.924a.1.1,0,0,1-.1.076H14.085a.1.1,0,0,1-.1-.077L11.117,3.954H11L8.016,14.924a.1.1,0,0,1-.1.076H4.077a.1.1,0,0,1-.1-.076Z" transform="translate(151 35)" fill="#027850"/><path d="M4.33,22H.67a.114.114,0,0,1-.121-.105V6.724A.115.115,0,0,1,.67,6.618H4.33a.115.115,0,0,1,.122.106v15.17A.115.115,0,0,1,4.33,22ZM2.5,4.262C.911,4.262,0,3.48,0,2.117,0,.772.911,0,2.5,0S5,.772,5,2.117,4.066,4.262,2.5,4.262Z" transform="translate(174 29)" fill="#027850"/><path d="M.1.2H2.6A.1.1,0,0,1,2.7.29l.269,2.263h.112A3.881,3.881,0,0,1,6.825,0H7.9A.1.1,0,0,1,8,.1V2.938a.1.1,0,0,1-.1.1H6.769c-2.434,0-3.693,1.721-3.693,4.733V14.9a.1.1,0,0,1-.1.1H.1a.1.1,0,0,1-.1-.1V.3A.1.1,0,0,1,.1.2" transform="translate(181 35)" fill="#027850"/><g transform="translate(190 35)"><path d="M0,0H14V15H0Z" fill="none"/><g clip-path="url(#a)"><path d="M7.192,15a6.948,6.948,0,0,1-5.331-2.17A7.776,7.776,0,0,1,0,7.5a7.924,7.924,0,0,1,1.765-5.31A6.862,6.862,0,0,1,7.133,0a6.7,6.7,0,0,1,5.1,2.03A7.259,7.259,0,0,1,14,7.051V8.3a.1.1,0,0,1-.105.1H3.585a.109.109,0,0,0-.077.032.1.1,0,0,0-.029.071c.038,2.38,1.426,3.8,3.713,3.8,1.73,0,2.905-.674,3.308-1.9a.1.1,0,0,1,.1-.069h3.071a.109.109,0,0,1,.084.039.1.1,0,0,1,.021.08,5.132,5.132,0,0,1-2.128,3.24A7.606,7.606,0,0,1,7.192,15ZM7.133,2.725a3.291,3.291,0,0,0-3.619,3.29.1.1,0,0,0,.026.073.109.109,0,0,0,.08.035h6.822a.11.11,0,0,0,.079-.033.1.1,0,0,0,.029-.072A3.157,3.157,0,0,0,7.133,2.725Z" fill="#027850"/></g></g><path d="M0,0H68V65H0Z" fill="none"/><g clip-path="url(#b)"><path d="M34,65a.474.474,0,0,1-.442-.3.272.272,0,0,1-.218-.265V53.121a18.748,18.748,0,0,0-.542,1.821.273.273,0,0,1-.264.215h-.021a.264.264,0,0,1-.109-.029,3.264,3.264,0,0,1-.625,1.217.277.277,0,0,1-.21.094.287.287,0,0,1-.071-.009.274.274,0,0,1-.114-.064,3.132,3.132,0,0,1-.589,1.041.28.28,0,0,1-.2.09.272.272,0,0,1-.1-.019.312.312,0,0,1-.049-.026,3.26,3.26,0,0,1-.672.924.28.28,0,0,1-.184.07.274.274,0,0,1-.123-.029,3.925,3.925,0,0,1-.762.863.276.276,0,0,1-.171.06.269.269,0,0,1-.108-.023,3.192,3.192,0,0,1-.712.745.272.272,0,0,1-.313.014,2.628,2.628,0,0,1-.905.735.274.274,0,0,1-.284-.034,3.389,3.389,0,0,1-.7.533.275.275,0,0,1-.27,0,1.938,1.938,0,0,1-.618.342,4.693,4.693,0,0,0-1.533.826l-.02.016a.277.277,0,0,1-.171.06.273.273,0,0,1-.193-.079.279.279,0,0,1-.026-.365,6.042,6.042,0,0,0,.841-1.556,1.851,1.851,0,0,1,.337-.634.28.28,0,0,1,.008-.262,3.442,3.442,0,0,1,.532-.7.275.275,0,0,1-.034-.284,2.632,2.632,0,0,1,.734-.909.274.274,0,0,1,.013-.313,3.2,3.2,0,0,1,.743-.715.276.276,0,0,1,.038-.28,3.91,3.91,0,0,1,.86-.766.274.274,0,0,1,.04-.307,3.227,3.227,0,0,1,.921-.674.31.31,0,0,1-.025-.049.277.277,0,0,1,.07-.307,3.208,3.208,0,0,1,1.038-.591.27.27,0,0,1-.063-.113.282.282,0,0,1,.012-.183c-1.01.537-1.769,1-1.978,1.126l-.009.006a.276.276,0,0,1-.366-.4,2.535,2.535,0,0,0,.164-.265,6.911,6.911,0,0,1-3.11,1.164h-.017a.273.273,0,0,1-.242-.14.277.277,0,0,1,.014-.3,2.258,2.258,0,0,0,.212-.41,6.9,6.9,0,0,1-2.87.952h-.023a.272.272,0,0,1-.244-.17.275.275,0,0,1,.064-.308l.014-.014c.024-.024.074-.074.139-.143a7.821,7.821,0,0,1-2.554.552c-.07,0-.138,0-.2-.006a.277.277,0,0,1-.2-.448,9.638,9.638,0,0,1-1.986.242,5.374,5.374,0,0,1-.6-.032.276.276,0,0,1-.235-.2.273.273,0,0,1,.027-.213,5.918,5.918,0,0,1-1.44.175,6.312,6.312,0,0,1-.87-.061.278.278,0,0,1-.153-.474,7.15,7.15,0,0,1-.993.073,4.549,4.549,0,0,1-1.592-.258.277.277,0,0,1-.066-.482c-.137.008-.258.011-.37.011a6.589,6.589,0,0,1-1.694-.226.275.275,0,0,1-.205-.273.271.271,0,0,1,.022-.1,3.568,3.568,0,0,1-1.518-.382,9.764,9.764,0,0,0-3.447-1.041l-.053-.006a.277.277,0,0,1-.005-.549,12.348,12.348,0,0,0,3.5-1.045,3.406,3.406,0,0,1,1.516-.405.305.305,0,0,1-.014-.082.278.278,0,0,1,.2-.273,6.592,6.592,0,0,1,1.695-.226c.124,0,.248,0,.37.011a.276.276,0,0,1,.067-.482,4.545,4.545,0,0,1,1.592-.258,7.13,7.13,0,0,1,.992.073.279.279,0,0,1-.08-.248.275.275,0,0,1,.233-.227,6.281,6.281,0,0,1,.871-.061,5.917,5.917,0,0,1,1.44.176.278.278,0,0,1-.028-.213.274.274,0,0,1,.235-.2,5.357,5.357,0,0,1,.607-.033,9.53,9.53,0,0,1,1.982.242.278.278,0,0,1-.055-.221.275.275,0,0,1,.256-.227c.071,0,.145-.007.22-.007a7.6,7.6,0,0,1,2.538.553c-.065-.069-.115-.118-.139-.142l-.014-.015a.279.279,0,0,1-.064-.31.27.27,0,0,1,.251-.168h.013a6.867,6.867,0,0,1,2.873.953,2.3,2.3,0,0,0-.212-.41.277.277,0,0,1-.014-.3.273.273,0,0,1,.242-.141h.013a6.75,6.75,0,0,1,2.885,1.021.283.283,0,0,1,.05-.257.279.279,0,0,1,.206-.1H26.6c-1.982-.681-3.592-1.1-3.769-1.151H22.82a.277.277,0,0,1,.054-.544,3.919,3.919,0,0,0,.561-.078,10.887,10.887,0,0,1-4.809-2.114.279.279,0,0,1-.085-.284.275.275,0,0,1,.218-.2,3.63,3.63,0,0,0,1.036-.392,10.918,10.918,0,0,1-4.378-2.116A.277.277,0,0,1,15.6,40.5h.089a7.79,7.79,0,0,0,.835-.046,11.977,11.977,0,0,1-4-2.562.277.277,0,0,1,.2-.461.279.279,0,0,1,.1.019l.005,0h0a2.442,2.442,0,0,0,.58.12,13.891,13.891,0,0,1-3.608-2.914.278.278,0,0,1,.215-.449.264.264,0,0,1,.04,0,2.66,2.66,0,0,0,.337.02h.087a8.989,8.989,0,0,1-3.043-2.585.276.276,0,0,1,.3-.43,4.257,4.257,0,0,0,.562.123,8.652,8.652,0,0,1-3.071-3.3.277.277,0,0,1,.251-.391.277.277,0,0,1,.133.035,2.148,2.148,0,0,0,.6.185A9.484,9.484,0,0,1,3.7,25a.278.278,0,0,1,.048-.338.273.273,0,0,1,.339-.034l.036.022.019.011A4.977,4.977,0,0,1,2.7,22.39a18.943,18.943,0,0,0-2.645-4.9.278.278,0,0,1,.026-.365.272.272,0,0,1,.193-.079.276.276,0,0,1,.172.06l.061.049a14.858,14.858,0,0,0,4.829,2.6,5.233,5.233,0,0,1,2.316,1.555c-.054-.1-.093-.165-.094-.166a.276.276,0,0,1,.373-.387,9.459,9.459,0,0,1,2.854,2.53,2.106,2.106,0,0,0-.185-.6.276.276,0,0,1,.358-.384,8.644,8.644,0,0,1,3.29,3.08,4.021,4.021,0,0,0-.124-.564.28.28,0,0,1,.1-.31.276.276,0,0,1,.326.005,8.982,8.982,0,0,1,2.577,3.052,3.636,3.636,0,0,0-.018-.42v-.008a.274.274,0,0,1,.137-.277.275.275,0,0,1,.308.023,13.9,13.9,0,0,1,2.907,3.62,2.384,2.384,0,0,0-.123-.587.277.277,0,0,1,.1-.328.272.272,0,0,1,.156-.049.277.277,0,0,1,.184.07,12.108,12.108,0,0,1,2.554,4.019,7.88,7.88,0,0,0,.045-.923.281.281,0,0,1,.172-.264.271.271,0,0,1,.1-.02.276.276,0,0,1,.2.091A10.95,10.95,0,0,1,25.97,36.9a3.656,3.656,0,0,0,.391-1.04.276.276,0,0,1,.2-.219.258.258,0,0,1,.073-.01.279.279,0,0,1,.209.1A9.293,9.293,0,0,1,28.6,39.137a.263.263,0,0,1,.062-.083.275.275,0,0,1,.352-.017,4.6,4.6,0,0,0,1,.54,11.735,11.735,0,0,1-2.175-5.426.279.279,0,0,1,.139-.26.276.276,0,0,1,.3.014,3.79,3.79,0,0,0,1.119.5,11.642,11.642,0,0,1-1.724-4.92.276.276,0,0,1,.475-.2,7.985,7.985,0,0,0,.779.7,13.013,13.013,0,0,1-1.116-5,.276.276,0,0,1,.528-.1,2.525,2.525,0,0,0,.4.594A14.921,14.921,0,0,1,28.19,20.5a.276.276,0,0,1,.2-.236.269.269,0,0,1,.073-.01.276.276,0,0,1,.219.11,3.5,3.5,0,0,0,.357.384,9.559,9.559,0,0,1-.371-4.3.275.275,0,0,1,.227-.234.292.292,0,0,1,.045,0,.276.276,0,0,1,.247.149,4.4,4.4,0,0,0,.38.583,9.559,9.559,0,0,1,.148-4.865.271.271,0,0,1,.25-.181l.029,0a.269.269,0,0,1,.244.2,2.4,2.4,0,0,0,.359.656,10.031,10.031,0,0,1,.239-4.118.276.276,0,0,1,.535.01c.006.025.039.159.1.333a5.671,5.671,0,0,1,.562-3.05A15.887,15.887,0,0,0,33.717.329l.009-.084a.276.276,0,0,1,.548-.005,20.119,20.119,0,0,0,1.688,5.689,5.276,5.276,0,0,1,.6,2.941c.021-.067.041-.137.06-.213l0-.006h0a.275.275,0,0,1,.265-.215l.027,0a.271.271,0,0,1,.244.207,10.034,10.034,0,0,1,.239,4.118,2.416,2.416,0,0,0,.358-.656.276.276,0,0,1,.256-.2h.009a.277.277,0,0,1,.26.18,9.572,9.572,0,0,1,.148,4.866,4.562,4.562,0,0,0,.375-.575l0-.008a.278.278,0,0,1,.249-.15.293.293,0,0,1,.042,0,.277.277,0,0,1,.228.234,9.538,9.538,0,0,1-.372,4.3,3.717,3.717,0,0,0,.355-.38l0-.005a.275.275,0,0,1,.219-.109.281.281,0,0,1,.072.009.278.278,0,0,1,.2.236,14.854,14.854,0,0,1-.546,4.977,2.491,2.491,0,0,0,.4-.593.278.278,0,0,1,.252-.165.272.272,0,0,1,.05,0,.275.275,0,0,1,.226.257,12.978,12.978,0,0,1-1.115,5,8.118,8.118,0,0,0,.779-.7.279.279,0,0,1,.2-.085.274.274,0,0,1,.106.021.282.282,0,0,1,.168.268,11.633,11.633,0,0,1-1.725,4.92,3.856,3.856,0,0,0,1.118-.5.273.273,0,0,1,.294-.016.28.28,0,0,1,.141.261,11.637,11.637,0,0,1-2.074,5.276c.2-.125.544-.335.776-.476l.009-.005.216-.132a.283.283,0,0,1,.187-.072.27.27,0,0,1,.174.063.219.219,0,0,1,.04.047l0,.005a9.066,9.066,0,0,1,1.669-3.131.273.273,0,0,1,.285-.085.277.277,0,0,1,.194.219A3.66,3.66,0,0,0,42.03,36.9a10.97,10.97,0,0,1,2.11-4.391.278.278,0,0,1,.205-.09.274.274,0,0,1,.1.019.283.283,0,0,1,.175.265,7.554,7.554,0,0,0,.044.92,12.035,12.035,0,0,1,2.554-4.016.276.276,0,0,1,.441.307,2.363,2.363,0,0,0-.122.586,13.913,13.913,0,0,1,2.906-3.618.275.275,0,0,1,.445.254v.008a3.535,3.535,0,0,0-.018.419,9,9,0,0,1,2.578-3.053.271.271,0,0,1,.166-.056.274.274,0,0,1,.159.051.277.277,0,0,1,.1.31,4.207,4.207,0,0,0-.123.563,8.652,8.652,0,0,1,3.291-3.08.263.263,0,0,1,.113-.025.278.278,0,0,1,.242.412,2.154,2.154,0,0,0-.184.6,9.466,9.466,0,0,1,2.855-2.53.28.28,0,0,1,.138-.037.273.273,0,0,1,.2.085.276.276,0,0,1,.035.339c-.026.042-.06.1-.1.169a5.228,5.228,0,0,1,2.318-1.559,14.852,14.852,0,0,0,4.825-2.6l0,0,.06-.049a.276.276,0,0,1,.391.384,18.888,18.888,0,0,0-2.644,4.9,4.969,4.969,0,0,1-1.443,2.269l.056-.033a.271.271,0,0,1,.146-.042A.278.278,0,0,1,64.3,25a9.474,9.474,0,0,1-2.524,2.864,2.136,2.136,0,0,0,.6-.185.276.276,0,0,1,.134-.035.273.273,0,0,1,.187.075.277.277,0,0,1,.063.318,8.656,8.656,0,0,1-3.071,3.3,4.282,4.282,0,0,0,.557-.122l.007,0a.27.27,0,0,1,.085-.014.277.277,0,0,1,.219.444,8.967,8.967,0,0,1-3.043,2.585H57.6a2.68,2.68,0,0,0,.332-.019h.006l.039,0a.274.274,0,0,1,.238.14.278.278,0,0,1-.023.31,13.874,13.874,0,0,1-3.608,2.915,2.352,2.352,0,0,0,.585-.123.273.273,0,0,1,.1-.019.277.277,0,0,1,.205.462,11.946,11.946,0,0,1-4,2.561,7.845,7.845,0,0,0,.827.046h.089a.276.276,0,0,1,.194.481A10.894,10.894,0,0,1,48.2,43.092a3.581,3.581,0,0,0,1.033.392.28.28,0,0,1,.221.2.284.284,0,0,1-.085.284,10.871,10.871,0,0,1-4.81,2.114,3.914,3.914,0,0,0,.562.078.277.277,0,0,1,.261.249.28.28,0,0,1-.208.3c-.015,0-1.545.394-3.557,1.076a.279.279,0,0,1-.014.31,2.49,2.49,0,0,0-.164.266,6.91,6.91,0,0,1,3.11-1.164h.021a.274.274,0,0,1,.239.14.277.277,0,0,1-.014.3l0,.006a2.482,2.482,0,0,0-.208.4,6.864,6.864,0,0,1,2.869-.953h.017a.272.272,0,0,1,.25.169.277.277,0,0,1-.064.309l-.008.007c-.023.023-.076.075-.145.15a7.853,7.853,0,0,1,2.558-.553c.068,0,.136,0,.2.005a.277.277,0,0,1,.2.448,9.305,9.305,0,0,1,1.981-.242,5.329,5.329,0,0,1,.609.033.276.276,0,0,1,.207.414A5.907,5.907,0,0,1,54.7,47.65a6.242,6.242,0,0,1,.873.062.277.277,0,0,1,.153.473,7.151,7.151,0,0,1,.993-.073,4.545,4.545,0,0,1,1.592.258.277.277,0,0,1,.067.482c.137-.008.259-.012.372-.012a6.58,6.58,0,0,1,1.692.227.276.276,0,0,1,.2.273.284.284,0,0,1-.022.1,3.558,3.558,0,0,1,1.519.382,9.711,9.711,0,0,0,3.45,1.041l.05.005a.277.277,0,0,1,0,.549,12.355,12.355,0,0,0-3.5,1.045,3.4,3.4,0,0,1-1.517.405.305.305,0,0,1,.014.082.276.276,0,0,1-.2.273,6.565,6.565,0,0,1-1.693.226c-.124,0-.249,0-.372-.011a.277.277,0,0,1-.067.482,4.536,4.536,0,0,1-1.591.259,7.091,7.091,0,0,1-.994-.073.28.28,0,0,1,.082.247.277.277,0,0,1-.234.227,6.263,6.263,0,0,1-.87.061,5.919,5.919,0,0,1-1.441-.176.277.277,0,0,1-.207.415,5.368,5.368,0,0,1-.608.033,9.283,9.283,0,0,1-1.981-.242.277.277,0,0,1-.2.447c-.068,0-.138.006-.21.006a7.775,7.775,0,0,1-2.549-.553c.071.076.126.131.152.156a.277.277,0,0,1-.193.478h-.014a6.855,6.855,0,0,1-2.864-.952,2.4,2.4,0,0,0,.208.4l0,.006a.277.277,0,0,1,.015.294.285.285,0,0,1-.25.141,6.775,6.775,0,0,1-2.89-1.022.277.277,0,0,1-.051.257.275.275,0,0,1-.355.062l0,0c-.2-.119-1.275-.745-2.649-1.4a2.8,2.8,0,0,1,.567.375.28.28,0,0,1,.086.283.288.288,0,0,1-.063.113,3.217,3.217,0,0,1,1.037.591.278.278,0,0,1,.07.308.342.342,0,0,1-.025.048,3.218,3.218,0,0,1,.921.674.277.277,0,0,1,.041.308,3.9,3.9,0,0,1,.859.765.277.277,0,0,1,.038.281,3.179,3.179,0,0,1,.743.714.277.277,0,0,1,.014.314,2.619,2.619,0,0,1,.733.908.276.276,0,0,1-.033.285,3.441,3.441,0,0,1,.531.7.279.279,0,0,1,0,.271,1.944,1.944,0,0,1,.34.62,4.71,4.71,0,0,0,.824,1.537l.016.021a.276.276,0,0,1-.02.365.27.27,0,0,1-.2.083.275.275,0,0,1-.168-.057,6.045,6.045,0,0,0-1.55-.843,1.837,1.837,0,0,1-.634-.338.277.277,0,0,1-.123.029.271.271,0,0,1-.138-.038,3.369,3.369,0,0,1-.7-.533.277.277,0,0,1-.17.059.271.271,0,0,1-.114-.025,2.627,2.627,0,0,1-.906-.735.276.276,0,0,1-.147.043.271.271,0,0,1-.166-.057,3.159,3.159,0,0,1-.711-.745.274.274,0,0,1-.282-.038,3.958,3.958,0,0,1-.761-.862.278.278,0,0,1-.123.029.271.271,0,0,1-.184-.071,3.213,3.213,0,0,1-.671-.923l-.01.006a.39.39,0,0,1-.038.018.274.274,0,0,1-.1.02.277.277,0,0,1-.2-.089,3.119,3.119,0,0,1-.59-1.041.277.277,0,0,1-.113.064.294.294,0,0,1-.072.009.279.279,0,0,1-.21-.094,3.276,3.276,0,0,1-.637-1.254h-.03a.274.274,0,0,1-.27-.208,17.86,17.86,0,0,0-.623-1.916V64.435a.272.272,0,0,1-.208.263A.475.475,0,0,1,34,65Zm8.981-4.22h0a1.277,1.277,0,0,0,.558.346,4.4,4.4,0,0,1,.685.287c-.015-.032-.029-.066-.043-.1l-.029-.066ZM25.08,60.691l-1.209.483-.008.019c-.032.071-.065.145-.1.214a6.287,6.287,0,0,1,.687-.277A1.354,1.354,0,0,0,25.08,60.691Zm17.411-.439a.279.279,0,0,1,.262.185.549.549,0,0,0,.029.061l1.164.466-2.41-2.433.07,1.2a.272.272,0,0,1,.19.149,2.213,2.213,0,0,0,.437.554A.278.278,0,0,1,42.492,60.251ZM26.307,58.531,24,60.861l-.013.036-.013.036,1.282-.513a.286.286,0,0,1,.237-.168.282.282,0,0,1,.276.183,2.234,2.234,0,0,0,.438-.556.11.11,0,0,1,.015-.022l.01-.014Zm15.507.016,2.123,2.142a1.373,1.373,0,0,0-.688-.766.277.277,0,0,1,.01-.517,2.268,2.268,0,0,0-.551-.439.276.276,0,0,1-.156-.233l-.739-.187Zm-1.4.49h0a.281.281,0,0,1,.246.148,3.493,3.493,0,0,0,.611.8l0-.009,0-.012a.273.273,0,0,1,.147-.206l-.077-1.327-1.572-.4-.112.323a.272.272,0,0,1,.116.153,2.321,2.321,0,0,0,.394.682.275.275,0,0,1,.212-.148Zm-13.941.687h.02a.276.276,0,0,1,.235.235l0,.022a3.486,3.486,0,0,0,.612-.8.275.275,0,0,1,.246-.147h.028a.276.276,0,0,1,.214.148,2.258,2.258,0,0,0,.394-.682l0-.007,0-.007-.132-.38-1.6.36-.073,1.258.017,0Zm-.479-1.141-.545.122a.273.273,0,0,1-.154.262,2.266,2.266,0,0,0-.553.438.279.279,0,0,1,.183.255l1.069-1.077Zm15.453-1.6.074,1.265.041.041,1.047.265a.272.272,0,0,1,.18-.111l.02,0a3.411,3.411,0,0,0-.793-.613.277.277,0,0,1,0-.491A2.432,2.432,0,0,0,41.445,56.984ZM25.192,58.44l.013,0,.009,0a.275.275,0,0,1,.163.086l.86-.193.087-.088.069-1.187a2.474,2.474,0,0,0-.408.274.277.277,0,0,1,0,.491,3.425,3.425,0,0,0-.795.613Zm13.593-.661a5.387,5.387,0,0,0,.476.687.277.277,0,0,1,.215-.155l.114-.328-.806-.2Zm-10.3.526h0a.276.276,0,0,1,.254.16,5.222,5.222,0,0,0,.421-.595l-.878.2.093.265A.281.281,0,0,1,28.485,58.306Zm-.743-1.224-1.168,1.179,1.464-.328Zm12.359,0-.267.77,1.376.348L40.1,57.082Zm.414-1.192-.346,1,1.152,1.163L41.253,56.9a.278.278,0,0,1,.043-.477,5.4,5.4,0,0,0-.782-.534Zm-13.16.076a5.041,5.041,0,0,0-.651.458.277.277,0,0,1-.041.517s-.033.011-.079.03l-.063,1.078,1.152-1.163-.319-.92Zm1.326.169-.793.8.333.957,1.068-.239.045-.084.013-.023a.274.274,0,0,1,.246-.152.286.286,0,0,1,.2.087,5.3,5.3,0,0,0,.417-.85l-1.529-.5ZM38.4,57.393a.274.274,0,0,1,.25.152l0,.009.994.252.3-.872-.772-.779-1.391.478a5.251,5.251,0,0,0,.416.847A.275.275,0,0,1,38.4,57.393Zm1.908-1.626-.933.32.644.651.328-.942-.009-.006A.309.309,0,0,1,40.312,55.767ZM27.644,55.8l-.009.007a.074.074,0,0,1-.014.01h0s-.047.024-.1.055l.3.868.661-.668Zm10.606-1.447L36.982,55.68a4.425,4.425,0,0,0,.263.775.277.277,0,0,1,.238-.137.268.268,0,0,1,.117.03Zm-7.733,1.966a.28.28,0,0,1,.239.138,4.347,4.347,0,0,0,.252-.733.093.093,0,0,1-.051.017.1.1,0,0,1-.071-.033l-1.048-1.237.668,1.85h.011ZM28.5,54.964a5.165,5.165,0,0,0-.809.4.27.27,0,0,1,.076.274l2.293.743Zm1.021-.835a4.419,4.419,0,0,0-.81.273.276.276,0,0,1,.137.239.271.271,0,0,1-.157.245l1.642,1.5Zm9.886.8h0l-1.437,1.452,1.166-.4a.08.08,0,0,1,.063-.027h.013l1.023-.351a.131.131,0,0,0,0-.015.1.1,0,0,1,0-.019.283.283,0,0,1,.087-.2,5.334,5.334,0,0,0-.911-.443Zm-.888-.788-.687,2.113,1.407-1.42a.273.273,0,0,1,.057-.428,4.393,4.393,0,0,0-.777-.265h0Zm-2.42.734h0a3.486,3.486,0,0,0,.274.713,1.056,1.056,0,0,1,.121-.152.264.264,0,0,1,.054-.042Zm-4.177-.043-.534.528a.275.275,0,0,1,.128.076,1.107,1.107,0,0,1,.122.152A3.476,3.476,0,0,0,31.918,54.828Zm-2.184-.8,0,.006,0,.006,1.239,1.464,1.028-1.014c0-.023.008-.044.011-.064l-1.031-.181Zm8.537,0h0l-2.271.4c0,.014,0,.029.007.044v.007l.752.873h.006a.274.274,0,0,1,.152.118l1.362-1.428,0-.006,0-.006Zm6.056-4.772h0l-.046,4.162a.334.334,0,0,1,.062.03,8.469,8.469,0,0,0,2.421,1.093,2.961,2.961,0,0,1-.315-.5.276.276,0,0,1,.053-.317.072.072,0,0,1,.013-.01l.01-.007Zm-20.688.02h0L21.457,53.7l.016.01a.136.136,0,0,1,.028.02.276.276,0,0,1,.053.316,3.047,3.047,0,0,1-.315.5,8.452,8.452,0,0,0,2.422-1.093l-.023-4.172Zm24.646,1.491h0L46.856,53.7a10.155,10.155,0,0,0,2.575.824,1.211,1.211,0,0,1-.154-.292.274.274,0,0,1,.062-.285.278.278,0,0,1,.2-.084.268.268,0,0,1,.085.014l.091.029L51.7,52.683l-.955-1.9-2.464-.008Zm-28.6.014L17.22,50.8l-.9,1.788L18.5,53.868a.272.272,0,0,1,.163.078.281.281,0,0,1,.062.287,1.214,1.214,0,0,1-.154.292,10.171,10.171,0,0,0,2.543-.809Zm22.074,2.687h0a7.188,7.188,0,0,0,2.323,1,2.285,2.285,0,0,1-.173-.77Zm-15.471-.03-2.206.16a.323.323,0,0,1,.012.084,2.25,2.25,0,0,1-.175.789A7.2,7.2,0,0,0,26.287,53.447Zm25.5-.6-1.83,1.124a10.048,10.048,0,0,0,2.44.387,2.384,2.384,0,0,1-.239-.374.275.275,0,0,1,.044-.31l-.416-.828Zm-36,.814a.276.276,0,0,1,.054.324,2.322,2.322,0,0,1-.239.373,10.42,10.42,0,0,0,2.622-.437l-1.987-1.171-.456.908.006,0Zm19.914.357a.272.272,0,0,1,.269.228l.725-.127-1.739-1.86a15.908,15.908,0,0,1,.653,1.775A.274.274,0,0,1,35.7,54.021ZM33.223,51.95l-.133.062-1.846,2.1.786.138a.278.278,0,0,1,.193-.215.272.272,0,0,1,.238.043A15.465,15.465,0,0,1,33.223,51.95ZM13.272,53.336a.277.277,0,0,1,.236.42,1.655,1.655,0,0,1-.27.332h.03a5,5,0,0,0,2.2-.468.266.266,0,0,1,.13-.032h.017l.467-.931L13.1,50.9l-2.175,1.94a.274.274,0,0,1-.02.294,2.458,2.458,0,0,1-.4.427,4.728,4.728,0,0,0,.772.06,7.312,7.312,0,0,0,1.918-.277A.266.266,0,0,1,13.272,53.336Zm39.132.251a.284.284,0,0,1,.133.033,5.266,5.266,0,0,0,2.227.468,1.68,1.68,0,0,1-.271-.332.277.277,0,0,1,.236-.42.265.265,0,0,1,.082.013,7.426,7.426,0,0,0,1.919.276,4.748,4.748,0,0,0,.768-.059,2.541,2.541,0,0,1-.4-.427.277.277,0,0,1-.021-.291L54.96,50.9l-3.015,1.853.419.836ZM34.969,52h0l1.946,2.082,1.275-.223a.3.3,0,0,1,0-.058l-2.934-1.68C35.155,52.082,35.061,52.042,34.969,52Zm-2.293.2c-.188.08-.39.16-.6.238l-2.269,1.373a.378.378,0,0,1,0,.045l1.219.215Zm-5.572.727a.274.274,0,0,1,.271.315,2.469,2.469,0,0,1-.1.41,29.514,29.514,0,0,1,5.3-2.456L26,51.476l1.09,1.452H27.1Zm17.034-4.039-3.076,4.1,0,0,.005,0c.024.019.152.121.351.262l2.534.274a.28.28,0,0,1,.094-.086.27.27,0,0,1,.036-.014l.005,0,.049-4.529,0-.007Zm-25.57-1.121h0a1.228,1.228,0,0,1,.154.293.275.275,0,0,1-.04.254l1.12,2.294a.1.1,0,0,1,.059.086.079.079,0,0,1-.005.024L21.19,53.45l.015-4.832-.009,0-.012,0a10.27,10.27,0,0,0-2.615-.844Zm2.67-.024a3.1,3.1,0,0,1,.315.5.275.275,0,0,1-.054.316.272.272,0,0,1-.109.064l-.015,4.826,2.261-4.58v-.048A8.678,8.678,0,0,0,21.239,47.743Zm28.192.024a10.3,10.3,0,0,0-2.614.844.209.209,0,0,1-.046.015l-.009,0,.015,4.808,1.333-2.731,0-.007a.046.046,0,0,1,0-.017.092.092,0,0,1,.059-.086l1.129-2.313a.28.28,0,0,1-.016-.221A1.26,1.26,0,0,1,49.431,47.768Zm-2.669-.024a8.545,8.545,0,0,0-2.423,1.094l-.009,0v.011l2.263,4.582-.016-4.821a.275.275,0,0,1-.131-.37A2.991,2.991,0,0,1,46.761,47.743ZM23.828,48.9l-.005.011.023,4.5a.245.245,0,0,1,.076.02l2.675-.194c.166-.116.274-.2.313-.232l-1.14-1.518-.1-.139Zm11.729,2.291h0a28.273,28.273,0,0,1,5.106,2.23,1.183,1.183,0,0,1-.04-.182.277.277,0,0,1,.14-.28.265.265,0,0,1,.107-.031l1.086-1.446ZM57.32,52.7a.267.267,0,0,1,.088.015,4.427,4.427,0,0,0,1.351.184,5.844,5.844,0,0,0,.714-.044,1.062,1.062,0,0,1-.279-.305.435.435,0,0,1-.027-.05.276.276,0,0,1,.249-.4.272.272,0,0,1,.117.026,1.612,1.612,0,0,0,.2.072l3.19-1.374L55.13,50.8l2.08,1.923A.281.281,0,0,1,57.32,52.7ZM8.585,52.1a.277.277,0,0,1,.248.4c-.009.018-.019.036-.029.052a1.048,1.048,0,0,1-.276.3,5.847,5.847,0,0,0,.709.044,4.485,4.485,0,0,0,1.355-.182.259.259,0,0,1,.087-.015.286.286,0,0,1,.107.021l2.14-1.908-7.883.025L8.216,52.2a1.959,1.959,0,0,0,.261-.082A.268.268,0,0,1,8.585,52.1Zm42.371-1.313.905,1.8,2.913-1.79ZM17.011,50.8l-3.705.011,2.855,1.682Zm46.227.092h0l-3.2,1.378a2.917,2.917,0,0,0,.511.045,2.832,2.832,0,0,0,1.34-.336,10.572,10.572,0,0,1,2.239-.811c-.275-.07-.559-.159-.892-.276ZM4.7,50.89c-.259.083-.53.16-.83.237a11.307,11.307,0,0,1,2.234.846,3,3,0,0,0,1.358.321,3.161,3.161,0,0,0,.428-.029L4.7,50.89Zm39.277-2.1h0L36.787,50.6c-.383.157-.753.3-1.1.411l6.4.292h.006l1.886-2.512Zm-19.969.019,0,0-.006,0L25.86,51.3l6.331-.27c-.462-.143-.948-.319-1.445-.521l-6.737-1.7ZM7.453,49.98a2.833,2.833,0,0,0-1.343.337,7.406,7.406,0,0,1-.728.33l7.243-.022L10.817,49.56a.287.287,0,0,1-.136.036.263.263,0,0,1-.088-.015A4.478,4.478,0,0,0,9.238,49.4a5.836,5.836,0,0,0-.709.044,1.071,1.071,0,0,1,.279.3c.009.016.019.034.027.052a.279.279,0,0,1-.052.315.282.282,0,0,1-.2.081.273.273,0,0,1-.117-.026A2.654,2.654,0,0,0,7.453,49.98Zm49.708-.431-1.73,1.063,7.149.023c-.27-.115-.487-.215-.684-.314A3.013,3.013,0,0,0,60.533,50a2.818,2.818,0,0,0-1.012.177.27.27,0,0,1-.108.022.276.276,0,0,1-.248-.4c.008-.016.018-.034.029-.052a1.066,1.066,0,0,1,.274-.3,5.861,5.861,0,0,0-.7-.043,4.481,4.481,0,0,0-1.358.182.28.28,0,0,1-.092.016.27.27,0,0,1-.155-.048Zm-45.886-.882a4.739,4.739,0,0,0-.774.06,2.464,2.464,0,0,1,.4.427.277.277,0,0,1,.036.263l2.048,1.206h.147l2.236-1.993a5.161,5.161,0,0,0-2.1-.425h-.039a1.715,1.715,0,0,1,.271.332.277.277,0,0,1-.237.42.275.275,0,0,1-.082-.012A7.2,7.2,0,0,0,11.275,48.667Zm4.3.036h0l-2.153,1.92,3.686-.012,1.125-2.239a10.409,10.409,0,0,0-2.626-.439,2.328,2.328,0,0,1,.239.373.276.276,0,0,1-.055.325.269.269,0,0,1-.187.074l-.029,0Zm39.151-.5a5.276,5.276,0,0,0-2,.382l2.2,2.023h.156L57.051,49.4a.281.281,0,0,1,.042-.243,2.464,2.464,0,0,1,.406-.427,4.737,4.737,0,0,0-.778-.061,7.115,7.115,0,0,0-1.911.279.262.262,0,0,1-.082.013.277.277,0,0,1-.237-.421,1.706,1.706,0,0,1,.27-.332Zm-36.311.218-1.1,2.187,2.28-.007-1.064-2.18a.246.246,0,0,1-.057.006A.306.306,0,0,1,18.411,48.423Zm33.985-.49a10.46,10.46,0,0,0-2.648.445L50.863,50.6l3.782.012-2.1-1.939a.288.288,0,0,1-.138.037.277.277,0,0,1-.245-.4A2.26,2.26,0,0,1,52.4,47.932Zm-2.958.477-1.064,2.18,2.28.007-1.089-2.169h-.027A.267.267,0,0,1,49.438,48.409Zm-8.718.232c-.678.39-1.73.967-2.894,1.5l3.106-.782-.009,0H40.9a.275.275,0,0,1-.273-.315A2.518,2.518,0,0,1,40.72,48.641ZM25.076,42.908l-.5,2.808a.273.273,0,0,1,.141.168.278.278,0,0,1-.1.3,2.147,2.147,0,0,1-.553.293A39.761,39.761,0,0,1,32.984,50.1l-.011-.019,0-.007-7.894-7.163Zm-1.157,4.906a2.252,2.252,0,0,1,.175.79.132.132,0,0,1,0,.019s0,.009,0,.014l5.581,1.4c-.953-.435-1.794-.877-2.333-1.171a1.41,1.41,0,0,1,.039.181.279.279,0,0,1-.139.28.273.273,0,0,1-.31-.029A8.037,8.037,0,0,0,23.918,47.813Zm19.005-4.888L35.11,50.04a40.149,40.149,0,0,1,8.822-3.566,2.172,2.172,0,0,1-.554-.293.279.279,0,0,1-.1-.3.271.271,0,0,1,.1-.14Zm-.817-5.095L36.124,47.858c-.281.647-.57,1.249-.86,1.789l7.625-6.942Zm-16.139.048-.858,4.837a.087.087,0,0,1,.057.024l7.525,6.827c-.309-.583-.618-1.239-.918-1.948l-5.806-9.741Zm18.113,9.935h0a7.9,7.9,0,0,0-3,1.486.288.288,0,0,1-.083.05l-.063.016a.278.278,0,0,0,.063-.016l2.915-.734a.056.056,0,0,0,0-.007.043.043,0,0,1,0-.005,2.25,2.25,0,0,1,.174-.79Zm-9.576-9.633-.733,10.766c.025.082.04.137.057.2.01.036.02.073.032.117l.251.005A47.784,47.784,0,0,1,38,40.1a2.342,2.342,0,0,1-.677.217l-.038,0a.275.275,0,0,1-.241-.142.279.279,0,0,1-.031-.175ZM30.128,35l3,12.114c.179.457.343.912.489,1.351l.708-10.413Zm8.342,5.872a55.79,55.79,0,0,1-1.865,5.818l5.35-8.968a3.446,3.446,0,0,1-.709-1.215,11.922,11.922,0,0,0-1.8,5.091.275.275,0,0,1-.2.241.3.3,0,0,1-.076.01.273.273,0,0,1-.221-.11A3.819,3.819,0,0,1,38.471,40.871ZM26.754,36.506a3.5,3.5,0,0,1-.683,1.183l5.249,8.8c-.686-1.786-1.409-4.111-1.819-5.559a3.753,3.753,0,0,1-.452.8.275.275,0,0,1-.221.11.271.271,0,0,1-.074-.01.275.275,0,0,1-.2-.24A11.73,11.73,0,0,0,26.754,36.506Zm3.059,3.586.011.013a.105.105,0,0,1,.018.022c.688,1.221,1.947,3.832,2.807,5.82l-2.7-10.912h-.011a3.642,3.642,0,0,1-1.484-.394,12.548,12.548,0,0,0,2.471,5.227.279.279,0,0,1,.029.312.273.273,0,0,1-.241.142l-.039,0A3.884,3.884,0,0,1,29.813,40.091ZM42.3,37.849l1.256,7.833.122-.015,3.61-2.715a.274.274,0,0,1,.011-.072l0-.01,0-.01L42.4,37.883ZM25.773,37.9l-.094.032-4.953,5.02,3.557,2.705.065.008.048.006L25.773,37.9Zm21.58,5.231-3.29,2.475A11.171,11.171,0,0,0,48.6,43.879a3.444,3.444,0,0,1-1.225-.722l-.011-.013Zm-26.7,0-.007.009a.1.1,0,0,1-.014.017,3.422,3.422,0,0,1-1.224.722A11.172,11.172,0,0,0,23.9,45.6Zm4.637-5.062-7.528,2.549a.277.277,0,0,1-.17.175,5.033,5.033,0,0,1-1.227.23,12.241,12.241,0,0,0,4.126,1.662.273.273,0,0,1,.155.09Zm17.507-.053h0l4.637,4.7a.263.263,0,0,1,.084-.032,12.232,12.232,0,0,0,4.127-1.662,5.033,5.033,0,0,1-1.227-.23.277.277,0,0,1-.185-.258ZM23.417,34.869h0l-5.526,5.507,7.691-2.6.049-.05a.273.273,0,0,1-.062-.129,12.377,12.377,0,0,0-1.657-4.141,5.076,5.076,0,0,1-.23,1.231.275.275,0,0,1-.26.185Zm20.676-1.416a12.345,12.345,0,0,0-1.656,4.138.247.247,0,0,1-.011.037l0,.012.078.08,7.691,2.6-5.5-5.48a.271.271,0,0,1-.107.025.276.276,0,0,1-.262-.185A5.066,5.066,0,0,1,44.093,33.453Zm-27.6-.665-2.975,1.035.891,3.671a.275.275,0,0,1-.047.469,1.839,1.839,0,0,1-.782.167,14.915,14.915,0,0,0,3.976,2.128l1.634-4.782-2.7-2.688Zm4.531-2.125a1.836,1.836,0,0,1-.166.783.274.274,0,0,1-.141.133L19.4,35.435a.089.089,0,0,1-.008.112.043.043,0,0,1-.024.011l-.011,0-1.6,4.685,5.474-5.456a.269.269,0,0,1-.073-.109A15.1,15.1,0,0,0,21.022,30.663Zm30.564,2.073h0l-2.7,2.687,1.642,4.8a14.586,14.586,0,0,0,3.891-2.1,1.834,1.834,0,0,1-.781-.167.277.277,0,0,1-.007-.5l.035-.018.893-3.678-2.975-1.034Zm-4.609-2.073a15.206,15.206,0,0,0-2.133,4.019.107.107,0,0,1-.011.022l-.006.011,5.5,5.477-1.6-4.684-.011,0a.05.05,0,0,1-.024-.011.089.089,0,0,1-.008-.112L47.388,31.6a.28.28,0,0,1-.245-.157,1.864,1.864,0,0,1-.166-.783ZM34.432,37.878h0a.1.1,0,0,1,.086.081L37.1,39.839c.017-.02.043-.053.078-.1l.73-4.745a.281.281,0,0,1-.088-.093l-7.558-.032,4.144,3.011A.1.1,0,0,1,34.432,37.878Zm5.117-3.236a3.663,3.663,0,0,1-1.454.392l-.675,4.385A11.869,11.869,0,0,0,39.549,34.643Zm-26.21-.759-1.6.557a.273.273,0,0,1-.175.172,3.567,3.567,0,0,1-.916.163,15.552,15.552,0,0,0,3.54,2.594l-.846-3.486Zm41.4-.053-.849,3.5a15.206,15.206,0,0,0,3.465-2.554,3.532,3.532,0,0,1-.916-.163.275.275,0,0,1-.188-.257ZM20.357,31.444,16.686,32.72l2.569,2.56,1.262-3.695a.275.275,0,0,1-.156-.133Zm27.32-.067c-.017.035-.031.061-.037.071a.283.283,0,0,1-.078.094l1.259,3.686,2.569-2.56ZM38.246,30.9l-7.9,3.782,7.442.032a.3.3,0,0,1,.042-.112A13.188,13.188,0,0,0,39.7,30.187a5.437,5.437,0,0,1-1.128.78.273.273,0,0,1-.12.027.28.28,0,0,1-.2-.081l0-.006,0-.006ZM28.3,30.187a13.145,13.145,0,0,0,1.847,4.384l7.906-3.785L29.822,30.7a.28.28,0,0,1-.077.216.276.276,0,0,1-.316.054A5.447,5.447,0,0,1,28.3,30.187ZM8.374,31.9a7.717,7.717,0,0,0,3.18,2.181.272.272,0,0,1,.176.162l1.565-.544-1.283-5.289-4.568-.189a.272.272,0,0,1-.221.2,3.707,3.707,0,0,1-.525.038,3.334,3.334,0,0,1-.634-.06A10.076,10.076,0,0,0,9.39,31.351a.276.276,0,0,1-.061.513,2.346,2.346,0,0,1-.56.062A3.484,3.484,0,0,1,8.374,31.9Zm52.193-3.644h0l-4.517.164-1.267,5.225,1.526.531a.281.281,0,0,1,.139-.1,7.725,7.725,0,0,0,3.18-2.181,3.521,3.521,0,0,1-.4.024,2.343,2.343,0,0,1-.559-.062.277.277,0,0,1-.062-.514A10.11,10.11,0,0,0,61.936,28.4a3.351,3.351,0,0,1-.635.06,3.694,3.694,0,0,1-.525-.038.274.274,0,0,1-.211-.16Zm-48.33.289,1.235,5.092,2.872-1Zm43.6-.053-4.107,4.094,2.872,1ZM12.38,28.427l4.16,4.146,3.729-1.3a15.554,15.554,0,0,0-2.589-3.557,3.542,3.542,0,0,1-.162.92.276.276,0,0,1-.527-.01.1.1,0,0,1,0-.012Zm37.941-.707a15.319,15.319,0,0,0-2.553,3.49l3.77,1.31,4.1-4.083-4.615.167a.225.225,0,0,0-.008.026.279.279,0,0,1-.261.2.283.283,0,0,1-.267-.191A3.621,3.621,0,0,1,50.321,27.72Zm-21.94-1.81a15.872,15.872,0,0,0,1.374,4.6l8.288.09L33.26,28.261a.09.09,0,0,1-.049.016.093.093,0,0,1-.092-.086l-3.741-1.83a.271.271,0,0,1-.258.043A1.966,1.966,0,0,1,28.381,25.91Zm8.04-3.355-3.1,1.568L33.3,28.075l4.947,2.419a15.815,15.815,0,0,0,1.367-4.583,1.967,1.967,0,0,1-.739.493.277.277,0,0,1-.355-.347l.012-.038L38.544,26,36.42,22.555Zm-25.1.57a3.507,3.507,0,0,1,.022,1.164.274.274,0,0,1-.1.169l.908,3.744.031.031,4.733.2a8.1,8.1,0,0,0-2.1-2.986,2.76,2.76,0,0,1-.038.958.279.279,0,0,1-.235.209l-.032,0a.275.275,0,0,1-.245-.148A9.977,9.977,0,0,0,11.32,23.125Zm41.864,2.317a8.136,8.136,0,0,0-2.1,2.973l4.741-.171.1-.1.886-3.651a.28.28,0,0,1-.153-.209,3.507,3.507,0,0,1,.022-1.164,10.175,10.175,0,0,0-2.944,3.337.277.277,0,0,1-.243.149l-.033,0a.279.279,0,0,1-.236-.209A2.737,2.737,0,0,1,53.185,25.442ZM65.06,19.357l-.049.025-.059.031L56.1,28.234l4.45-.161A.273.273,0,0,1,60.7,27.9a7.929,7.929,0,0,0,2.626-2.4,2.138,2.138,0,0,1-.59.093,1.314,1.314,0,0,1-.333-.041l-.073-.022a.273.273,0,0,1-.185-.259A.277.277,0,0,1,62.326,25s.052-.021.133-.059l2.6-5.584ZM4.676,25.493a7.92,7.92,0,0,0,2.625,2.4.278.278,0,0,1,.133.141l4.474.185L3.1,19.439l-.04-.021-.052-.026,2.578,5.569c.044.02.074.032.085.037a.277.277,0,0,1,0,.525c-.023.008-.046.014-.069.021a1.326,1.326,0,0,1-.337.041A2.1,2.1,0,0,1,4.676,25.493Zm28.454-1.275-3.655,1.846a.281.281,0,0,1,.006.141l3.637,1.779ZM3.582,19.658h0L11.9,27.95l-.832-3.428a.277.277,0,0,1-.249-.155,7.927,7.927,0,0,0-2.395-2.633,1.754,1.754,0,0,1,.051.924c-.006.023-.012.043-.018.063l0,.009a.277.277,0,0,1-.255.188.281.281,0,0,1-.264-.175,4.749,4.749,0,0,0-2.773-2.464C4.662,20.111,4.145,19.908,3.582,19.658Zm55.994,2.075a7.984,7.984,0,0,0-2.4,2.634.271.271,0,0,1-.182.146L56.177,27.9l8.285-8.257a17.438,17.438,0,0,1-1.625.64,4.749,4.749,0,0,0-2.774,2.464.275.275,0,0,1-.518-.016c-.008-.022-.015-.046-.022-.07a1.758,1.758,0,0,1,.052-.923Zm-30.881-.549a16.548,16.548,0,0,0,.726,4.7l3.711-1.875.019-6-3.424,3.864a.092.092,0,0,1-.158-.085l-.014,0a.127.127,0,0,1-.024-.008A3.749,3.749,0,0,1,28.695,21.184Zm9.432.509-1.54.778,2.029,3.287a16.344,16.344,0,0,0,.689-4.574,3.782,3.782,0,0,1-.835.592.28.28,0,0,1-.125.03.272.272,0,0,1-.2-.085.106.106,0,0,1-.014-.019Zm-36.72-3.2h0a17.026,17.026,0,0,1,1.824,3.736,4.456,4.456,0,0,0,2.085,2.6L2.737,19.253A15.22,15.22,0,0,1,1.406,18.491Zm65.187,0c-.36.234-.761.465-1.263.727l-2.6,5.581a4.477,4.477,0,0,0,2.039-2.57,16.964,16.964,0,0,1,1.823-3.738Zm-33.17-.79h0l-.086.1-.02,6.115,3-1.517-2.9-4.7Zm3.387-3.822h0l-3.258,3.676,2.936,4.757,1.584-.8A.282.282,0,0,1,38.1,21.4a8.415,8.415,0,0,0,.755-4.095,2.967,2.967,0,0,1-.771.725.269.269,0,0,1-.142.04.283.283,0,0,1-.171-.058.278.278,0,0,1-.093-.3,10.727,10.727,0,0,0,.278-4.78,3.707,3.707,0,0,1-.874.923.266.266,0,0,1-.16.053A.284.284,0,0,1,36.811,13.878ZM29.142,17.3h0A8.406,8.406,0,0,0,29.9,21.4l3.255-3.669,0-.465-2.072-3.356a.274.274,0,0,1-.167-.056,3.7,3.7,0,0,1-.875-.923,10.741,10.741,0,0,0,.279,4.779.276.276,0,0,1-.264.36.274.274,0,0,1-.143-.04,2.988,2.988,0,0,1-.77-.724ZM33.38,4.661h0L33.34,17.209l.111.18,3.226-3.641a.277.277,0,0,1-.015-.214,8.54,8.54,0,0,0,.165-3.846,1.873,1.873,0,0,1-.672.772l-.065.036a.272.272,0,0,1-.125.03.276.276,0,0,1-.25-.4l0-.009ZM31.173,9.689a8.413,8.413,0,0,0,.166,3.847.277.277,0,0,1-.082.3l1.9,3.073L33.193,4.7c-.2.511-.428,1.01-.664,1.485a5.072,5.072,0,0,0-.239,3.959.277.277,0,0,1-.379.356c-.022-.012-.044-.023-.066-.037A1.863,1.863,0,0,1,31.173,9.689ZM34.028,1.93h0A16.019,16.019,0,0,1,33.383,4.2l2.428,5.672a4.786,4.786,0,0,0-.337-3.681A18.255,18.255,0,0,1,34.028,1.93Z" fill="#027850"/></g><path d="M.5,1a.5.5,0,0,0,0-1,.5.5,0,0,0,0,1" transform="translate(36 18)" fill="#027850"/><path d="M.5,1a.5.5,0,0,0,0-1,.5.5,0,0,0,0,1" transform="translate(35 13)" fill="#027850"/><path d="M.5,1a.5.5,0,0,0,0-1,.5.5,0,0,0,0,1" transform="translate(32 25)" fill="#027850"/><path d="M.5,1a.5.5,0,0,0,0-1,.5.5,0,0,0,0,1" transform="translate(36 23)" fill="#027850"/><path d="M.5,1a.5.5,0,0,0,0-1,.5.5,0,0,0,0,1" transform="translate(32 18)" fill="#027850"/><path d="M.5,1a.5.5,0,0,0,0-1,.5.5,0,0,0,0,1" transform="translate(37 27)" fill="#027850"/><path d="M.5,1a.5.5,0,0,0,0-1,.5.5,0,0,0,0,1" transform="translate(37 33)" fill="#027850"/><path d="M.5,1a.5.5,0,0,0,0-1,.5.5,0,0,0,0,1" transform="translate(36 35)" fill="#027850"/><path d="M.5,1a.5.5,0,0,0,0-1,.5.5,0,0,0,0,1" transform="translate(35 25)" fill="#027850"/><path d="M.5,1a.5.5,0,0,0,0-1,.5.5,0,0,0,0,1" transform="translate(36 11)" fill="#027850"/><path d="M.5,1a.5.5,0,0,0,0-1,.5.5,0,0,0,0,1" transform="translate(35 8)" fill="#027850"/><path d="M.5,1a.5.5,0,0,0,0-1,.5.5,0,0,0,0,1" transform="translate(37 22)" fill="#027850"/><path d="M.5,1a.5.5,0,0,0,0-1,.5.5,0,0,0,0,1" transform="translate(32 28)" fill="#027850"/><path d="M.5,1a.5.5,0,0,0,0-1,.5.5,0,0,0,0,1" transform="translate(29 31)" fill="#027850"/><path d="M.5,1a.5.5,0,0,0,0-1,.5.5,0,0,0,0,1" transform="translate(38 31)" fill="#027850"/><path d="M.5,1a.5.5,0,0,0,0-1,.5.5,0,0,0,0,1" transform="translate(29 35)" fill="#027850"/><path d="M.5,1a.5.5,0,0,0,0-1,.5.5,0,0,0,0,1" transform="translate(37 35)" fill="#027850"/><path d="M.5,1a.5.5,0,0,0,0-1,.5.5,0,0,0,0,1" transform="translate(33 39)" fill="#027850"/><path d="M.05.1a.05.05,0,0,0,0-.1.05.05,0,0,0,0,.1" transform="translate(36.95 37.95)" fill="#027850"/><path d="M.05.1a.05.05,0,0,0,0-.1.05.05,0,0,0,0,.1" transform="translate(35.95 38.95)" fill="#027850"/><path d="M.05.1a.05.05,0,0,0,0-.1.05.05,0,0,0,0,.1" transform="translate(34.95 37.95)" fill="#027850"/><path d="M.05.1a.05.05,0,0,0,0-.1.05.05,0,0,0,0,.1" transform="translate(35.95 33.95)" fill="#027850"/><path d="M.05.1a.05.05,0,0,0,0-.1.05.05,0,0,0,0,.1" transform="translate(37.95 32.95)" fill="#027850"/><path d="M.05.1a.05.05,0,0,0,0-.1.05.05,0,0,0,0,.1" transform="translate(37.95 30.95)" fill="#027850"/><path d="M.05.1a.05.05,0,0,0,0-.1.05.05,0,0,0,0,.1" transform="translate(35.95 27.95)" fill="#027850"/><path d="M.05.1a.05.05,0,0,0,0-.1.05.05,0,0,0,0,.1" transform="translate(36.95 25.95)" fill="#027850"/><path d="M.05.1a.05.05,0,0,0,0-.1.05.05,0,0,0,0,.1" transform="translate(36.95 24.95)" fill="#027850"/><path d="M.5,1a.5.5,0,0,0,0-1,.5.5,0,0,0,0,1" transform="translate(37 20)" fill="#027850"/><path d="M.05.1a.05.05,0,0,0,0-.1.05.05,0,0,0,0,.1" transform="translate(35.95 19.95)" fill="#027850"/><path d="M.05.1a.05.05,0,0,0,0-.1.05.05,0,0,0,0,.1" transform="translate(36.95 16.95)" fill="#027850"/><path d="M.05.1a.05.05,0,0,0,0-.1.05.05,0,0,0,0,.1" transform="translate(36.95 15.95)" fill="#027850"/><path d="M.05.1a.05.05,0,0,0,0-.1.05.05,0,0,0,0,.1" transform="translate(36.95 18.95)" fill="#027850"/><path d="M.05.1a.05.05,0,0,0,0-.1.05.05,0,0,0,0,.1" transform="translate(37.95 18.95)" fill="#027850"/><path d="M.05.1a.05.05,0,0,0,0-.1.05.05,0,0,0,0,.1" transform="translate(34.95 18.95)" fill="#027850"/><path d="M.05.1a.05.05,0,0,0,0-.1.05.05,0,0,0,0,.1" transform="translate(34.95 10.95)" fill="#027850"/><path d="M.05.1a.05.05,0,0,0,0-.1.05.05,0,0,0,0,.1" transform="translate(35.95 12.95)" fill="#027850"/><path d="M.05.1a.05.05,0,0,0,0-.1.05.05,0,0,0,0,.1" transform="translate(34.95 15.95)" fill="#027850"/><path d="M.05.1a.05.05,0,0,0,0-.1.05.05,0,0,0,0,.1" transform="translate(35.95 14.95)" fill="#027850"/><path d="M.05.1a.05.05,0,0,0,0-.1.05.05,0,0,0,0,.1" transform="translate(34.95 5.95)" fill="#027850"/><path d="M.05.1a.05.05,0,0,0,0-.1.05.05,0,0,0,0,.1" transform="translate(35.95 8.95)" fill="#027850"/><path d="M.05.1a.05.05,0,0,0,0-.1.05.05,0,0,0,0,.1" transform="translate(37.95 23.95)" fill="#027850"/><path d="M.05.1a.05.05,0,0,0,0-.1.05.05,0,0,0,0,.1" transform="translate(37.95 24.95)" fill="#027850"/><path d="M.05.1a.05.05,0,0,0,0-.1.05.05,0,0,0,0,.1" transform="translate(34.95 26.95)" fill="#027850"/><path d="M.05.1a.05.05,0,0,0,0-.1.05.05,0,0,0,0,.1" transform="translate(35.95 26.95)" fill="#027850"/><path d="M.05.1a.05.05,0,0,0,0-.1.05.05,0,0,0,0,.1" transform="translate(38.95 27.95)" fill="#027850"/><path d="M.05.1a.05.05,0,0,0,0-.1.05.05,0,0,0,0,.1" transform="translate(36.95 29.95)" fill="#027850"/><path d="M.05.1a.05.05,0,0,0,0-.1.05.05,0,0,0,0,.1" transform="translate(34.95 30.95)" fill="#027850"/><path d="M.05.1a.05.05,0,0,0,0-.1.05.05,0,0,0,0,.1" transform="translate(35.95 30.95)" fill="#027850"/><path d="M.05.1a.05.05,0,0,0,0-.1.05.05,0,0,0,0,.1" transform="translate(34.95 32.95)" fill="#027850"/><path d="M.05.1a.05.05,0,0,0,0-.1.05.05,0,0,0,0,.1" transform="translate(35.95 31.95)" fill="#027850"/><path d="M.05.1a.05.05,0,0,0,0-.1.05.05,0,0,0,0,.1" transform="translate(34.95 33.95)" fill="#027850"/><path d="M.05.1a.05.05,0,0,0,0-.1.05.05,0,0,0,0,.1" transform="translate(35.95 32.95)" fill="#027850"/><path d="M.05.1a.05.05,0,0,0,0-.1.05.05,0,0,0,0,.1" transform="translate(37.95 34.95)" fill="#027850"/><path d="M.05.1a.05.05,0,0,0,0-.1.05.05,0,0,0,0,.1" transform="translate(35.95 37.95)" fill="#027850"/><path d="M.05.1a.05.05,0,0,0,0-.1.05.05,0,0,0,0,.1" transform="translate(37.95 35.95)" fill="#027850"/><path d="M.05.1a.05.05,0,0,0,0-.1.05.05,0,0,0,0,.1" transform="translate(37.95 37.95)" fill="#027850"/><path d="M.5,1a.5.5,0,0,0,0-1,.5.5,0,0,0,0,1" transform="translate(35 40)" fill="#027850"/><path d="M.5,1a.5.5,0,0,0,0-1,.5.5,0,0,0,0,1" transform="translate(36 41)" fill="#027850"/><path d="M.5,1a.5.5,0,0,0,0-1,.5.5,0,0,0,0,1" transform="translate(35 42)" fill="#027850"/><path d="M.05.1a.05.05,0,0,0,0-.1.05.05,0,0,0,0,.1" transform="translate(34.95 45.95)" fill="#027850"/><path d="M.05.1a.05.05,0,0,0,0-.1.05.05,0,0,0,0,.1" transform="translate(35.95 42.95)" fill="#027850"/><path d="M.05.1a.05.05,0,0,0,0-.1.05.05,0,0,0,0,.1" transform="translate(36.95 41.95)" fill="#027850"/><path d="M.05.1a.05.05,0,0,0,0-.1.05.05,0,0,0,0,.1" transform="translate(34.95 42.95)" fill="#027850"/><path d="M.05.1a.05.05,0,0,0,0-.1.05.05,0,0,0,0,.1" transform="translate(34.95 46.95)" fill="#027850"/><path d="M.05.1a.05.05,0,0,0,0-.1.05.05,0,0,0,0,.1" transform="translate(32.95 42.95)" fill="#027850"/><path d="M0,.457V.543C0,.606,0,.664,0,.719S.01.825.015.866A.492.492,0,0,0,.031.96C.037.989.043,1,.05,1L.063.984A.537.537,0,0,0,.085.866L.093.773C.1.7.1.625.1.543V.457C.1.394.1.336.1.281S.09.176.085.134A.484.484,0,0,0,.069.04C.063.011.057,0,.05,0L.037.017A.53.53,0,0,0,.015.134L.007.226C0,.3,0,.374,0,.457" transform="translate(32.95 45)" fill="#027850"/><path d="M.5,1a.5.5,0,0,0,0-1,.5.5,0,0,0,0,1" transform="translate(58 31)" fill="#027850"/><path d="M.5,1a.5.5,0,0,0,0-1,.5.5,0,0,0,0,1" transform="translate(60 26)" fill="#027850"/><path d="M.5,1a.5.5,0,0,0,0-1,.5.5,0,0,0,0,1" transform="translate(51 33)" fill="#027850"/><path d="M.5,1a.5.5,0,0,0,0-1,.5.5,0,0,0,0,1" transform="translate(54 34)" fill="#027850"/><path d="M.5,1a.5.5,0,0,0,0-1,.5.5,0,0,0,0,1" transform="translate(55 28)" fill="#027850"/><path d="M.5,1a.5.5,0,0,0,0-1,.5.5,0,0,0,0,1" transform="translate(52 39)" fill="#027850"/><path d="M.5,1a.5.5,0,0,0,0-1,.5.5,0,0,0,0,1" transform="translate(48 41)" fill="#027850"/><path d="M.5,1a.5.5,0,0,0,0-1,.5.5,0,0,0,0,1" transform="translate(45 42)" fill="#027850"/><path d="M.5,1a.5.5,0,0,0,0-1,.5.5,0,0,0,0,1" transform="translate(52 35)" fill="#027850"/><path d="M.5,1a.5.5,0,0,0,0-1,.5.5,0,0,0,0,1" transform="translate(61 26)" fill="#027850"/><path d="M.5,1a.5.5,0,0,0,0-1,.5.5,0,0,0,0,1" transform="translate(63 23)" fill="#027850"/><path d="M.5,1a.5.5,0,0,0,0-1,.5.5,0,0,0,0,1" transform="translate(55 34)" fill="#027850"/><path d="M.5,1a.5.5,0,0,0,0-1,.5.5,0,0,0,0,1" transform="translate(48 35)" fill="#027850"/><path d="M.5,1a.5.5,0,0,0,0-1,.5.5,0,0,0,0,1" transform="translate(44 35)" fill="#027850"/><path d="M.5,1a.5.5,0,0,0,0-1,.5.5,0,0,0,0,1" transform="translate(50 41)" fill="#027850"/><path d="M.5,1a.5.5,0,0,0,0-1,.5.5,0,0,0,0,1" transform="translate(42 38)" fill="#027850"/><path d="M.5,1a.5.5,0,0,0,0-1,.5.5,0,0,0,0,1" transform="translate(47 43)" fill="#027850"/><path d="M.5,1a.5.5,0,0,0,0-1,.5.5,0,0,0,0,1" transform="translate(43 43)" fill="#027850"/><path d="M.05.1a.05.05,0,0,0,0-.1.05.05,0,0,0,0,.1" transform="translate(44.95 44.95)" fill="#027850"/><path d="M.05.1a.05.05,0,0,0,0-.1.05.05,0,0,0,0,.1" transform="translate(43.95 44.95)" fill="#027850"/><path d="M.05.1a.05.05,0,0,0,0-.1.05.05,0,0,0,0,.1" transform="translate(43.95 42.95)" fill="#027850"/><path d="M.05.1a.05.05,0,0,0,0-.1.05.05,0,0,0,0,.1" transform="translate(46.95 41.95)" fill="#027850"/><path d="M.05.1a.05.05,0,0,0,0-.1.05.05,0,0,0,0,.1" transform="translate(49.95 41.95)" fill="#027850"/><path d="M.05.1a.05.05,0,0,0,0-.1.05.05,0,0,0,0,.1" transform="translate(50.95 39.95)" fill="#027850"/><path d="M.05.1a.05.05,0,0,0,0-.1.05.05,0,0,0,0,.1" transform="translate(50.95 37.95)" fill="#027850"/><path d="M.05.1a.05.05,0,0,0,0-.1.05.05,0,0,0,0,.1" transform="translate(52.95 37.95)" fill="#027850"/><path d="M.05.1a.05.05,0,0,0,0-.1.05.05,0,0,0,0,.1" transform="translate(53.95 34.95)" fill="#027850"/><path d="M.5,1a.5.5,0,0,0,0-1,.5.5,0,0,0,0,1" transform="translate(57 33)" fill="#027850"/><path d="M.05.1a.05.05,0,0,0,0-.1.05.05,0,0,0,0,.1" transform="translate(55.95 31.95)" fill="#027850"/><path d="M.05.1a.05.05,0,0,0,0-.1.05.05,0,0,0,0,.1" transform="translate(58.95 30.95)" fill="#027850"/><path d="M.05.1a.05.05,0,0,0,0-.1.05.05,0,0,0,0,.1" transform="translate(59.95 29.95)" fill="#027850"/><path d="M.05.1a.05.05,0,0,0,0-.1.05.05,0,0,0,0,.1" transform="translate(57.95 31.95)" fill="#027850"/><path d="M.05.1a.05.05,0,0,0,0-.1.05.05,0,0,0,0,.1" transform="translate(58.95 32.95)" fill="#027850"/><path d="M.05.1a.05.05,0,0,0,0-.1.05.05,0,0,0,0,.1" transform="translate(55.95 30.95)" fill="#027850"/><path d="M.05.1a.05.05,0,0,0,0-.1.05.05,0,0,0,0,.1" transform="translate(60.95 24.95)" fill="#027850"/><path d="M.05.1a.05.05,0,0,0,0-.1.05.05,0,0,0,0,.1" transform="translate(60.95 26.95)" fill="#027850"/><path d="M.05.1a.05.05,0,0,0,0-.1.05.05,0,0,0,0,.1" transform="translate(58.95 27.95)" fill="#027850"/><path d="M.05.1a.05.05,0,0,0,0-.1.05.05,0,0,0,0,.1" transform="translate(59.95 27.95)" fill="#027850"/><path d="M.05.1a.05.05,0,0,0,0-.1.05.05,0,0,0,0,.1" transform="translate(64.95 20.95)" fill="#027850"/><path d="M.05.1a.05.05,0,0,0,0-.1.05.05,0,0,0,0,.1" transform="translate(62.95 24.95)" fill="#027850"/><path d="M.05.1a.05.05,0,0,0,0-.1.05.05,0,0,0,0,.1" transform="translate(54.95 35.95)" fill="#027850"/><path d="M.05.1a.05.05,0,0,0,0-.1.05.05,0,0,0,0,.1" transform="translate(54.95 37.95)" fill="#027850"/><path d="M.05.1a.05.05,0,0,0,0-.1.05.05,0,0,0,0,.1" transform="translate(50.95 34.95)" fill="#027850"/><path d="M.05.1a.05.05,0,0,0,0-.1.05.05,0,0,0,0,.1" transform="translate(51.95 35.95)" fill="#027850"/><path d="M.05.1a.05.05,0,0,0,0-.1.05.05,0,0,0,0,.1" transform="translate(52.95 38.95)" fill="#027850"/><path d="M.05.1a.05.05,0,0,0,0-.1.05.05,0,0,0,0,.1" transform="translate(50.95 38.95)" fill="#027850"/><path d="M.05.1a.05.05,0,0,0,0-.1.05.05,0,0,0,0,.1" transform="translate(47.95 38.95)" fill="#027850"/><path d="M.05.1a.05.05,0,0,0,0-.1.05.05,0,0,0,0,.1" transform="translate(49.95 39.95)" fill="#027850"/><path d="M.05.1a.05.05,0,0,0,0-.1.05.05,0,0,0,0,.1" transform="translate(46.95 39.95)" fill="#027850"/><path d="M.05.1a.05.05,0,0,0,0-.1.05.05,0,0,0,0,.1" transform="translate(47.95 39.95)" fill="#027850"/><path d="M.05.1a.05.05,0,0,0,0-.1.05.05,0,0,0,0,.1" transform="translate(45.95 40.95)" fill="#027850"/><path d="M.05.1a.05.05,0,0,0,0-.1.05.05,0,0,0,0,.1" transform="translate(46.95 40.95)" fill="#027850"/><path d="M.05.1a.05.05,0,0,0,0-.1.05.05,0,0,0,0,.1" transform="translate(46.95 42.95)" fill="#027850"/><path d="M.05.1a.05.05,0,0,0,0-.1.05.05,0,0,0,0,.1" transform="translate(44.95 42.95)" fill="#027850"/><path d="M.05.1a.05.05,0,0,0,0-.1.05.05,0,0,0,0,.1" transform="translate(46.95 44.95)" fill="#027850"/><path d="M.05.1a.05.05,0,0,0,0-.1.05.05,0,0,0,0,.1" transform="translate(45.95 45.95)" fill="#027850"/><path d="M.5,1a.5.5,0,0,0,0-1,.5.5,0,0,0,0,1" transform="translate(42 45)" fill="#027850"/><path d="M.5,1a.5.5,0,0,0,0-1,.5.5,0,0,0,0,1" transform="translate(42 47)" fill="#027850"/><path d="M.5,1a.5.5,0,0,0,0-1,.5.5,0,0,0,0,1" transform="translate(40 46)" fill="#027850"/><path d="M.05.1a.05.05,0,0,0,0-.1.05.05,0,0,0,0,.1" transform="translate(38.95 47.95)" fill="#027850"/><path d="M.05.1a.05.05,0,0,0,0-.1.05.05,0,0,0,0,.1" transform="translate(39.95 47.95)" fill="#027850"/><path d="M.05.1a.05.05,0,0,0,0-.1.05.05,0,0,0,0,.1" transform="translate(38.95 46.95)" fill="#027850"/><path d="M.05.1a.05.05,0,0,0,0-.1.05.05,0,0,0,0,.1" transform="translate(37.95 48.95)" fill="#027850"/><path d="M.05.1a.05.05,0,0,0,0-.1.05.05,0,0,0,0,.1" transform="translate(37.95 45.95)" fill="#027850"/><path d="M.2.138.138.2a.356.356,0,0,0-.1.151A.357.357,0,0,0,0,.529a.358.358,0,0,0,.04.181.351.351,0,0,0,.1.151l.1.074A.469.469,0,0,0,.471,1L.6.983A.468.468,0,0,0,.8.862L.862.8a.352.352,0,0,0,.1-.151A.358.358,0,0,0,1,.47.357.357,0,0,0,.959.289a.357.357,0,0,0-.1-.151L.767.064A.464.464,0,0,0,.529,0L.4.017A.468.468,0,0,0,.2.138" transform="translate(37 47)" fill="#027850"/><path d="M.5,1a.5.5,0,0,0,0-1,.5.5,0,0,0,0,1" transform="translate(9 31)" fill="#027850"/><path d="M.5,1a.5.5,0,0,0,0-1,.5.5,0,0,0,0,1" transform="translate(7 27)" fill="#027850"/><path d="M.5,1a.5.5,0,0,0,0-1,.5.5,0,0,0,0,1" transform="translate(16 33)" fill="#027850"/><path d="M.5,1a.5.5,0,0,0,0-1,.5.5,0,0,0,0,1" transform="translate(13 34)" fill="#027850"/><path d="M.5,1a.5.5,0,0,0,0-1,.5.5,0,0,0,0,1" transform="translate(12 28)" fill="#027850"/><path d="M.5,1a.5.5,0,0,0,0-1,.5.5,0,0,0,0,1" transform="translate(15 39)" fill="#027850"/><path d="M.5,1a.5.5,0,0,0,0-1,.5.5,0,0,0,0,1" transform="translate(19 42)" fill="#027850"/><path d="M.5,1a.5.5,0,0,0,0-1,.5.5,0,0,0,0,1" transform="translate(22 43)" fill="#027850"/><path d="M.5,1a.5.5,0,0,0,0-1,.5.5,0,0,0,0,1" transform="translate(15 35)" fill="#027850"/><path d="M.5,1a.5.5,0,0,0,0-1,.5.5,0,0,0,0,1" transform="translate(5 26)" fill="#027850"/><path d="M.5,1a.5.5,0,0,0,0-1,.5.5,0,0,0,0,1" transform="translate(4 24)" fill="#027850"/><path d="M.5,1a.5.5,0,0,0,0-1,.5.5,0,0,0,0,1" transform="translate(10 34)" fill="#027850"/><path d="M.5,1a.5.5,0,0,0,0-1,.5.5,0,0,0,0,1" transform="translate(19 35)" fill="#027850"/><path d="M.5,1a.5.5,0,0,0,0-1,.5.5,0,0,0,0,1" transform="translate(23 35)" fill="#027850"/><path d="M.5,1a.5.5,0,0,0,0-1,.5.5,0,0,0,0,1" transform="translate(17 41)" fill="#027850"/><path d="M.5,1a.5.5,0,0,0,0-1,.5.5,0,0,0,0,1" transform="translate(25 39)" fill="#027850"/><path d="M.5,1a.5.5,0,0,0,0-1,.5.5,0,0,0,0,1" transform="translate(20 43)" fill="#027850"/><path d="M.5,1a.5.5,0,0,0,0-1,.5.5,0,0,0,0,1" transform="translate(24 43)" fill="#027850"/><path d="M.05.1a.05.05,0,0,0,0-.1.05.05,0,0,0,0,.1" transform="translate(21.95 44.95)" fill="#027850"/><path d="M.05.1a.05.05,0,0,0,0-.1.05.05,0,0,0,0,.1" transform="translate(23.95 44.95)" fill="#027850"/><path d="M.05.1a.05.05,0,0,0,0-.1.05.05,0,0,0,0,.1" transform="translate(22.95 42.95)" fill="#027850"/><path d="M.05.1a.05.05,0,0,0,0-.1.05.05,0,0,0,0,.1" transform="translate(20.95 41.95)" fill="#027850"/><path d="M.05.1a.05.05,0,0,0,0-.1.05.05,0,0,0,0,.1" transform="translate(17.95 41.95)" fill="#027850"/><path d="M.05.1a.05.05,0,0,0,0-.1.05.05,0,0,0,0,.1" transform="translate(15.95 39.95)" fill="#027850"/><path d="M.05.1a.05.05,0,0,0,0-.1.05.05,0,0,0,0,.1" transform="translate(16.95 37.95)" fill="#027850"/><path d="M.05.1a.05.05,0,0,0,0-.1.05.05,0,0,0,0,.1" transform="translate(14.95 37.95)" fill="#027850"/><path d="M.05.1a.05.05,0,0,0,0-.1.05.05,0,0,0,0,.1" transform="translate(14.95 35.95)" fill="#027850"/><path d="M.5,1a.5.5,0,0,0,0-1,.5.5,0,0,0,0,1" transform="translate(10 33)" fill="#027850"/><path d="M.05.1a.05.05,0,0,0,0-.1.05.05,0,0,0,0,.1" transform="translate(11.95 32.95)" fill="#027850"/><path d="M.05.1a.05.05,0,0,0,0-.1.05.05,0,0,0,0,.1" transform="translate(7.95 30.95)" fill="#027850"/><path d="M.05.1a.05.05,0,0,0,0-.1.05.05,0,0,0,0,.1" transform="translate(6.95 30.95)" fill="#027850"/><path d="M.05.1a.05.05,0,0,0,0-.1.05.05,0,0,0,0,.1" transform="translate(9.95 32.95)" fill="#027850"/><path d="M.05.1a.05.05,0,0,0,0-.1.05.05,0,0,0,0,.1" transform="translate(8.95 32.95)" fill="#027850"/><path d="M.05.1a.05.05,0,0,0,0-.1.05.05,0,0,0,0,.1" transform="translate(9.95 31.95)" fill="#027850"/><path d="M.05.1a.05.05,0,0,0,0-.1.05.05,0,0,0,0,.1" transform="translate(6.95 25.95)" fill="#027850"/><path d="M.05.1a.05.05,0,0,0,0-.1.05.05,0,0,0,0,.1" transform="translate(6.95 27.95)" fill="#027850"/><path d="M.05.1a.05.05,0,0,0,0-.1.05.05,0,0,0,0,.1" transform="translate(7.95 27.95)" fill="#027850"/><path d="M.05.1a.05.05,0,0,0,0-.1.05.05,0,0,0,0,.1" transform="translate(6.95 27.95)" fill="#027850"/><path d="M.05.1a.05.05,0,0,0,0-.1.05.05,0,0,0,0,.1" transform="translate(2.95 22.95)" fill="#027850"/><path d="M.05.1a.05.05,0,0,0,0-.1.05.05,0,0,0,0,.1" transform="translate(4.95 24.95)" fill="#027850"/><path d="M.05.1a.05.05,0,0,0,0-.1.05.05,0,0,0,0,.1" transform="translate(11.95 35.95)" fill="#027850"/><path d="M.05.1a.05.05,0,0,0,0-.1.05.05,0,0,0,0,.1" transform="translate(12.95 37.95)" fill="#027850"/><path d="M.05.1a.05.05,0,0,0,0-.1.05.05,0,0,0,0,.1" transform="translate(16.95 35.95)" fill="#027850"/><path d="M.05.1a.05.05,0,0,0,0-.1.05.05,0,0,0,0,.1" transform="translate(15.95 37.95)" fill="#027850"/><path d="M.05.1a.05.05,0,0,0,0-.1.05.05,0,0,0,0,.1" transform="translate(14.95 39.95)" fill="#027850"/><path d="M.05.1a.05.05,0,0,0,0-.1.05.05,0,0,0,0,.1" transform="translate(16.95 39.95)" fill="#027850"/><path d="M.05.1a.05.05,0,0,0,0-.1.05.05,0,0,0,0,.1" transform="translate(19.95 38.95)" fill="#027850"/><path d="M.05.1a.05.05,0,0,0,0-.1.05.05,0,0,0,0,.1" transform="translate(17.95 39.95)" fill="#027850"/><path d="M.05.1a.05.05,0,0,0,0-.1.05.05,0,0,0,0,.1" transform="translate(20.95 39.95)" fill="#027850"/><path d="M.05.1a.05.05,0,0,0,0-.1.05.05,0,0,0,0,.1" transform="translate(19.95 39.95)" fill="#027850"/><path d="M.05.1a.05.05,0,0,0,0-.1.05.05,0,0,0,0,.1" transform="translate(21.95 41.95)" fill="#027850"/><path d="M.05.1a.05.05,0,0,0,0-.1.05.05,0,0,0,0,.1" transform="translate(19.95 40.95)" fill="#027850"/><path d="M.05.1a.05.05,0,0,0,0-.1.05.05,0,0,0,0,.1" transform="translate(19.95 42.95)" fill="#027850"/><path d="M.05.1a.05.05,0,0,0,0-.1.05.05,0,0,0,0,.1" transform="translate(22.95 44.95)" fill="#027850"/><path d="M.05.1a.05.05,0,0,0,0-.1.05.05,0,0,0,0,.1" transform="translate(20.95 45.95)" fill="#027850"/><path d="M.05.1a.05.05,0,0,0,0-.1.05.05,0,0,0,0,.1" transform="translate(21.95 45.95)" fill="#027850"/><path d="M.5,1a.5.5,0,0,0,0-1,.5.5,0,0,0,0,1" transform="translate(25 46)" fill="#027850"/><path d="M.5,1a.5.5,0,0,0,0-1,.5.5,0,0,0,0,1" transform="translate(25 47)" fill="#027850"/><path d="M.5,1a.5.5,0,0,0,0-1,.5.5,0,0,0,0,1" transform="translate(27 46)" fill="#027850"/><path d="M.05.1a.05.05,0,0,0,0-.1.05.05,0,0,0,0,.1" transform="translate(28.95 47.95)" fill="#027850"/><path d="M.05.1a.05.05,0,0,0,0-.1.05.05,0,0,0,0,.1" transform="translate(26.95 47.95)" fill="#027850"/><path d="M.05.1a.05.05,0,0,0,0-.1.05.05,0,0,0,0,.1" transform="translate(27.95 47.95)" fill="#027850"/><path d="M.05.1a.05.05,0,0,0,0-.1.05.05,0,0,0,0,.1" transform="translate(29.95 48.95)" fill="#027850"/><path d="M.05.1a.05.05,0,0,0,0-.1.05.05,0,0,0,0,.1" transform="translate(29.95 46.95)" fill="#027850"/><path d="M.138.8.2.862a.352.352,0,0,0,.151.1A.355.355,0,0,0,.53,1,.358.358,0,0,0,.711.959a.347.347,0,0,0,.151-.1L.936.767A.468.468,0,0,0,1,.53C.994.488.988.447.983.405A.467.467,0,0,0,.862.2L.8.138a.352.352,0,0,0-.151-.1A.358.358,0,0,0,.47,0a.357.357,0,0,0-.181.04.357.357,0,0,0-.151.1L.064.233A.468.468,0,0,0,0,.47L.017.595A.467.467,0,0,0,.138.8" transform="translate(30 48)" fill="#027850"/><path d="M.05.1a.05.05,0,0,0,0-.1.05.05,0,0,0,0,.1" transform="translate(54.95 53.95)" fill="#027850"/><path d="M.05.1a.05.05,0,0,0,0-.1.05.05,0,0,0,0,.1" transform="translate(57.95 52.95)" fill="#027850"/><path d="M.05.1a.05.05,0,0,0,0-.1.05.05,0,0,0,0,.1" transform="translate(50.95 50.95)" fill="#027850"/><path d="M.05.1a.05.05,0,0,0,0-.1.05.05,0,0,0,0,.1" transform="translate(51.95 53.95)" fill="#027850"/><path d="M.5,1a.5.5,0,0,0,0-1,.5.5,0,0,0,0,1" transform="translate(54 52)" fill="#027850"/><path d="M.05.1a.05.05,0,0,0,0-.1.05.05,0,0,0,0,.1" transform="translate(49.95 53.95)" fill="#027850"/><path d="M.05.1a.05.05,0,0,0,0-.1.05.05,0,0,0,0,.1" transform="translate(44.95 53.95)" fill="#027850"/><path d="M.05.1a.05.05,0,0,0,0-.1.05.05,0,0,0,0,.1" transform="translate(50.95 52.95)" fill="#027850"/><path d="M.05.1a.05.05,0,0,0,0-.1.05.05,0,0,0,0,.1" transform="translate(52.95 53.95)" fill="#027850"/><path d="M.05.1a.05.05,0,0,0,0-.1.05.05,0,0,0,0,.1" transform="translate(47.95 50.95)" fill="#027850"/><path d="M.05.1a.05.05,0,0,0,0-.1.05.05,0,0,0,0,.1" transform="translate(45.95 48.95)" fill="#027850"/><path d="M.05.1a.05.05,0,0,0,0-.1.05.05,0,0,0,0,.1" transform="translate(46.95 53.95)" fill="#027850"/><path d="M.05.1a.05.05,0,0,0,0-.1.05.05,0,0,0,0,.1" transform="translate(44.95 49.95)" fill="#027850"/><path d="M.5,1a.5.5,0,0,0,0-1,.5.5,0,0,0,0,1" transform="translate(44 49)" fill="#027850"/><path d="M.05.1a.05.05,0,0,0,0-.1.05.05,0,0,0,0,.1" transform="translate(42.95 52.95)" fill="#027850"/><path d="M.05.1a.05.05,0,0,0,0-.1.05.05,0,0,0,0,.1" transform="translate(42.95 53.95)" fill="#027850"/><path d="M.05.1a.05.05,0,0,0,0-.1.05.05,0,0,0,0,.1" transform="translate(42.95 53.95)" fill="#027850"/><path d="M.05.1a.05.05,0,0,0,0-.1.05.05,0,0,0,0,.1" transform="translate(43.95 52.95)" fill="#027850"/><path d="M.05.1a.05.05,0,0,0,0-.1.05.05,0,0,0,0,.1" transform="translate(44.95 52.95)" fill="#027850"/><path d="M.05.1a.05.05,0,0,0,0-.1.05.05,0,0,0,0,.1" transform="translate(45.95 54.95)" fill="#027850"/><path d="M.05.1a.05.05,0,0,0,0-.1.05.05,0,0,0,0,.1" transform="translate(47.95 54.95)" fill="#027850"/><path d="M.05.1a.05.05,0,0,0,0-.1.05.05,0,0,0,0,.1" transform="translate(47.95 53.95)" fill="#027850"/><path d="M.05.1a.05.05,0,0,0,0-.1.05.05,0,0,0,0,.1" transform="translate(50.95 53.95)" fill="#027850"/><path d="M.05.1a.05.05,0,0,0,0-.1.05.05,0,0,0,0,.1" transform="translate(50.95 54.95)" fill="#027850"/><path d="M.05.1a.05.05,0,0,0,0-.1.05.05,0,0,0,0,.1" transform="translate(52.95 53.95)" fill="#027850"/><path d="M.05.1a.05.05,0,0,0,0-.1.05.05,0,0,0,0,.1" transform="translate(53.95 53.95)" fill="#027850"/><path d="M.05.1a.05.05,0,0,0,0-.1.05.05,0,0,0,0,.1" transform="translate(54.95 53.95)" fill="#027850"/><path d="M.05.1a.05.05,0,0,0,0-.1.05.05,0,0,0,0,.1" transform="translate(55.95 53.95)" fill="#027850"/><path d="M.05.1a.05.05,0,0,0,0-.1.05.05,0,0,0,0,.1" transform="translate(53.95 53.95)" fill="#027850"/><path d="M.05.1a.05.05,0,0,0,0-.1.05.05,0,0,0,0,.1" transform="translate(52.95 53.95)" fill="#027850"/><path d="M.05.1a.05.05,0,0,0,0-.1.05.05,0,0,0,0,.1" transform="translate(53.95 52.95)" fill="#027850"/><path d="M.05.1a.05.05,0,0,0,0-.1.05.05,0,0,0,0,.1" transform="translate(58.95 52.95)" fill="#027850"/><path d="M.05.1a.05.05,0,0,0,0-.1.05.05,0,0,0,0,.1" transform="translate(55.95 52.95)" fill="#027850"/><path d="M.05.1a.05.05,0,0,0,0-.1.05.05,0,0,0,0,.1" transform="translate(55.95 52.95)" fill="#027850"/><path d="M.05.1a.05.05,0,0,0,0-.1.05.05,0,0,0,0,.1" transform="translate(51.95 54.95)" fill="#027850"/><path d="M.05.1a.05.05,0,0,0,0-.1.05.05,0,0,0,0,.1" transform="translate(49.95 52.95)" fill="#027850"/><path d="M.05.1a.05.05,0,0,0,0-.1.05.05,0,0,0,0,.1" transform="translate(49.95 52.95)" fill="#027850"/><path d="M.05.1a.05.05,0,0,0,0-.1.05.05,0,0,0,0,.1" transform="translate(47.95 53.95)" fill="#027850"/><path d="M.05.1a.05.05,0,0,0,0-.1.05.05,0,0,0,0,.1" transform="translate(47.95 52.95)" fill="#027850"/><path d="M.05.1a.05.05,0,0,0,0-.1.05.05,0,0,0,0,.1" transform="translate(46.95 53.95)" fill="#027850"/><path d="M.05.1a.05.05,0,0,0,0-.1.05.05,0,0,0,0,.1" transform="translate(46.95 52.95)" fill="#027850"/><path d="M.05.1a.05.05,0,0,0,0-.1.05.05,0,0,0,0,.1" transform="translate(45.95 50.95)" fill="#027850"/><path d="M.05.1a.05.05,0,0,0,0-.1.05.05,0,0,0,0,.1" transform="translate(45.95 52.95)" fill="#027850"/><path d="M.05.1a.05.05,0,0,0,0-.1.05.05,0,0,0,0,.1" transform="translate(44.95 53.95)" fill="#027850"/><path d="M.05.1a.05.05,0,0,0,0-.1.05.05,0,0,0,0,.1" transform="translate(42.95 52.95)" fill="#027850"/><path d="M.05.1a.05.05,0,0,0,0-.1.05.05,0,0,0,0,.1" transform="translate(42.95 52.95)" fill="#027850"/><path d="M.05.1a.05.05,0,0,0,0-.1.05.05,0,0,0,0,.1" transform="translate(40.95 53.95)" fill="#027850"/><path d="M.05.1a.05.05,0,0,0,0-.1.05.05,0,0,0,0,.1" transform="translate(39.95 52.95)" fill="#027850"/><path d="M.05.1a.05.05,0,0,0,0-.1.05.05,0,0,0,0,.1" transform="translate(38.95 52.95)" fill="#027850"/><path d="M.05.1a.05.05,0,0,0,0-.1.05.05,0,0,0,0,.1" transform="translate(38.95 52.95)" fill="#027850"/><path d="M.05.1a.05.05,0,0,0,0-.1.05.05,0,0,0,0,.1" transform="translate(39.95 53.95)" fill="#027850"/><path d="M.05.1a.05.05,0,0,0,0-.1.05.05,0,0,0,0,.1" transform="translate(39.95 52.95)" fill="#027850"/><path d="M.05.1a.05.05,0,0,0,0-.1.05.05,0,0,0,0,.1" transform="translate(37.95 52.95)" fill="#027850"/><path d="M.05.1a.05.05,0,0,0,0-.1.05.05,0,0,0,0,.1" transform="translate(38.95 50.95)" fill="#027850"/><path d="M.053,0H.047A.033.033,0,0,0,.029,0a.035.035,0,0,0-.015.01A.038.038,0,0,0,0,.031.04.04,0,0,0,0,.05L0,.063A.051.051,0,0,0,.014.085L.023.093A.044.044,0,0,0,.047.1H.053A.033.033,0,0,0,.071.1.034.034,0,0,0,.086.085.038.038,0,0,0,.1.069.04.04,0,0,0,.1.05L.1.037A.051.051,0,0,0,.086.015L.077.007A.043.043,0,0,0,.053,0" transform="translate(37.95 50.95)" fill="#027850"/><path d="M.05.08a.03.03,0,0,0,0-.06.03.03,0,0,0,0,.06" transform="translate(39.95 59.95)" fill="#027850"/><path d="M.05.1a.05.05,0,0,0,0-.1.05.05,0,0,0,0,.1" transform="translate(38.95 57.95)" fill="#027850"/><path d="M.05.084a.034.034,0,0,0,0-.068.034.034,0,0,0,0,.068" transform="translate(36.95 56.95)" fill="#027850"/><path d="M.05.084a.034.034,0,0,0,0-.068.034.034,0,0,0,0,.068" transform="translate(37.95 55.95)" fill="#027850"/><path d="M.05.084a.034.034,0,0,0,0-.068.034.034,0,0,0,0,.068" transform="translate(37.95 55.95)" fill="#027850"/><path d="M.05.084a.034.034,0,0,0,0-.068.034.034,0,0,0,0,.068" transform="translate(36.95 54.95)" fill="#027850"/><path d="M.05.1A.047.047,0,0,0,.05,0,.047.047,0,0,0,.05.1" transform="translate(36.95 54.95)" fill="#027850"/><path d="M.05.1A.047.047,0,0,0,.05,0,.047.047,0,0,0,.05.1" transform="translate(36.95 53.95)" fill="#027850"/><path d="M.05.084a.034.034,0,0,0,0-.068.034.034,0,0,0,0,.068" transform="translate(36.95 54.95)" fill="#027850"/><path d="M.05.084a.034.034,0,0,0,0-.068.034.034,0,0,0,0,.068" transform="translate(35.95 53.95)" fill="#027850"/><path d="M.05.076a.026.026,0,0,0,0-.051.026.026,0,0,0,0,.051" transform="translate(36.95 55.95)" fill="#027850"/><path d="M.05.076a.026.026,0,0,0,0-.051.026.026,0,0,0,0,.051" transform="translate(37.95 55.95)" fill="#027850"/><path d="M.05.076a.026.026,0,0,0,0-.051.026.026,0,0,0,0,.051" transform="translate(37.95 56.95)" fill="#027850"/><path d="M.05.076a.026.026,0,0,0,0-.051.026.026,0,0,0,0,.051" transform="translate(39.95 59.95)" fill="#027850"/><path d="M.05.076a.026.026,0,0,0,0-.051.026.026,0,0,0,0,.051" transform="translate(39.95 59.95)" fill="#027850"/><path d="M.05.071a.021.021,0,0,0,0-.043.021.021,0,0,0,0,.043" transform="translate(37.95 56.95)" fill="#027850"/><path d="M.05.071a.021.021,0,0,0,0-.043.021.021,0,0,0,0,.043" transform="translate(37.95 56.95)" fill="#027850"/><path d="M.05.071a.021.021,0,0,0,0-.043.021.021,0,0,0,0,.043" transform="translate(36.95 55.95)" fill="#027850"/><path d="M.05.071a.021.021,0,0,0,0-.043.021.021,0,0,0,0,.043" transform="translate(36.95 55.95)" fill="#027850"/><path d="M.05.08a.03.03,0,0,0,0-.06.03.03,0,0,0,0,.06" transform="translate(35.95 54.95)" fill="#027850"/><path d="M.05.076a.026.026,0,0,0,0-.051.026.026,0,0,0,0,.051" transform="translate(35.95 54.95)" fill="#027850"/><path d="M.05.076a.026.026,0,0,0,0-.051.026.026,0,0,0,0,.051" transform="translate(35.95 54.95)" fill="#027850"/><path d="M.05.076a.026.026,0,0,0,0-.051.026.026,0,0,0,0,.051" transform="translate(35.95 54.95)" fill="#027850"/><path d="M.05.08a.03.03,0,0,1,0-.06.03.03,0,0,1,0,.06" transform="translate(26.95 59.95)" fill="#027850"/><path d="M.05.1a.05.05,0,0,1,0-.1.05.05,0,0,1,0,.1" transform="translate(28.95 57.95)" fill="#027850"/><path d="M.05.084a.034.034,0,0,1,0-.068.034.034,0,0,1,0,.068" transform="translate(29.95 56.95)" fill="#027850"/><path d="M.05.084a.034.034,0,0,1,0-.068.034.034,0,0,1,0,.068" transform="translate(29.95 55.95)" fill="#027850"/><path d="M.05.084a.034.034,0,0,1,0-.068.034.034,0,0,1,0,.068" transform="translate(28.95 54.95)" fill="#027850"/><path d="M.05.084a.034.034,0,0,1,0-.068.034.034,0,0,1,0,.068" transform="translate(29.95 54.95)" fill="#027850"/><path d="M.05.1A.047.047,0,0,1,.05,0,.047.047,0,0,1,.05.1" transform="translate(30.95 54.95)" fill="#027850"/><path d="M.05.1A.047.047,0,0,1,.05,0,.047.047,0,0,1,.05.1" transform="translate(30.95 53.95)" fill="#027850"/><path d="M.05.084a.034.034,0,0,1,0-.068.034.034,0,0,1,0,.068" transform="translate(30.95 54.95)" fill="#027850"/><path d="M.05.084a.034.034,0,0,1,0-.068.034.034,0,0,1,0,.068" transform="translate(31.95 53.95)" fill="#027850"/><path d="M.05.076a.026.026,0,0,1,0-.051.026.026,0,0,1,0,.051" transform="translate(30.95 55.95)" fill="#027850"/><path d="M.05.076a.026.026,0,0,1,0-.051.026.026,0,0,1,0,.051" transform="translate(29.95 55.95)" fill="#027850"/><path d="M.05.076a.026.026,0,0,1,0-.051.026.026,0,0,1,0,.051" transform="translate(28.95 56.95)" fill="#027850"/><path d="M.05.076a.026.026,0,0,1,0-.051.026.026,0,0,1,0,.051" transform="translate(27.95 59.95)" fill="#027850"/><path d="M.05.076a.026.026,0,0,1,0-.051.026.026,0,0,1,0,.051" transform="translate(27.95 59.95)" fill="#027850"/><path d="M.05.071a.021.021,0,0,1,0-.043.021.021,0,0,1,0,.043" transform="translate(28.95 56.95)" fill="#027850"/><path d="M.05.071a.021.021,0,0,1,0-.043.021.021,0,0,1,0,.043" transform="translate(29.95 56.95)" fill="#027850"/><path d="M.05.071a.021.021,0,0,1,0-.043.021.021,0,0,1,0,.043" transform="translate(29.95 55.95)" fill="#027850"/><path d="M.05.071a.021.021,0,0,1,0-.043.021.021,0,0,1,0,.043" transform="translate(29.95 55.95)" fill="#027850"/><path d="M.05.08a.03.03,0,0,1,0-.06.03.03,0,0,1,0,.06" transform="translate(30.95 54.95)" fill="#027850"/><path d="M.05.076a.026.026,0,0,1,0-.051.026.026,0,0,1,0,.051" transform="translate(31.95 54.95)" fill="#027850"/><path d="M.05.076a.026.026,0,0,1,0-.051.026.026,0,0,1,0,.051" transform="translate(30.95 54.95)" fill="#027850"/><path d="M.05.076a.026.026,0,0,1,0-.051.026.026,0,0,1,0,.051" transform="translate(31.95 53.95)" fill="#027850"/><path d="M.05.1a.05.05,0,0,0,0-.1.05.05,0,0,0,0,.1" transform="translate(12.95 53.95)" fill="#027850"/><path d="M.05.1a.05.05,0,0,0,0-.1.05.05,0,0,0,0,.1" transform="translate(8.95 52.95)" fill="#027850"/><path d="M.05.1a.05.05,0,0,0,0-.1.05.05,0,0,0,0,.1" transform="translate(16.95 50.95)" fill="#027850"/><path d="M.05.1a.05.05,0,0,0,0-.1.05.05,0,0,0,0,.1" transform="translate(14.95 53.95)" fill="#027850"/><path d="M.5,1a.5.5,0,0,0,0-1,.5.5,0,0,0,0,1" transform="translate(13 52)" fill="#027850"/><path d="M.05.1a.05.05,0,0,0,0-.1.05.05,0,0,0,0,.1" transform="translate(17.95 54.95)" fill="#027850"/><path d="M.05.1a.05.05,0,0,0,0-.1.05.05,0,0,0,0,.1" transform="translate(22.95 53.95)" fill="#027850"/><path d="M.05.1a.05.05,0,0,0,0-.1.05.05,0,0,0,0,.1" transform="translate(16.95 52.95)" fill="#027850"/><path d="M.05.1a.05.05,0,0,0,0-.1.05.05,0,0,0,0,.1" transform="translate(19.95 50.95)" fill="#027850"/><path d="M.05.1a.05.05,0,0,0,0-.1.05.05,0,0,0,0,.1" transform="translate(20.95 48.95)" fill="#027850"/><path d="M.05.1a.05.05,0,0,0,0-.1.05.05,0,0,0,0,.1" transform="translate(21.95 49.95)" fill="#027850"/><path d="M.5,1a.5.5,0,0,0,0-1,.5.5,0,0,0,0,1" transform="translate(23 49)" fill="#027850"/><path d="M.05.1a.05.05,0,0,0,0-.1.05.05,0,0,0,0,.1" transform="translate(24.95 52.95)" fill="#027850"/><path d="M.05.1a.05.05,0,0,0,0-.1.05.05,0,0,0,0,.1" transform="translate(23.95 53.95)" fill="#027850"/><path d="M.05.1a.05.05,0,0,0,0-.1.05.05,0,0,0,0,.1" transform="translate(24.95 53.95)" fill="#027850"/><path d="M.05.1a.05.05,0,0,0,0-.1.05.05,0,0,0,0,.1" transform="translate(23.95 52.95)" fill="#027850"/><path d="M.05.1a.05.05,0,0,0,0-.1.05.05,0,0,0,0,.1" transform="translate(22.95 52.95)" fill="#027850"/><path d="M.05.1a.05.05,0,0,0,0-.1.05.05,0,0,0,0,.1" transform="translate(20.95 54.95)" fill="#027850"/><path d="M.05.1a.05.05,0,0,0,0-.1.05.05,0,0,0,0,.1" transform="translate(19.95 54.95)" fill="#027850"/><path d="M.05.1a.05.05,0,0,0,0-.1.05.05,0,0,0,0,.1" transform="translate(17.95 53.95)" fill="#027850"/><path d="M.05.1a.05.05,0,0,0,0-.1.05.05,0,0,0,0,.1" transform="translate(16.95 53.95)" fill="#027850"/><path d="M.05.1a.05.05,0,0,0,0-.1.05.05,0,0,0,0,.1" transform="translate(15.95 53.95)" fill="#027850"/><path d="M.05.1a.05.05,0,0,0,0-.1.05.05,0,0,0,0,.1" transform="translate(13.95 53.95)" fill="#027850"/><path d="M.05.1a.05.05,0,0,0,0-.1.05.05,0,0,0,0,.1" transform="translate(13.95 53.95)" fill="#027850"/><path d="M.05.1a.05.05,0,0,0,0-.1.05.05,0,0,0,0,.1" transform="translate(11.95 53.95)" fill="#027850"/><path d="M.05.1a.05.05,0,0,0,0-.1.05.05,0,0,0,0,.1" transform="translate(12.95 53.95)" fill="#027850"/><path d="M.05.1a.05.05,0,0,0,0-.1.05.05,0,0,0,0,.1" transform="translate(12.95 52.95)" fill="#027850"/><path d="M.05.1a.05.05,0,0,0,0-.1.05.05,0,0,0,0,.1" transform="translate(7.95 52.95)" fill="#027850"/><path d="M.05.1a.05.05,0,0,0,0-.1.05.05,0,0,0,0,.1" transform="translate(9.95 52.95)" fill="#027850"/><path d="M.05.1a.05.05,0,0,0,0-.1.05.05,0,0,0,0,.1" transform="translate(9.95 52.95)" fill="#027850"/><path d="M.05.1a.05.05,0,0,0,0-.1.05.05,0,0,0,0,.1" transform="translate(16.95 52.95)" fill="#027850"/><path d="M.05.1a.05.05,0,0,0,0-.1.05.05,0,0,0,0,.1" transform="translate(16.95 53.95)" fill="#027850"/><path d="M.05.1a.05.05,0,0,0,0-.1.05.05,0,0,0,0,.1" transform="translate(19.95 53.95)" fill="#027850"/><path d="M.05.1a.05.05,0,0,0,0-.1.05.05,0,0,0,0,.1" transform="translate(19.95 52.95)" fill="#027850"/><path d="M.05.1a.05.05,0,0,0,0-.1.05.05,0,0,0,0,.1" transform="translate(19.95 53.95)" fill="#027850"/><path d="M.05.1a.05.05,0,0,0,0-.1.05.05,0,0,0,0,.1" transform="translate(20.95 52.95)" fill="#027850"/><path d="M.05.1a.05.05,0,0,0,0-.1.05.05,0,0,0,0,.1" transform="translate(20.95 52.95)" fill="#027850"/><path d="M.05.1a.05.05,0,0,0,0-.1.05.05,0,0,0,0,.1" transform="translate(21.95 52.95)" fill="#027850"/><path d="M.05.1a.05.05,0,0,0,0-.1.05.05,0,0,0,0,.1" transform="translate(21.95 52.95)" fill="#027850"/><path d="M.05.1a.05.05,0,0,0,0-.1.05.05,0,0,0,0,.1" transform="translate(23.95 52.95)" fill="#027850"/><path d="M.05.1a.05.05,0,0,0,0-.1.05.05,0,0,0,0,.1" transform="translate(24.95 52.95)" fill="#027850"/><path d="M.05.1a.05.05,0,0,0,0-.1.05.05,0,0,0,0,.1" transform="translate(26.95 53.95)" fill="#027850"/><path d="M.05.1a.05.05,0,0,0,0-.1.05.05,0,0,0,0,.1" transform="translate(26.95 52.95)" fill="#027850"/><path d="M.05.1a.05.05,0,0,0,0-.1.05.05,0,0,0,0,.1" transform="translate(28.95 52.95)" fill="#027850"/><path d="M.05.1a.05.05,0,0,0,0-.1.05.05,0,0,0,0,.1" transform="translate(27.95 53.95)" fill="#027850"/><path d="M.05.1a.05.05,0,0,0,0-.1.05.05,0,0,0,0,.1" transform="translate(27.95 52.95)" fill="#027850"/><path d="M.05.1a.05.05,0,0,0,0-.1.05.05,0,0,0,0,.1" transform="translate(29.95 52.95)" fill="#027850"/><path d="M.05.1a.05.05,0,0,0,0-.1.05.05,0,0,0,0,.1" transform="translate(28.95 50.95)" fill="#027850"/><path d="M.047.1H.053A.032.032,0,0,0,.071.1.034.034,0,0,0,.086.085.038.038,0,0,0,.1.069.04.04,0,0,0,.1.05L.1.037A.052.052,0,0,0,.086.015L.077.007A.043.043,0,0,0,.053,0H.047A.033.033,0,0,0,.029,0a.034.034,0,0,0-.015.01A.038.038,0,0,0,0,.031.04.04,0,0,0,0,.05L0,.063A.051.051,0,0,0,.014.085L.023.093A.043.043,0,0,0,.047.1" transform="translate(28.95 50.95)" fill="#027850"/></svg>