<svg xmlns="http://www.w3.org/2000/svg" xmlns:xlink="http://www.w3.org/1999/xlink" width="271" height="71" viewBox="0 0 271 71"><defs><clipPath id="a"><path d="M0,0H26V29H0Z" fill="none"/></clipPath><clipPath id="b"><path d="M0,0H6V30H0Z" fill="none"/></clipPath><clipPath id="c"><path d="M0,0H20V22H0Z" fill="none"/></clipPath><clipPath id="d"><path d="M0,0H74V71H0Z" fill="none"/></clipPath></defs><g transform="translate(-200 -22)"><g transform="translate(285.469 48.619)"><g transform="translate(-0.469 2.381)"><path d="M0,0H26V29H0Z" fill="none"/><g clip-path="url(#a)"><path d="M.137,11.984A13.465,13.465,0,0,1,14.091.012c6.734.28,10.887,4.3,11.516,9.6a.15.15,0,0,1-.15.163H20.75a.144.144,0,0,1-.143-.121c-.461-2.972-2.752-5.292-7.274-5.292C7.375,4.359,5,8.884,5,14.579s2.375,10.1,8.333,10.1c4.93,0,7.43-2.985,7.738-6.71a.15.15,0,0,0-.151-.158H14.315a.145.145,0,0,1-.148-.143V13.753a.145.145,0,0,1,.148-.143H25.852a.146.146,0,0,1,.148.143v2.563C26,24.031,21.083,29,13.333,29,3.61,29-.863,21.658.137,11.984" transform="translate(0)" fill="#3fdd6e"/></g></g><path d="M.137.294H3.571a.142.142,0,0,1,.136.131l.37,3.319H4.23A5.359,5.359,0,0,1,9.384,0h1.479A.143.143,0,0,1,11,.149v4.16a.144.144,0,0,1-.137.149H9.307C5.962,4.459,4.23,6.983,4.23,11.4V21.851A.143.143,0,0,1,4.094,22H.137A.143.143,0,0,1,0,21.851V.444A.143.143,0,0,1,.137.294" transform="translate(30.531 9.381)" fill="#3fdd6e"/><path d="M10.273,22a9.8,9.8,0,0,1-7.616-3.182A11.592,11.592,0,0,1,0,11,11.822,11.822,0,0,1,2.521,3.214,9.678,9.678,0,0,1,10.189,0a9.443,9.443,0,0,1,7.29,2.977A10.821,10.821,0,0,1,20,10.341v1.832a.148.148,0,0,1-.149.146H5.122a.152.152,0,0,0-.108.046.148.148,0,0,0-.044.106c.055,3.491,2.038,5.575,5.3,5.575,2.472,0,4.151-.988,4.727-2.783a.145.145,0,0,1,.139-.1h4.387a.154.154,0,0,1,.118.055.144.144,0,0,1,.032.118,7.545,7.545,0,0,1-3.04,4.752A10.666,10.666,0,0,1,10.273,22ZM10.189,4a4.753,4.753,0,0,0-5.17,4.827.146.146,0,0,0,.04.11.154.154,0,0,0,.112.049h9.746a.154.154,0,0,0,.111-.048.145.145,0,0,0,.041-.107C14.963,5.8,13.138,4,10.189,4Z" transform="translate(42.531 9.381)" fill="#3fdd6e"/><path d="M10.273,22a9.8,9.8,0,0,1-7.616-3.182A11.592,11.592,0,0,1,0,11,11.822,11.822,0,0,1,2.521,3.214,9.678,9.678,0,0,1,10.189,0a9.443,9.443,0,0,1,7.29,2.977A10.821,10.821,0,0,1,20,10.341v1.832a.148.148,0,0,1-.149.146H5.122a.152.152,0,0,0-.108.046.148.148,0,0,0-.044.106c.055,3.491,2.038,5.575,5.3,5.575,2.472,0,4.151-.988,4.727-2.783a.145.145,0,0,1,.139-.1h4.387a.154.154,0,0,1,.118.055.144.144,0,0,1,.032.118,7.545,7.545,0,0,1-3.04,4.752A10.666,10.666,0,0,1,10.273,22ZM10.189,4a4.753,4.753,0,0,0-5.17,4.827.146.146,0,0,0,.04.11.154.154,0,0,0,.112.049h9.746a.154.154,0,0,0,.111-.048.145.145,0,0,0,.041-.107C14.963,5.8,13.138,4,10.189,4Z" transform="translate(64.531 9.381)" fill="#3fdd6e"/><path d="M.15.377H4.124a.149.149,0,0,1,.148.129l.361,2.679H4.8A7.123,7.123,0,0,1,11.164,0C16.009,0,19,2.975,19,7.878V21.851a.149.149,0,0,1-.15.149h-4.5a.149.149,0,0,1-.15-.149V9.178A4.763,4.763,0,0,0,8.213,4.53C6.092,5.154,4.8,7.118,4.8,10.057V21.851a.149.149,0,0,1-.15.149H.15A.149.149,0,0,1,0,21.851V.526A.149.149,0,0,1,.15.377" transform="translate(87.531 9.381)" fill="#3fdd6e"/><path d="M0,.407V0H4.572a.145.145,0,0,1,.142.11L8.469,15.465h.165L12.676.108A.145.145,0,0,1,12.817,0h5.407a.145.145,0,0,1,.141.108l4.042,15.357h.164L26.327.11A.145.145,0,0,1,26.469,0H31V.407L25.4,20.893a.146.146,0,0,1-.141.107H19.847a.146.146,0,0,1-.142-.108L15.665,5.535H15.5L11.295,20.893a.146.146,0,0,1-.141.107H5.744a.146.146,0,0,1-.141-.107Z" transform="translate(109.531 9.381)" fill="#3fdd6e"/><g transform="translate(142.531 0.381)"><path d="M0,0H6V30H0Z" fill="none"/><g clip-path="url(#b)"><path d="M5.2,30H.8a.146.146,0,0,1-.146-.145V9.168A.145.145,0,0,1,.8,9.024H5.2a.145.145,0,0,1,.146.144V29.856A.146.146,0,0,1,5.2,30ZM3,5.813A2.7,2.7,0,0,1,0,2.886,2.681,2.681,0,0,1,3,0,2.68,2.68,0,0,1,6,2.886,2.723,2.723,0,0,1,3,5.813Z" transform="translate(0 0)" fill="#3fdd6e"/></g></g><path d="M.137.294H3.571a.142.142,0,0,1,.136.131l.37,3.319H4.23A5.359,5.359,0,0,1,9.384,0h1.479A.143.143,0,0,1,11,.149v4.16a.144.144,0,0,1-.137.149H9.307C5.961,4.459,4.23,6.983,4.23,11.4V21.851A.143.143,0,0,1,4.094,22H.137A.143.143,0,0,1,0,21.851V.444A.143.143,0,0,1,.137.294" transform="translate(153.531 9.381)" fill="#3fdd6e"/><g transform="translate(165.531 9.381)"><path d="M0,0H20V22H0Z" fill="none"/><g clip-path="url(#c)"><path d="M10.274,22a9.8,9.8,0,0,1-7.616-3.182A11.592,11.592,0,0,1,0,11,11.821,11.821,0,0,1,2.521,3.214,9.68,9.68,0,0,1,10.19,0a9.442,9.442,0,0,1,7.29,2.977A10.82,10.82,0,0,1,20,10.341v1.832a.148.148,0,0,1-.15.146H5.121a.152.152,0,0,0-.108.046.148.148,0,0,0-.044.106c.055,3.491,2.038,5.575,5.3,5.575,2.472,0,4.151-.988,4.727-2.783a.145.145,0,0,1,.139-.1h4.387a.155.155,0,0,1,.119.055.144.144,0,0,1,.032.118,7.545,7.545,0,0,1-3.04,4.752A10.666,10.666,0,0,1,10.274,22ZM10.19,4A4.752,4.752,0,0,0,5.019,8.824a.144.144,0,0,0,.039.109.153.153,0,0,0,.112.049h9.747a.154.154,0,0,0,.11-.047.147.147,0,0,0,.042-.108C14.963,5.8,13.139,4,10.19,4Z" fill="#3fdd6e"/></g></g></g><g transform="translate(200 22.562)"><g transform="translate(0 -0.562)"><path d="M0,0H74V71H0Z" fill="none"/><g clip-path="url(#d)"><path d="M37.005,71a.516.516,0,0,1-.482-.328.3.3,0,0,1-.237-.289V58.024c-.364,1.027-.587,1.98-.59,1.989a.3.3,0,0,1-.287.235h-.023a.277.277,0,0,1-.118-.031,3.587,3.587,0,0,1-.681,1.329.3.3,0,0,1-.228.1.307.307,0,0,1-.077-.01.294.294,0,0,1-.125-.069,3.4,3.4,0,0,1-.641,1.137.3.3,0,0,1-.332.077.269.269,0,0,1-.053-.029,3.559,3.559,0,0,1-.732,1.01.3.3,0,0,1-.334.045,4.469,4.469,0,0,1-.83.942.3.3,0,0,1-.187.066.3.3,0,0,1-.118-.025,3.469,3.469,0,0,1-.774.814.3.3,0,0,1-.182.062.294.294,0,0,1-.159-.047,2.87,2.87,0,0,1-.985.8.3.3,0,0,1-.125.027.305.305,0,0,1-.186-.064,3.694,3.694,0,0,1-.757.581.294.294,0,0,1-.149.041.3.3,0,0,1-.145-.037,2.065,2.065,0,0,1-.672.373,5.134,5.134,0,0,0-1.666.9l-.023.018a.3.3,0,0,1-.4-.021.3.3,0,0,1-.028-.4,6.688,6.688,0,0,0,.914-1.7,2.053,2.053,0,0,1,.367-.694.3.3,0,0,1,.009-.285,3.72,3.72,0,0,1,.579-.762.3.3,0,0,1-.037-.311,2.883,2.883,0,0,1,.8-.993.3.3,0,0,1,.014-.343,3.473,3.473,0,0,1,.809-.779.3.3,0,0,1,.04-.307,4.345,4.345,0,0,1,.936-.836.3.3,0,0,1,.045-.336,3.538,3.538,0,0,1,1-.736.291.291,0,0,1-.027-.052.3.3,0,0,1,.076-.336,3.393,3.393,0,0,1,1.13-.646.3.3,0,0,1-.056-.321c-1.265.674-2.155,1.231-2.163,1.237a.3.3,0,0,1-.158.045.3.3,0,0,1-.222-.1.306.306,0,0,1-.019-.386,2.591,2.591,0,0,0,.179-.29,7.508,7.508,0,0,1-3.385,1.272H25.5a.3.3,0,0,1-.265-.153.3.3,0,0,1,.016-.322l0-.005a2.645,2.645,0,0,0,.227-.443,7.47,7.47,0,0,1-3.123,1.04H22.33a.294.294,0,0,1-.264-.185.306.306,0,0,1,.069-.337s.072-.07.167-.171a8.477,8.477,0,0,1-2.78.6c-.075,0-.15,0-.221-.006a.3.3,0,0,1-.219-.49,10.113,10.113,0,0,1-2.159.264,5.812,5.812,0,0,1-.659-.036.3.3,0,0,1-.256-.221.307.307,0,0,1,.03-.232,6.442,6.442,0,0,1-1.567.191,6.813,6.813,0,0,1-.947-.067.3.3,0,0,1-.167-.517,7.779,7.779,0,0,1-1.079.079,4.955,4.955,0,0,1-1.735-.281.3.3,0,0,1-.072-.527c-.147.009-.278.012-.4.012a7.149,7.149,0,0,1-1.845-.247.3.3,0,0,1-.2-.41,3.872,3.872,0,0,1-1.652-.418,10.531,10.531,0,0,0-3.753-1.137l-.056-.006a.3.3,0,0,1-.006-.6,13.394,13.394,0,0,0,3.809-1.142,3.692,3.692,0,0,1,1.651-.442A.332.332,0,0,1,8,53.9a.3.3,0,0,1,.222-.3,7.116,7.116,0,0,1,1.843-.247c.135,0,.271,0,.4.012a.3.3,0,0,1-.122-.233.3.3,0,0,1,.2-.294,4.935,4.935,0,0,1,1.733-.282,7.7,7.7,0,0,1,1.079.079.3.3,0,0,1-.087-.27.3.3,0,0,1,.253-.248,6.8,6.8,0,0,1,.949-.067,6.44,6.44,0,0,1,1.567.191.3.3,0,0,1-.031-.233.3.3,0,0,1,.256-.22,5.829,5.829,0,0,1,.661-.036,10.2,10.2,0,0,1,2.157.264.307.307,0,0,1-.06-.241.3.3,0,0,1,.279-.248c.077,0,.157-.007.238-.007a8.469,8.469,0,0,1,2.764.6c-.077-.083-.137-.142-.165-.17a.306.306,0,0,1-.071-.339.294.294,0,0,1,.274-.184h.013a7.441,7.441,0,0,1,3.126,1.041,2.584,2.584,0,0,0-.228-.445l0,0h0a.3.3,0,0,1-.015-.321.3.3,0,0,1,.262-.154h.015a7.331,7.331,0,0,1,3.14,1.115.307.307,0,0,1,.055-.28.3.3,0,0,1,.224-.111h.014c-2.09-.721-3.781-1.172-4.1-1.256l-.01,0a.3.3,0,0,1,.058-.594,4.335,4.335,0,0,0,.611-.086,11.825,11.825,0,0,1-5.234-2.309.3.3,0,0,1,.146-.526,3.892,3.892,0,0,0,1.127-.428,11.866,11.866,0,0,1-4.764-2.311.3.3,0,0,1-.076-.337.3.3,0,0,1,.278-.189h.1a8.532,8.532,0,0,0,.908-.049,12.711,12.711,0,0,1-4.358-2.8.3.3,0,0,1-.023-.373.3.3,0,0,1,.246-.131.3.3,0,0,1,.108.02,2.58,2.58,0,0,0,.637.135,15.148,15.148,0,0,1-3.926-3.184.3.3,0,0,1-.026-.338.3.3,0,0,1,.259-.153.291.291,0,0,1,.044,0,2.829,2.829,0,0,0,.362.021h.1A9.779,9.779,0,0,1,8.1,34.563a.3.3,0,0,1,.331-.47,4.492,4.492,0,0,0,.611.135A9.439,9.439,0,0,1,5.7,30.622a.3.3,0,0,1,.418-.39,2.316,2.316,0,0,0,.654.2,10.319,10.319,0,0,1-2.745-3.127.3.3,0,0,1,.051-.369.3.3,0,0,1,.37-.038c.005,0,.029.018.06.036A5.444,5.444,0,0,1,2.94,24.458,20.623,20.623,0,0,0,.061,19.1a.3.3,0,0,1,.029-.4.294.294,0,0,1,.21-.087.3.3,0,0,1,.187.066l.067.054a16.179,16.179,0,0,0,5.255,2.842,5.694,5.694,0,0,1,2.52,1.7c-.056-.108-.1-.179-.1-.181a.3.3,0,0,1,.038-.371.3.3,0,0,1,.367-.052,10.281,10.281,0,0,1,3.106,2.764,2.4,2.4,0,0,0-.2-.66.3.3,0,0,1,.043-.351.3.3,0,0,1,.219-.1.3.3,0,0,1,.127.028,9.43,9.43,0,0,1,3.58,3.364,4.429,4.429,0,0,0-.135-.617.3.3,0,0,1,.113-.338.3.3,0,0,1,.174-.056.3.3,0,0,1,.18.061,9.8,9.8,0,0,1,2.8,3.334,3.424,3.424,0,0,0-.021-.467.3.3,0,0,1,.149-.3.3.3,0,0,1,.148-.04.3.3,0,0,1,.187.066,15.137,15.137,0,0,1,3.163,3.954,2.588,2.588,0,0,0-.133-.641.3.3,0,0,1,.109-.357.3.3,0,0,1,.37.022,13.248,13.248,0,0,1,2.78,4.389,8.715,8.715,0,0,0,.05-1.008.3.3,0,0,1,.186-.288.293.293,0,0,1,.112-.022.3.3,0,0,1,.223.1,12,12,0,0,1,2.3,4.8,4.009,4.009,0,0,0,.425-1.136.3.3,0,0,1,.216-.239.279.279,0,0,1,.079-.011.3.3,0,0,1,.227.1,10.163,10.163,0,0,1,1.913,3.726.3.3,0,0,1,.45-.109,5.114,5.114,0,0,0,1.094.59A12.838,12.838,0,0,1,30.3,37.3a.3.3,0,0,1,.151-.284.3.3,0,0,1,.148-.04.3.3,0,0,1,.173.055,4.135,4.135,0,0,0,1.218.545,12.755,12.755,0,0,1-1.877-5.374.305.305,0,0,1,.183-.293.3.3,0,0,1,.116-.023.3.3,0,0,1,.219.094,8.915,8.915,0,0,0,.849.768,14.227,14.227,0,0,1-1.214-5.464.3.3,0,0,1,.574-.105,2.729,2.729,0,0,0,.434.649,16.333,16.333,0,0,1-.593-5.437.3.3,0,0,1,.219-.257.294.294,0,0,1,.08-.011.3.3,0,0,1,.239.12,3.894,3.894,0,0,0,.389.42,10.459,10.459,0,0,1-.4-4.694.3.3,0,0,1,.247-.256.316.316,0,0,1,.049,0,.3.3,0,0,1,.268.163,5.054,5.054,0,0,0,.413.637,10.512,10.512,0,0,1,.161-5.315.294.294,0,0,1,.271-.2l.033,0a.294.294,0,0,1,.265.218,2.617,2.617,0,0,0,.391.715,10.987,10.987,0,0,1,.259-4.5.3.3,0,0,1,.583.012c.02.08.054.207.109.363a6.2,6.2,0,0,1,.612-3.331A17.374,17.374,0,0,0,36.691.359L36.7.268a.3.3,0,0,1,.6-.006,22.04,22.04,0,0,0,1.837,6.214,5.781,5.781,0,0,1,.658,3.213c.023-.074.045-.152.065-.232l0-.006a.3.3,0,0,1,.288-.236l.029,0a.3.3,0,0,1,.266.226,11,11,0,0,1,.26,4.5,2.651,2.651,0,0,0,.39-.716A.3.3,0,0,1,41.37,13h.009a.3.3,0,0,1,.283.2,10.48,10.48,0,0,1,.16,5.316,4.838,4.838,0,0,0,.412-.634.3.3,0,0,1,.271-.167.314.314,0,0,1,.047,0,.3.3,0,0,1,.247.256,10.449,10.449,0,0,1-.4,4.694,3.9,3.9,0,0,0,.39-.421.3.3,0,0,1,.537.149,16.315,16.315,0,0,1-.594,5.437,2.725,2.725,0,0,0,.434-.648.3.3,0,0,1,.574.1,14.226,14.226,0,0,1-1.213,5.463,8.869,8.869,0,0,0,.848-.767.3.3,0,0,1,.219-.094.293.293,0,0,1,.115.023.3.3,0,0,1,.184.293,12.742,12.742,0,0,1-1.877,5.374,4.148,4.148,0,0,0,1.22-.546.294.294,0,0,1,.171-.054.3.3,0,0,1,.147.038.307.307,0,0,1,.153.285,12.738,12.738,0,0,1-2.256,5.764c.23-.145.638-.394.883-.544l.2-.126a.305.305,0,0,1,.2-.079.3.3,0,0,1,.19.069.269.269,0,0,1,.046.053l0,0a9.909,9.909,0,0,1,1.815-3.42.3.3,0,0,1,.226-.1.287.287,0,0,1,.084.013.3.3,0,0,1,.212.238,4,4,0,0,0,.426,1.134,12,12,0,0,1,2.3-4.8.3.3,0,0,1,.333-.077.308.308,0,0,1,.189.289,8.526,8.526,0,0,0,.049,1.005,12.8,12.8,0,0,1,2.779-4.387.3.3,0,0,1,.48.335,2.672,2.672,0,0,0-.132.64,15.228,15.228,0,0,1,3.162-3.953.3.3,0,0,1,.484.278v.01a3.947,3.947,0,0,0-.02.457,9.834,9.834,0,0,1,2.8-3.334.3.3,0,0,1,.354-.006.3.3,0,0,1,.113.339,4.7,4.7,0,0,0-.134.616,9.419,9.419,0,0,1,3.581-3.364.288.288,0,0,1,.124-.028.3.3,0,0,1,.22.1.305.305,0,0,1,.042.353,2.353,2.353,0,0,0-.2.659,10.312,10.312,0,0,1,3.107-2.764.3.3,0,0,1,.151-.04.3.3,0,0,1,.216.092.306.306,0,0,1,.039.372c-.029.046-.066.109-.1.184a5.687,5.687,0,0,1,2.523-1.7,16.174,16.174,0,0,0,5.251-2.839l0,0,.066-.053a.3.3,0,0,1,.187-.065.3.3,0,0,1,.21.086.3.3,0,0,1,.029.4,20.6,20.6,0,0,0-2.878,5.356,5.445,5.445,0,0,1-1.571,2.479l.056-.034.005,0a.294.294,0,0,1,.159-.046.3.3,0,0,1,.208.084.305.305,0,0,1,.052.37,10.3,10.3,0,0,1-2.745,3.127,2.38,2.38,0,0,0,.655-.2.3.3,0,0,1,.35.042.3.3,0,0,1,.068.347,9.435,9.435,0,0,1-3.342,3.606,4.376,4.376,0,0,0,.613-.136.3.3,0,0,1,.336.113.3.3,0,0,1-.005.356,9.766,9.766,0,0,1-3.311,2.823h.1a2.509,2.509,0,0,0,.363-.022l.042,0a.3.3,0,0,1,.26.152.3.3,0,0,1-.025.338A15.083,15.083,0,0,1,59.4,41.037a2.506,2.506,0,0,0,.637-.135.3.3,0,0,1,.108-.02.3.3,0,0,1,.223.5,12.693,12.693,0,0,1-4.357,2.8,8.346,8.346,0,0,0,.89.05c.065,0,.105,0,.108,0a.3.3,0,0,1,.211.526,11.841,11.841,0,0,1-4.764,2.311,3.93,3.93,0,0,0,1.129.428.3.3,0,0,1,.144.526A11.816,11.816,0,0,1,48.5,50.333a4.339,4.339,0,0,0,.612.086.3.3,0,0,1,.283.272.3.3,0,0,1-.226.323c-.017,0-1.7.438-3.87,1.176a.3.3,0,0,1-.016.339,2.6,2.6,0,0,0-.178.289,7.521,7.521,0,0,1,3.384-1.271h.021a.3.3,0,0,1,.262.154.305.305,0,0,1-.015.322,2.532,2.532,0,0,0-.231.447,7.469,7.469,0,0,1,3.123-1.04h.019a.3.3,0,0,1,.271.184.306.306,0,0,1-.069.337s-.067.064-.167.172a8.516,8.516,0,0,1,2.784-.6c.074,0,.148,0,.218.006a.3.3,0,0,1,.278.248.3.3,0,0,1-.059.242,10.189,10.189,0,0,1,2.156-.265,5.787,5.787,0,0,1,.662.036.3.3,0,0,1,.256.221.3.3,0,0,1-.03.232,6.441,6.441,0,0,1,1.567-.191,6.773,6.773,0,0,1,.947.067.3.3,0,0,1,.167.518,7.724,7.724,0,0,1,1.08-.079,4.94,4.94,0,0,1,1.734.282.3.3,0,0,1,.072.527c.148-.009.282-.013.408-.013a7.1,7.1,0,0,1,1.837.248.3.3,0,0,1,.223.3.312.312,0,0,1-.023.112,3.861,3.861,0,0,1,1.652.417,10.527,10.527,0,0,0,3.755,1.138l.054.006a.3.3,0,0,1,.005.6,13.42,13.42,0,0,0-3.808,1.141,3.683,3.683,0,0,1-1.651.443A.326.326,0,0,1,66,57.84a.3.3,0,0,1-.222.3,7.116,7.116,0,0,1-1.841.247c-.136,0-.272,0-.406-.013a.3.3,0,0,1,.123.232.3.3,0,0,1-.2.3,4.926,4.926,0,0,1-1.732.282,7.733,7.733,0,0,1-1.082-.08.3.3,0,0,1-.165.517,6.789,6.789,0,0,1-.949.067,6.41,6.41,0,0,1-1.566-.192.3.3,0,0,1,.031.232.3.3,0,0,1-.256.221,5.837,5.837,0,0,1-.661.036,10.054,10.054,0,0,1-2.157-.264.3.3,0,0,1,.059.241.3.3,0,0,1-.278.248c-.073,0-.148.006-.224.006a8.475,8.475,0,0,1-2.778-.6c.078.083.137.143.166.171a.3.3,0,0,1-.21.522h-.016a7.441,7.441,0,0,1-3.117-1.04,2.465,2.465,0,0,0,.231.448.3.3,0,0,1-.254.476h-.005a7.355,7.355,0,0,1-3.143-1.115.3.3,0,0,1-.055.28.3.3,0,0,1-.232.111.293.293,0,0,1-.154-.043l-.009-.005c-.222-.131-1.4-.82-2.88-1.528a2.984,2.984,0,0,1,.618.41.307.307,0,0,1,.092.309.3.3,0,0,1-.068.123,3.382,3.382,0,0,1,1.129.646.3.3,0,0,1,.076.336.286.286,0,0,1-.027.052,3.542,3.542,0,0,1,1,.736.3.3,0,0,1,.044.337,4.268,4.268,0,0,1,.936.835.3.3,0,0,1,.041.307,3.5,3.5,0,0,1,.809.78.3.3,0,0,1,.014.342,2.873,2.873,0,0,1,.8.993.3.3,0,0,1-.037.311,3.707,3.707,0,0,1,.578.762.3.3,0,0,1,0,.3,2.089,2.089,0,0,1,.371.677,5.151,5.151,0,0,0,.9,1.679l.018.022a.305.305,0,0,1-.022.4.3.3,0,0,1-.214.09.3.3,0,0,1-.183-.062,6.577,6.577,0,0,0-1.687-.921,2.014,2.014,0,0,1-.689-.37.3.3,0,0,1-.133.032.3.3,0,0,1-.151-.042,3.63,3.63,0,0,1-.757-.582.3.3,0,0,1-.185.065.3.3,0,0,1-.123-.027,2.857,2.857,0,0,1-.986-.8.3.3,0,0,1-.16.047.3.3,0,0,1-.181-.062,3.479,3.479,0,0,1-.773-.814.3.3,0,0,1-.119.024.3.3,0,0,1-.187-.066,4.359,4.359,0,0,1-.829-.942.3.3,0,0,1-.135.032.293.293,0,0,1-.2-.078,3.535,3.535,0,0,1-.732-1.008.285.285,0,0,1-.051.027.3.3,0,0,1-.113.022.3.3,0,0,1-.221-.1,3.418,3.418,0,0,1-.641-1.138.314.314,0,0,1-.123.069.323.323,0,0,1-.079.01.3.3,0,0,1-.228-.1,3.572,3.572,0,0,1-.694-1.37h-.033a.3.3,0,0,1-.294-.228,19.35,19.35,0,0,0-.678-2.093V70.383a.3.3,0,0,1-.226.287A.518.518,0,0,1,37.005,71Zm9.773-4.609h0a1.389,1.389,0,0,0,.607.379,4.726,4.726,0,0,1,.746.313c-.02-.042-.039-.086-.057-.129l-.022-.052Zm-19.485-.1-1.315.527-.022.048c-.031.068-.062.139-.1.205a6.7,6.7,0,0,1,.747-.3A1.491,1.491,0,0,0,27.293,66.293Zm18.947-.48a.3.3,0,0,1,.285.2s.014.032.031.068l1.267.508L45.2,63.933l.076,1.312a.3.3,0,0,1,.207.163,2.385,2.385,0,0,0,.476.606A.3.3,0,0,1,46.24,65.813Zm-17.612-1.88-2.513,2.546-.014.038-.015.04L27.482,66a.3.3,0,0,1,.558.015,2.437,2.437,0,0,0,.477-.607.148.148,0,0,1,.015-.023l.012-.017ZM45.5,63.95l2.31,2.341a1.49,1.49,0,0,0-.746-.837.3.3,0,0,1,.009-.564,2.378,2.378,0,0,0-.6-.481.3.3,0,0,1-.167-.254Zm-1.525.535a.306.306,0,0,1,.269.161,3.785,3.785,0,0,0,.666.871l0-.023a.3.3,0,0,1,.16-.226l-.085-1.449-1.71-.435-.122.353a.3.3,0,0,1,.127.167,2.468,2.468,0,0,0,.428.745.3.3,0,0,1,.231-.162ZM28.8,65.237l.026,0a.3.3,0,0,1,.256.257v.023a3.836,3.836,0,0,0,.666-.87.3.3,0,0,1,.269-.162h.03a.3.3,0,0,1,.234.161,2.473,2.473,0,0,0,.428-.744.046.046,0,0,1,.005-.011l0-.005-.144-.415-1.744.393-.08,1.373.018,0Zm-.518-1.246-.593.133a.3.3,0,0,1-.167.286,2.386,2.386,0,0,0-.6.479.306.306,0,0,1,.2.278ZM45.1,62.243l.081,1.382.043.044,1.139.29a.3.3,0,0,1,.2-.122l.024,0a3.7,3.7,0,0,0-.866-.67.3.3,0,0,1,0-.536A2.633,2.633,0,0,0,45.1,62.243ZM27.414,63.834l.015,0,.009,0a.3.3,0,0,1,.176.095l.936-.211.1-.1.076-1.3a2.675,2.675,0,0,0-.444.3.3.3,0,0,1,0,.536,3.8,3.8,0,0,0-.865.671Zm14.793-.722a5.7,5.7,0,0,0,.518.75.3.3,0,0,1,.234-.169l.124-.358-.877-.222ZM31,63.688h0a.3.3,0,0,1,.275.175,5.52,5.52,0,0,0,.458-.649l-.955.215.1.29A.3.3,0,0,1,31,63.688ZM30.19,62.35l-1.272,1.289,1.593-.359Zm13.45,0-.292.842,1.5.381L43.639,62.35Zm.45-1.3h0l-.376,1.087,1.254,1.271-.073-1.254a.3.3,0,0,1,.047-.521,5.994,5.994,0,0,0-.851-.583Zm-14.322.083h0a5.689,5.689,0,0,0-.707.5.3.3,0,0,1-.043.564.869.869,0,0,0-.086.032l-.069,1.178,1.254-1.271-.347-1Zm1.443.185-.862.874.362,1.045,1.163-.262c.022-.041.039-.073.05-.093l.013-.024a.3.3,0,0,1,.485-.071,5.719,5.719,0,0,0,.455-.928l-1.665-.541ZM41.792,62.69a.3.3,0,0,1,.272.167.035.035,0,0,1,.005.01l1.081.275.329-.952-.841-.851-1.514.522a5.742,5.742,0,0,0,.453.924A.3.3,0,0,1,41.792,62.69Zm2.076-1.776h0l-1.016.35.7.711.356-1.031a.3.3,0,0,1-.042-.031Zm-13.785.034-.009.007a.073.073,0,0,1-.016.011s-.043.022-.112.061l.328.947.72-.729-.911-.3Zm11.54-1.58-1.378,1.451a4.774,4.774,0,0,0,.286.847.3.3,0,0,1,.259-.149.287.287,0,0,1,.127.032Zm-8.414,2.148a.3.3,0,0,1,.26.149,4.754,4.754,0,0,0,.275-.8.1.1,0,0,1-.056.019.107.107,0,0,1-.077-.036L32.471,59.5l.726,2.021h.012Zm-2.2-1.48a5.733,5.733,0,0,0-.881.44.3.3,0,0,1,.083.3l2.5.812-1.7-1.552Zm1.112-.912a4.8,4.8,0,0,0-.881.3.3.3,0,0,1-.022.53l1.787,1.633Zm10.758.869L41.315,61.58l1.269-.438a.087.087,0,0,1,.067-.029h.015l1.113-.384s0-.01,0-.015a.124.124,0,0,1,0-.021.308.308,0,0,1,.095-.215A5.713,5.713,0,0,0,42.88,59.995Zm-.967-.86-.746,2.308,1.53-1.551a.309.309,0,0,1-.086-.205.3.3,0,0,1,.149-.263A4.726,4.726,0,0,0,41.912,59.134Zm-2.634.8h0a3.831,3.831,0,0,0,.3.78,1.168,1.168,0,0,1,.132-.167.28.28,0,0,1,.058-.046Zm-4.544-.046-.582.576a.315.315,0,0,1,.14.084,1.23,1.23,0,0,1,.131.167A3.855,3.855,0,0,0,34.735,59.89Zm-2.378-.869,0,0-.007.009,1.349,1.6,1.119-1.108c0-.016.005-.032.008-.046l0-.023-1.122-.2-1.346-.238Zm9.289,0-2.471.434v.008c0,.016,0,.032.008.048l.819.952.007,0a.3.3,0,0,1,.165.129l1.482-1.56-.006-.007Zm6.59-5.212h0l-.049,4.546a.285.285,0,0,1,.067.032,9.134,9.134,0,0,0,2.634,1.194,3.318,3.318,0,0,1-.343-.546.3.3,0,0,1,.058-.346.062.062,0,0,1,.014-.011l.011-.008Zm-22.512.021h0l-2.374,4.827.019.013a.14.14,0,0,1,.027.02.3.3,0,0,1,.059.346,3.311,3.311,0,0,1-.343.546,9.129,9.129,0,0,0,2.635-1.194l-.023-4.557Zm26.82,1.629h0L50.99,58.658a11.049,11.049,0,0,0,2.8.9,1.371,1.371,0,0,1-.167-.319.3.3,0,0,1,.284-.4A.289.289,0,0,1,54,58.85l.1.031,2.163-1.334-1.038-2.076-2.682-.008Zm-31.123.014-2.682.009-.977,1.954,2.369,1.4a.3.3,0,0,1,.176.086.308.308,0,0,1,.068.313,1.362,1.362,0,0,1-.167.319,11.081,11.081,0,0,0,2.767-.885Zm24.022,2.935h0a7.759,7.759,0,0,0,2.529,1.1,2.479,2.479,0,0,1-.188-.841ZM28.607,58.38l-2.4.175a.3.3,0,0,1,.013.091,2.442,2.442,0,0,1-.19.862A7.783,7.783,0,0,0,28.607,58.38Zm27.749-.651-1.991,1.228a10.931,10.931,0,0,0,2.655.423,2.593,2.593,0,0,1-.259-.409.3.3,0,0,1,.048-.338l-.453-.9Zm-38.685-.107-.5.991,0,0a.3.3,0,0,1,.062.356,2.616,2.616,0,0,1-.259.408,11.242,11.242,0,0,0,2.853-.479Zm21.18,1.385a.3.3,0,0,1,.084.012.3.3,0,0,1,.209.237l.79-.139-1.893-2.032a17.629,17.629,0,0,1,.712,1.939A.289.289,0,0,1,38.85,59.008Zm-2.7-2.263-.082.039-.064.03L34,59.1l.855.151a.3.3,0,0,1,.47-.188A16.78,16.78,0,0,1,36.154,56.745ZM14.442,58.26a.3.3,0,0,1,.237.115.306.306,0,0,1,.02.344,1.81,1.81,0,0,1-.294.363h.03a5.47,5.47,0,0,0,2.391-.511.294.294,0,0,1,.144-.036h.017l.508-1.016L14.257,55.6,11.89,57.722a.3.3,0,0,1-.022.321,2.644,2.644,0,0,1-.44.466,5.13,5.13,0,0,0,.838.065,7.982,7.982,0,0,0,2.088-.3A.291.291,0,0,1,14.442,58.26Zm42.586.273a.3.3,0,0,1,.144.037,5.652,5.652,0,0,0,2.422.511,1.879,1.879,0,0,1-.294-.364.3.3,0,0,1,.257-.458.288.288,0,0,1,.09.014,8.072,8.072,0,0,0,2.088.3,5.14,5.14,0,0,0,.836-.065,2.724,2.724,0,0,1-.44-.467.3.3,0,0,1-.022-.317L59.81,55.6l-3.281,2.023.456.913A.3.3,0,0,1,57.028,58.533ZM38.055,56.8h0l2.118,2.275,1.388-.244a.279.279,0,0,1,0-.062L38.37,56.935C38.272,56.9,38.169,56.851,38.055,56.8Zm-2.5.217c-.2.087-.421.174-.652.259l-2.47,1.5v.008a.31.31,0,0,1,0,.041l1.327.234Zm-6.064.794a.3.3,0,0,1,.146.038.307.307,0,0,1,.151.307,2.756,2.756,0,0,1-.1.447,32.11,32.11,0,0,1,5.773-2.683l-7.171.307,1.186,1.585h.02ZM48.034,53.4l-3.348,4.474.006,0,0,0s.143.117.382.286l2.758.3a.3.3,0,0,1,.1-.094.228.228,0,0,1,.04-.015l.058-4.949,0-.007ZM20.207,52.177a1.278,1.278,0,0,1,.167.319.3.3,0,0,1-.042.278l1.219,2.506a.1.1,0,0,1,.064.094.083.083,0,0,1,0,.025l1.449,2.985.017-5.278-.009,0-.014,0A11.014,11.014,0,0,0,20.207,52.177Zm2.906-.027a3.365,3.365,0,0,1,.343.546.3.3,0,0,1-.059.346.291.291,0,0,1-.119.069l-.017,5.27,2.461-5v-.052A9.234,9.234,0,0,0,23.113,52.151Zm30.679.027a11.015,11.015,0,0,0-2.845.922.275.275,0,0,1-.058.018l.016,5.252,1.45-2.982,0-.008a.056.056,0,0,1,0-.019.1.1,0,0,1,.064-.095l1.229-2.526a.307.307,0,0,1-.018-.242,1.34,1.34,0,0,1,.167-.319Zm-2.905-.027a9.18,9.18,0,0,0-2.636,1.2l-.006,0,0,.014,2.461,5L50.686,53.1a.3.3,0,0,1-.084-.058.3.3,0,0,1-.058-.346A3.311,3.311,0,0,1,50.887,52.151ZM25.931,53.416l-.006.011.026,4.915a.294.294,0,0,1,.083.022l2.911-.212c.166-.118.285-.21.34-.254l-1.241-1.659-.113-.15Zm12.764,2.5h0a30.629,30.629,0,0,1,5.556,2.436,1.415,1.415,0,0,1-.042-.2.294.294,0,0,1,.268-.34l1.183-1.579Zm23.682,1.645a.283.283,0,0,1,.1.017,4.835,4.835,0,0,0,1.471.2,6.337,6.337,0,0,0,.776-.048,1.178,1.178,0,0,1-.3-.334c-.009-.015-.02-.035-.029-.054A.3.3,0,0,1,64.443,57a.3.3,0,0,1,.342-.061,1.635,1.635,0,0,0,.219.078l3.471-1.5-8.482-.027,2.264,2.1A.316.316,0,0,1,62.377,57.562ZM9.343,56.906A.3.3,0,0,1,9.562,57a.3.3,0,0,1,.051.342c-.01.02-.02.04-.031.058a1.178,1.178,0,0,1-.3.329,6.341,6.341,0,0,0,.771.048,4.874,4.874,0,0,0,1.475-.2.282.282,0,0,1,.1-.017.308.308,0,0,1,.116.023L14.068,55.5l-8.579.028L8.941,57.02a2.333,2.333,0,0,0,.284-.089A.292.292,0,0,1,9.343,56.906Zm46.109-1.435.985,1.968,3.171-1.955Zm-36.94.015L14.48,55.5l3.106,1.837.926-1.849Zm50.3.1h0l-3.48,1.5a3.19,3.19,0,0,0,.555.049,3.074,3.074,0,0,0,1.459-.367,11.163,11.163,0,0,1,2.437-.887c-.291-.074-.6-.17-.971-.3Zm-63.7,0c-.292.094-.6.18-.9.258a12.172,12.172,0,0,1,2.431.924,3.255,3.255,0,0,0,1.476.35,3.408,3.408,0,0,0,.467-.032l-3.47-1.5Zm42.742-2.3h0l-7.826,1.976c-.418.172-.821.323-1.2.449l6.963.319h.007L47.859,53.3Zm-21.731.021-.007.005,0,0,2.027,2.708,6.89-.3c-.5-.156-1.028-.348-1.573-.569ZM8.11,54.593a3.074,3.074,0,0,0-1.461.368,7.706,7.706,0,0,1-.793.362l7.882-.025-1.967-1.163a.306.306,0,0,1-.148.039.287.287,0,0,1-.1-.017,4.868,4.868,0,0,0-1.475-.2,6.338,6.338,0,0,0-.771.048,1.161,1.161,0,0,1,.3.332l.031.057a.3.3,0,0,1-.272.433.293.293,0,0,1-.128-.029A2.9,2.9,0,0,0,8.11,54.593ZM62.2,54.122h0l-1.882,1.161,7.779.024c-.288-.123-.531-.236-.744-.343a3.268,3.268,0,0,0-1.482-.353,3.024,3.024,0,0,0-1.1.193.29.29,0,0,1-.117.024.3.3,0,0,1-.217-.094.3.3,0,0,1-.052-.343c.009-.018.019-.038.031-.057a1.154,1.154,0,0,1,.3-.33,6.361,6.361,0,0,0-.766-.047,4.888,4.888,0,0,0-1.479.2.294.294,0,0,1-.268-.035Zm-49.934-.963a5.149,5.149,0,0,0-.843.066,2.648,2.648,0,0,1,.441.466.3.3,0,0,1,.039.287L14.136,55.3h.16l2.434-2.178a5.637,5.637,0,0,0-2.283-.464h-.041a1.844,1.844,0,0,1,.294.363.306.306,0,0,1-.021.343.3.3,0,0,1-.237.116.3.3,0,0,1-.088-.013A7.844,7.844,0,0,0,12.271,53.159Zm4.674.04L14.6,55.3l4.011-.013,1.224-2.446a11.3,11.3,0,0,0-2.858-.48,2.537,2.537,0,0,1,.259.408.3.3,0,0,1-.059.354.293.293,0,0,1-.206.082Zm42.606-.545a5.721,5.721,0,0,0-2.173.417l2.389,2.21h.17l2.148-1.324a.306.306,0,0,1,.047-.266,2.68,2.68,0,0,1,.441-.466,5.134,5.134,0,0,0-.846-.066,7.848,7.848,0,0,0-2.079.3.285.285,0,0,1-.09.014.3.3,0,0,1-.258-.46,1.806,1.806,0,0,1,.294-.362Zm-39.514.238-1.194,2.389,2.48-.008-1.158-2.381a.245.245,0,0,1-.062.008.356.356,0,0,1-.066-.007Zm36.984-.536a11.466,11.466,0,0,0-2.882.487l1.212,2.424,4.116.014-2.288-2.118-.006,0a.3.3,0,0,1-.411-.4A2.616,2.616,0,0,1,57.02,52.357Zm-3.219.521-1.157,2.381,2.48.007L53.938,52.9h-.027a.3.3,0,0,1-.11-.021h0Zm-9.488.254c-.737.425-1.881,1.055-3.149,1.643l3.371-.852h-.028a.3.3,0,0,1-.3-.344A2.677,2.677,0,0,1,44.312,53.132ZM27.288,46.868l-.541,3.066a.3.3,0,0,1,.154.184.306.306,0,0,1-.108.325,2.329,2.329,0,0,1-.6.319,43.182,43.182,0,0,1,9.7,3.956l-.015-.028-8.591-7.824Zm-1.259,5.359a2.452,2.452,0,0,1,.19.862.153.153,0,0,1,0,.027l0,.01,6.074,1.534c-1.038-.475-1.954-.958-2.539-1.279a1.538,1.538,0,0,1,.042.2.3.3,0,0,1-.152.306.3.3,0,0,1-.145.039.3.3,0,0,1-.191-.07A8.636,8.636,0,0,0,26.029,52.227Zm20.682-5.339-8.5,7.771a43.619,43.619,0,0,1,9.6-3.9,2.338,2.338,0,0,1-.6-.32.3.3,0,0,1-.107-.324.3.3,0,0,1,.1-.154l-.492-3.077Zm-.889-5.566-6.51,10.953c-.307.71-.623,1.368-.937,1.955l8.3-7.583Zm-17.563.052-.932,5.283a.1.1,0,0,1,.062.026l8.188,7.457c-.332-.628-.668-1.344-1-2.127l-6.319-10.64ZM47.971,52.227A8.624,8.624,0,0,0,44.7,53.853a.3.3,0,0,1-.084.05l-.073.018a.3.3,0,0,0,.073-.018l3.169-.8a.03.03,0,0,0,0-.006.028.028,0,0,1,0-.006A2.5,2.5,0,0,1,47.971,52.227ZM37.55,41.705l-.8,11.759c.029.094.046.158.066.232.009.035.019.072.031.116l.274.005a52.364,52.364,0,0,1,4.235-10.011,2.554,2.554,0,0,1-.737.238l-.04,0a.3.3,0,0,1-.263-.156.3.3,0,0,1-.032-.191ZM32.787,38.23l3.266,13.232c.195.5.374,1,.532,1.476l.771-11.374Zm9.078,6.413A61.231,61.231,0,0,1,39.835,51L45.657,41.2a3.771,3.771,0,0,1-.771-1.327,13.1,13.1,0,0,0-1.96,5.56.3.3,0,0,1-.215.265.317.317,0,0,1-.083.011.3.3,0,0,1-.24-.12A4.192,4.192,0,0,1,41.865,44.644Zm-12.75-4.768a3.816,3.816,0,0,1-.743,1.293l5.712,9.616c-.749-1.952-1.534-4.491-1.979-6.072a4.156,4.156,0,0,1-.492.878.3.3,0,0,1-.24.12.291.291,0,0,1-.081-.011.3.3,0,0,1-.218-.263A13.093,13.093,0,0,0,29.115,39.875Zm3.329,3.917.014.016a.112.112,0,0,1,.018.022c.749,1.336,2.119,4.188,3.054,6.359L32.588,38.27h-.013a3.937,3.937,0,0,1-1.614-.43,13.734,13.734,0,0,0,2.688,5.71.307.307,0,0,1,.032.342.3.3,0,0,1-.3.151A4.223,4.223,0,0,1,32.444,43.792Zm13.586-2.45L47.4,49.9l.134-.016,3.928-2.966a.336.336,0,0,1,.012-.078.083.083,0,0,1,.005-.012l0-.01L46.139,41.38ZM28.048,41.4l-.1.035-5.389,5.485,3.871,2.955h.006l.117.014Zm23.484,5.714-3.579,2.7a12.092,12.092,0,0,0,4.932-1.889,3.754,3.754,0,0,1-1.333-.789l-.011-.013Zm-29.061,0,0,.007a.159.159,0,0,1-.017.021,3.736,3.736,0,0,1-1.333.789,12.11,12.11,0,0,0,4.892,1.883Zm5.046-5.53-8.191,2.785a.3.3,0,0,1-.186.191,5.5,5.5,0,0,1-1.335.252A13.357,13.357,0,0,0,22.3,46.625a.3.3,0,0,1,.168.1Zm19.051-.057h0l5.046,5.133a.263.263,0,0,1,.091-.034A13.357,13.357,0,0,0,56.2,44.81a5.509,5.509,0,0,1-1.335-.252.3.3,0,0,1-.2-.283ZM25.478,38.087h0L19.465,44.1l8.369-2.845.053-.055a.308.308,0,0,1-.068-.14,13.673,13.673,0,0,0-1.8-4.522,5.573,5.573,0,0,1-.25,1.344.3.3,0,0,1-.283.2Zm22.505-1.545a13.666,13.666,0,0,0-1.8,4.522.241.241,0,0,1-.013.04l0,.011.086.087,8.369,2.845-5.983-5.986a.283.283,0,0,1-.116.028.3.3,0,0,1-.285-.2A5.553,5.553,0,0,1,47.984,36.542Zm-30.037-.727-3.238,1.13.97,4.01a.3.3,0,0,1,.12.242.3.3,0,0,1-.171.27,2,2,0,0,1-.851.182A16.277,16.277,0,0,0,19.1,43.974l1.778-5.223-2.934-2.937Zm4.931-2.321a2.035,2.035,0,0,1-.18.855.3.3,0,0,1-.154.146L21.11,38.706a.1.1,0,0,1-.009.122.047.047,0,0,1-.025.012l-.013,0L19.321,43.96,25.277,38a.293.293,0,0,1-.079-.119A16.718,16.718,0,0,0,22.877,33.493Zm33.261,2.264h0L53.2,38.693l1.786,5.248a15.791,15.791,0,0,0,4.235-2.291,1.992,1.992,0,0,1-.851-.182.3.3,0,0,1-.008-.543L58.4,40.9l.971-4.018-3.237-1.129Zm-5.017-2.264a16.494,16.494,0,0,0-2.32,4.39.112.112,0,0,1-.012.023l-.008.014L54.762,43.9l-1.742-5.117-.013,0a.051.051,0,0,1-.025-.012.1.1,0,0,1-.009-.121L51.568,34.52a.3.3,0,0,1-.265-.171A2.035,2.035,0,0,1,51.122,33.493ZM37.471,41.375h0a.1.1,0,0,1,.094.089l2.813,2.052.055-.071.03-.038.795-5.183a.313.313,0,0,1-.1-.1l-8.225-.036,4.509,3.289A.125.125,0,0,1,37.471,41.375Zm5.568-3.534a3.969,3.969,0,0,1-1.583.428l-.734,4.789A12.993,12.993,0,0,0,43.039,37.84Zm-28.523-.829-1.745.608a.3.3,0,0,1-.189.188,3.846,3.846,0,0,1-1,.177,16.889,16.889,0,0,0,3.852,2.834l-.921-3.808Zm45.051-.058-.923,3.821a16.5,16.5,0,0,0,3.771-2.79,3.809,3.809,0,0,1-1-.177.3.3,0,0,1-.205-.28ZM22.153,34.347l-3.994,1.394,2.794,2.8L22.327,34.5a.288.288,0,0,1-.169-.145l-.005-.009Zm29.732-.074-.02.037-.023.044a.3.3,0,0,1-.083.1l1.371,4.026,2.795-2.8Zm-10.264-.52-8.6,4.131,8.1.035a.309.309,0,0,1,.046-.122A14.5,14.5,0,0,0,43.2,32.973a5.88,5.88,0,0,1-1.227.852.305.305,0,0,1-.131.03.3.3,0,0,1-.213-.089l0-.007,0-.006h0ZM30.8,32.973h0a14.453,14.453,0,0,0,2.009,4.788l8.6-4.133-8.959-.1a.3.3,0,0,1-.427.294,5.861,5.861,0,0,1-1.228-.852ZM9.113,34.848a8.507,8.507,0,0,0,3.46,2.382.3.3,0,0,1,.193.176l1.7-.594-1.4-5.778L8.1,30.828a.3.3,0,0,1-.24.215,4.01,4.01,0,0,1-.572.042,3.633,3.633,0,0,1-.691-.065,10.908,10.908,0,0,0,3.621,3.226.3.3,0,0,1-.068.562,2.566,2.566,0,0,1-.608.067A3.752,3.752,0,0,1,9.113,34.848Zm56.8-3.981h0l-4.916.179-1.379,5.709,1.66.579a.309.309,0,0,1,.151-.1,8.511,8.511,0,0,0,3.461-2.382,3.791,3.791,0,0,1-.432.026,2.557,2.557,0,0,1-.608-.067.3.3,0,0,1-.068-.562,10.908,10.908,0,0,0,3.62-3.226,3.633,3.633,0,0,1-.69.065,4.007,4.007,0,0,1-.572-.042.3.3,0,0,1-.229-.175Zm-52.594.316,1.344,5.562,3.126-1.09-4.469-4.472Zm47.452-.058L56.3,35.6l3.125,1.091,1.345-5.562Zm-47.3-.074L18,35.581l4.058-1.417a17.059,17.059,0,0,0-2.819-3.885,3.939,3.939,0,0,1-.176,1.005.3.3,0,0,1-.573-.011l0-.007,0-.006Zm41.289-.773a16.693,16.693,0,0,0-2.779,3.812l4.1,1.432,4.459-4.46-5.023.183-.009.028a.3.3,0,0,1-.284.219.312.312,0,0,1-.291-.209A3.922,3.922,0,0,1,54.761,30.279ZM30.884,28.3a17.344,17.344,0,0,0,1.5,5.025l9.019.1-5.2-2.555a.091.091,0,0,1-.053.018.1.1,0,0,1-.1-.093l-4.072-2a.3.3,0,0,1-.183.064.292.292,0,0,1-.1-.017A2.147,2.147,0,0,1,30.884,28.3Zm8.749-3.664-3.376,1.712-.014,4.316,5.383,2.643A17.381,17.381,0,0,0,43.115,28.3a2.145,2.145,0,0,1-.806.539A.3.3,0,0,1,42,28.774a.3.3,0,0,1-.076-.311l.022-.067-2.312-3.758Zm-27.314.622a3.848,3.848,0,0,1,.023,1.271.3.3,0,0,1-.106.185l.988,4.089.034.034,5.152.214a8.883,8.883,0,0,0-2.288-3.263,3.029,3.029,0,0,1-.042,1.047.3.3,0,0,1-.255.228l-.036,0a.3.3,0,0,1-.266-.161A10.9,10.9,0,0,0,12.319,25.259ZM57.877,27.79A8.858,8.858,0,0,0,55.6,31.038l5.16-.187.1-.1.964-3.989a.3.3,0,0,1-.166-.228,3.827,3.827,0,0,1,.023-1.271,11.042,11.042,0,0,0-3.2,3.644.3.3,0,0,1-.268.164l-.034,0a.3.3,0,0,1-.257-.229A3.026,3.026,0,0,1,57.877,27.79ZM70.8,21.144l-.054.028-.064.033-9.63,9.635,4.842-.176a.3.3,0,0,1,.158-.194,8.66,8.66,0,0,0,2.857-2.625,2.292,2.292,0,0,1-.641.1,1.432,1.432,0,0,1-.363-.044l-.078-.024a.3.3,0,0,1,0-.571s.057-.023.145-.064ZM5.09,27.845A8.622,8.622,0,0,0,7.946,30.47a.3.3,0,0,1,.145.153l4.868.2L3.371,21.233,3.309,21.2l-.037-.02,2.8,6.085c.059.027.1.04.1.041a.3.3,0,0,1-.005.571c-.025.008-.05.016-.076.023a1.431,1.431,0,0,1-.366.045A2.274,2.274,0,0,1,5.09,27.845Zm30.964-1.392-3.977,2.016a.313.313,0,0,1,.006.155l3.958,1.943ZM3.9,21.473h0l9.053,9.055-.905-3.744a.3.3,0,0,1-.271-.169,8.568,8.568,0,0,0-2.606-2.876,1.914,1.914,0,0,1,.056,1.01c-.008.032-.015.056-.023.078a.3.3,0,0,1-.276.206.3.3,0,0,1-.287-.192,5.165,5.165,0,0,0-3.018-2.691C5.067,21.966,4.5,21.744,3.9,21.473Zm60.935,2.267a8.714,8.714,0,0,0-2.607,2.876.3.3,0,0,1-.2.16l-.893,3.7,9.015-9.02c-.627.282-1.206.51-1.769.7a5.146,5.146,0,0,0-3.019,2.692.3.3,0,0,1-.275.191.308.308,0,0,1-.289-.209c-.008-.025-.015-.05-.022-.076A1.928,1.928,0,0,1,64.832,23.739Zm-33.606-.6a18.189,18.189,0,0,0,.79,5.133l4.038-2.048.021-6.552-3.726,4.22a.1.1,0,0,1-.173-.092l-.019-.006-.023-.008A4.071,4.071,0,0,1,31.226,23.139Zm10.265.557-1.676.849,2.208,3.59a17.924,17.924,0,0,0,.751-4.995,4.106,4.106,0,0,1-.91.646.3.3,0,0,1-.352-.059.119.119,0,0,1-.013-.018l-.008-.013ZM1.531,20.2h0a18.639,18.639,0,0,1,1.984,4.081,4.866,4.866,0,0,0,2.27,2.838L2.978,21.029A16.265,16.265,0,0,1,1.531,20.2Zm70.939,0c-.386.253-.822.505-1.374.795l-2.829,6.1a4.877,4.877,0,0,0,2.219-2.808A18.615,18.615,0,0,1,72.47,20.2Zm-36.1-.863-.094.107-.021,6.68,3.268-1.658Zm3.686-4.174h0l-3.545,4.015,3.194,5.2,1.723-.874a.287.287,0,0,1,.034-.126,9.283,9.283,0,0,0,.822-4.473,3.246,3.246,0,0,1-.84.792.291.291,0,0,1-.154.043.3.3,0,0,1-.287-.392,11.713,11.713,0,0,0,.3-5.221,4.022,4.022,0,0,1-.95,1.007.288.288,0,0,1-.175.059A.3.3,0,0,1,40.059,15.16ZM31.713,18.9h0a9.231,9.231,0,0,0,.822,4.474l3.542-4.009,0-.508-2.255-3.667a.3.3,0,0,1-.183-.061,4.042,4.042,0,0,1-.951-1.007,11.663,11.663,0,0,0,.3,5.221.3.3,0,0,1-.288.393.3.3,0,0,1-.155-.044,3.231,3.231,0,0,1-.838-.792ZM36.324,5.091h0L36.281,18.8l.122.2,3.511-3.977a.3.3,0,0,1-.017-.234,9.4,9.4,0,0,0,.18-4.2,2.053,2.053,0,0,1-.732.843c-.023.014-.048.027-.071.039a.293.293,0,0,1-.136.033.3.3,0,0,1-.209-.086.3.3,0,0,1-.063-.347l0-.007Zm-2.4,5.492a9.293,9.293,0,0,0,.18,4.2.3.3,0,0,1-.088.328l2.064,3.357L36.122,5.13c-.22.554-.464,1.1-.723,1.622a5.627,5.627,0,0,0-.262,4.323.3.3,0,0,1-.07.341.3.3,0,0,1-.341.049c-.025-.013-.049-.025-.072-.04A2.038,2.038,0,0,1,33.924,10.583Zm3.107-8.475h0a17.661,17.661,0,0,1-.7,2.475l2.642,6.195a5.25,5.25,0,0,0-.366-4.02A20,20,0,0,1,37.031,2.109Z" fill="#3fdd6e"/></g></g><path d="M.5,1a.5.5,0,0,0,0-1,.5.5,0,0,0,0,1" transform="translate(39 17.438)" fill="#3fdd6e"/><path d="M.5,1a.5.5,0,0,0,0-1,.5.5,0,0,0,0,1" transform="translate(38 12.438)" fill="#3fdd6e"/><path d="M.5,1a.5.5,0,0,0,0-1,.5.5,0,0,0,0,1" transform="translate(35 25.438)" fill="#3fdd6e"/><path d="M.5,1a.5.5,0,0,0,0-1,.5.5,0,0,0,0,1" transform="translate(40 24.438)" fill="#3fdd6e"/><path d="M.5,1a.5.5,0,0,0,0-1,.5.5,0,0,0,0,1" transform="translate(35 18.438)" fill="#3fdd6e"/><path d="M.5,1a.5.5,0,0,0,0-1,.5.5,0,0,0,0,1" transform="translate(41 29.438)" fill="#3fdd6e"/><path d="M.5,1a.5.5,0,0,0,0-1,.5.5,0,0,0,0,1" transform="translate(41 34.438)" fill="#3fdd6e"/><path d="M.5,1a.5.5,0,0,0,0-1,.5.5,0,0,0,0,1" transform="translate(40 37.438)" fill="#3fdd6e"/><path d="M.5,1a.5.5,0,0,0,0-1,.5.5,0,0,0,0,1" transform="translate(39 26.438)" fill="#3fdd6e"/><path d="M.5,1a.5.5,0,0,0,0-1,.5.5,0,0,0,0,1" transform="translate(40 11.438)" fill="#3fdd6e"/><path d="M.5,1a.5.5,0,0,0,0-1,.5.5,0,0,0,0,1" transform="translate(39 6.438)" fill="#3fdd6e"/><path d="M.5,1a.5.5,0,0,0,0-1,.5.5,0,0,0,0,1" transform="translate(42 23.438)" fill="#3fdd6e"/><path d="M.5,1a.5.5,0,0,0,0-1,.5.5,0,0,0,0,1" transform="translate(35 29.438)" fill="#3fdd6e"/><path d="M.5,1a.5.5,0,0,0,0-1,.5.5,0,0,0,0,1" transform="translate(31 32.438)" fill="#3fdd6e"/><path d="M.5,1a.5.5,0,0,0,0-1,.5.5,0,0,0,0,1" transform="translate(42 32.438)" fill="#3fdd6e"/><path d="M.5,1a.5.5,0,0,0,0-1,.5.5,0,0,0,0,1" transform="translate(32 36.438)" fill="#3fdd6e"/><path d="M.5,1a.5.5,0,0,0,0-1,.5.5,0,0,0,0,1" transform="translate(42 37.438)" fill="#3fdd6e"/><path d="M.5,1a.5.5,0,0,0,0-1,.5.5,0,0,0,0,1" transform="translate(38 40.438)" fill="#3fdd6e"/><path d="M.5,1a.5.5,0,0,0,0-1,.5.5,0,0,0,0,1" transform="translate(41 39.438)" fill="#3fdd6e"/><path d="M.5,1a.5.5,0,0,0,0-1,.5.5,0,0,0,0,1" transform="translate(39 40.438)" fill="#3fdd6e"/><path d="M.5,1a.5.5,0,0,0,0-1,.5.5,0,0,0,0,1" transform="translate(38 38.438)" fill="#3fdd6e"/><path d="M.5,1a.5.5,0,0,0,0-1,.5.5,0,0,0,0,1" transform="translate(39 35.438)" fill="#3fdd6e"/><path d="M.5,1a.5.5,0,0,0,0-1,.5.5,0,0,0,0,1" transform="translate(42 33.438)" fill="#3fdd6e"/><path d="M.5,1a.5.5,0,0,0,0-1,.5.5,0,0,0,0,1" transform="translate(41 31.438)" fill="#3fdd6e"/><path d="M.5,1a.5.5,0,0,0,0-1,.5.5,0,0,0,0,1" transform="translate(39 29.438)" fill="#3fdd6e"/><path d="M.5,1a.5.5,0,0,0,0-1,.5.5,0,0,0,0,1" transform="translate(41 27.438)" fill="#3fdd6e"/><path d="M.5,1a.5.5,0,0,0,0-1,.5.5,0,0,0,0,1" transform="translate(40 25.438)" fill="#3fdd6e"/><path d="M.5,1a.5.5,0,0,0,0-1,.5.5,0,0,0,0,1" transform="translate(41 20.438)" fill="#3fdd6e"/><path d="M.5,1a.5.5,0,0,0,0-1,.5.5,0,0,0,0,1" transform="translate(40 19.438)" fill="#3fdd6e"/><path d="M.5,1a.5.5,0,0,0,0-1,.5.5,0,0,0,0,1" transform="translate(40 16.438)" fill="#3fdd6e"/><path d="M.5,1a.5.5,0,0,0,0-1,.5.5,0,0,0,0,1" transform="translate(41 14.438)" fill="#3fdd6e"/><path d="M.5,1a.5.5,0,0,0,0-1,.5.5,0,0,0,0,1" transform="translate(40 18.438)" fill="#3fdd6e"/><path d="M.5,1a.5.5,0,0,0,0-1,.5.5,0,0,0,0,1" transform="translate(42 19.438)" fill="#3fdd6e"/><path d="M.5,1a.5.5,0,0,0,0-1,.5.5,0,0,0,0,1" transform="translate(38 18.438)" fill="#3fdd6e"/><path d="M.5,1a.5.5,0,0,0,0-1,.5.5,0,0,0,0,1" transform="translate(38 10.438)" fill="#3fdd6e"/><path d="M.5,1a.5.5,0,0,0,0-1,.5.5,0,0,0,0,1" transform="translate(40 12.438)" fill="#3fdd6e"/><path d="M.5,1a.5.5,0,0,0,0-1,.5.5,0,0,0,0,1" transform="translate(38 14.438)" fill="#3fdd6e"/><path d="M.5,1a.5.5,0,0,0,0-1,.5.5,0,0,0,0,1" transform="translate(39 13.438)" fill="#3fdd6e"/><path d="M.5,1a.5.5,0,0,0,0-1,.5.5,0,0,0,0,1" transform="translate(38 5.438)" fill="#3fdd6e"/><path d="M.05.1a.05.05,0,0,0,0-.1.05.05,0,0,0,0,.1" transform="translate(39.95 8.388)" fill="#3fdd6e"/><path d="M.5,1a.5.5,0,0,0,0-1,.5.5,0,0,0,0,1" transform="translate(42 24.438)" fill="#3fdd6e"/><path d="M.05.1a.05.05,0,0,0,0-.1.05.05,0,0,0,0,.1" transform="translate(42.95 26.388)" fill="#3fdd6e"/><path d="M.05.1a.05.05,0,0,0,0-.1.05.05,0,0,0,0,.1" transform="translate(37.95 28.388)" fill="#3fdd6e"/><path d="M.05.1a.05.05,0,0,0,0-.1.05.05,0,0,0,0,.1" transform="translate(39.95 28.388)" fill="#3fdd6e"/><path d="M.05.1a.05.05,0,0,0,0-.1.05.05,0,0,0,0,.1" transform="translate(42.95 29.388)" fill="#3fdd6e"/><path d="M.05.1a.05.05,0,0,0,0-.1.05.05,0,0,0,0,.1" transform="translate(40.95 31.388)" fill="#3fdd6e"/><path d="M.05.1a.05.05,0,0,0,0-.1.05.05,0,0,0,0,.1" transform="translate(37.95 32.388)" fill="#3fdd6e"/><path d="M.05.1a.05.05,0,0,0,0-.1.05.05,0,0,0,0,.1" transform="translate(39.95 32.388)" fill="#3fdd6e"/><path d="M.05.1a.05.05,0,0,0,0-.1.05.05,0,0,0,0,.1" transform="translate(37.95 34.388)" fill="#3fdd6e"/><path d="M.05.1a.05.05,0,0,0,0-.1.05.05,0,0,0,0,.1" transform="translate(39.95 34.388)" fill="#3fdd6e"/><path d="M.05.1a.05.05,0,0,0,0-.1.05.05,0,0,0,0,.1" transform="translate(37.95 36.388)" fill="#3fdd6e"/><path d="M.05.1a.05.05,0,0,0,0-.1.05.05,0,0,0,0,.1" transform="translate(39.95 35.388)" fill="#3fdd6e"/><path d="M.05.1a.05.05,0,0,0,0-.1.05.05,0,0,0,0,.1" transform="translate(41.95 36.388)" fill="#3fdd6e"/><path d="M.05.1a.05.05,0,0,0,0-.1.05.05,0,0,0,0,.1" transform="translate(39.95 39.388)" fill="#3fdd6e"/><path d="M.05.1a.05.05,0,0,0,0-.1.05.05,0,0,0,0,.1" transform="translate(42.95 38.388)" fill="#3fdd6e"/><path d="M.05.1a.05.05,0,0,0,0-.1.05.05,0,0,0,0,.1" transform="translate(41.95 39.388)" fill="#3fdd6e"/><path d="M.5,1a.5.5,0,0,0,0-1,.5.5,0,0,0,0,1" transform="translate(39 42.438)" fill="#3fdd6e"/><path d="M.5,1a.5.5,0,0,0,0-1,.5.5,0,0,0,0,1" transform="translate(40 43.438)" fill="#3fdd6e"/><path d="M.5,1a.5.5,0,0,0,0-1,.5.5,0,0,0,0,1" transform="translate(39 44.438)" fill="#3fdd6e"/><path d="M.5,1a.5.5,0,0,0,0-1,.5.5,0,0,0,0,1" transform="translate(38 48.438)" fill="#3fdd6e"/><path d="M.5,1a.5.5,0,0,0,0-1,.5.5,0,0,0,0,1" transform="translate(40 45.438)" fill="#3fdd6e"/><path d="M.5,1a.5.5,0,0,0,0-1,.5.5,0,0,0,0,1" transform="translate(40 44.438)" fill="#3fdd6e"/><path d="M.5,1a.5.5,0,0,0,0-1,.5.5,0,0,0,0,1" transform="translate(38 45.438)" fill="#3fdd6e"/><path d="M.5,1a.5.5,0,0,0,0-1,.5.5,0,0,0,0,1" transform="translate(38 50.438)" fill="#3fdd6e"/><path d="M.5,1a.5.5,0,0,0,0-1,.5.5,0,0,0,0,1" transform="translate(35 45.438)" fill="#3fdd6e"/><path d="M0,.457V.543A.322.322,0,0,0,.043.719a.344.344,0,0,0,.1.147A.384.384,0,0,0,.307.96.409.409,0,0,0,.5,1L.633.984A.519.519,0,0,0,.854.866L.931.773A.426.426,0,0,0,1,.543V.457A.321.321,0,0,0,.957.281a.341.341,0,0,0-.1-.147A.379.379,0,0,0,.693.04.4.4,0,0,0,.5,0L.367.017A.513.513,0,0,0,.146.134L.069.226A.422.422,0,0,0,0,.457" transform="translate(35 48.438)" fill="#3fdd6e"/><path d="M.5,1a.5.5,0,0,0,0-1,.5.5,0,0,0,0,1" transform="translate(63 32.438)" fill="#3fdd6e"/><path d="M.5,1a.5.5,0,0,0,0-1,.5.5,0,0,0,0,1" transform="translate(66 28.438)" fill="#3fdd6e"/><path d="M.5,1a.5.5,0,0,0,0-1,.5.5,0,0,0,0,1" transform="translate(55 34.438)" fill="#3fdd6e"/><path d="M.5,1a.5.5,0,0,0,0-1,.5.5,0,0,0,0,1" transform="translate(59 35.438)" fill="#3fdd6e"/><path d="M.5,1a.5.5,0,0,0,0-1,.5.5,0,0,0,0,1" transform="translate(60 30.438)" fill="#3fdd6e"/><path d="M.5,1a.5.5,0,0,0,0-1,.5.5,0,0,0,0,1" transform="translate(57 40.438)" fill="#3fdd6e"/><path d="M.5,1a.5.5,0,0,0,0-1,.5.5,0,0,0,0,1" transform="translate(53 43.438)" fill="#3fdd6e"/><path d="M.5,1a.5.5,0,0,0,0-1,.5.5,0,0,0,0,1" transform="translate(50 44.438)" fill="#3fdd6e"/><path d="M.5,1a.5.5,0,0,0,0-1,.5.5,0,0,0,0,1" transform="translate(57 37.438)" fill="#3fdd6e"/><path d="M.5,1a.5.5,0,0,0,0-1,.5.5,0,0,0,0,1" transform="translate(68 27.438)" fill="#3fdd6e"/><path d="M.5,1a.5.5,0,0,0,0-1,.5.5,0,0,0,0,1" transform="translate(70 24.438)" fill="#3fdd6e"/><path d="M.5,1a.5.5,0,0,0,0-1,.5.5,0,0,0,0,1" transform="translate(62 36.438)" fill="#3fdd6e"/><path d="M.5,1a.5.5,0,0,0,0-1,.5.5,0,0,0,0,1" transform="translate(53 37.438)" fill="#3fdd6e"/><path d="M.5,1a.5.5,0,0,0,0-1,.5.5,0,0,0,0,1" transform="translate(48 36.438)" fill="#3fdd6e"/><path d="M.5,1a.5.5,0,0,0,0-1,.5.5,0,0,0,0,1" transform="translate(55 42.438)" fill="#3fdd6e"/><path d="M.5,1a.5.5,0,0,0,0-1,.5.5,0,0,0,0,1" transform="translate(46 40.438)" fill="#3fdd6e"/><path d="M.5,1a.5.5,0,0,0,0-1,.5.5,0,0,0,0,1" transform="translate(52 45.438)" fill="#3fdd6e"/><path d="M.5,1a.5.5,0,0,0,0-1,.5.5,0,0,0,0,1" transform="translate(47 45.438)" fill="#3fdd6e"/><path d="M.5,1a.5.5,0,0,0,0-1,.5.5,0,0,0,0,1" transform="translate(49 46.438)" fill="#3fdd6e"/><path d="M.5,1a.5.5,0,0,0,0-1,.5.5,0,0,0,0,1" transform="translate(48 46.438)" fill="#3fdd6e"/><path d="M.5,1a.5.5,0,0,0,0-1,.5.5,0,0,0,0,1" transform="translate(48 44.438)" fill="#3fdd6e"/><path d="M.5,1a.5.5,0,0,0,0-1,.5.5,0,0,0,0,1" transform="translate(51 43.438)" fill="#3fdd6e"/><path d="M.5,1a.5.5,0,0,0,0-1,.5.5,0,0,0,0,1" transform="translate(54 43.438)" fill="#3fdd6e"/><path d="M.5,1a.5.5,0,0,0,0-1,.5.5,0,0,0,0,1" transform="translate(55 41.438)" fill="#3fdd6e"/><path d="M.5,1a.5.5,0,0,0,0-1,.5.5,0,0,0,0,1" transform="translate(55 39.438)" fill="#3fdd6e"/><path d="M.5,1a.5.5,0,0,0,0-1,.5.5,0,0,0,0,1" transform="translate(57 38.438)" fill="#3fdd6e"/><path d="M.5,1a.5.5,0,0,0,0-1,.5.5,0,0,0,0,1" transform="translate(58 36.438)" fill="#3fdd6e"/><path d="M.5,1a.5.5,0,0,0,0-1,.5.5,0,0,0,0,1" transform="translate(63 34.438)" fill="#3fdd6e"/><path d="M.5,1a.5.5,0,0,0,0-1,.5.5,0,0,0,0,1" transform="translate(62 33.438)" fill="#3fdd6e"/><path d="M.5,1a.5.5,0,0,0,0-1,.5.5,0,0,0,0,1" transform="translate(65 31.438)" fill="#3fdd6e"/><path d="M.5,1a.5.5,0,0,0,0-1,.5.5,0,0,0,0,1" transform="translate(66 31.438)" fill="#3fdd6e"/><path d="M.5,1a.5.5,0,0,0,0-1,.5.5,0,0,0,0,1" transform="translate(63 33.438)" fill="#3fdd6e"/><path d="M.5,1a.5.5,0,0,0,0-1,.5.5,0,0,0,0,1" transform="translate(64 34.438)" fill="#3fdd6e"/><path d="M.5,1a.5.5,0,0,0,0-1,.5.5,0,0,0,0,1" transform="translate(62 31.438)" fill="#3fdd6e"/><path d="M.5,1a.5.5,0,0,0,0-1,.5.5,0,0,0,0,1" transform="translate(67 26.438)" fill="#3fdd6e"/><path d="M.5,1a.5.5,0,0,0,0-1,.5.5,0,0,0,0,1" transform="translate(67 28.438)" fill="#3fdd6e"/><path d="M.5,1a.5.5,0,0,0,0-1,.5.5,0,0,0,0,1" transform="translate(64 28.438)" fill="#3fdd6e"/><path d="M.5,1a.5.5,0,0,0,0-1,.5.5,0,0,0,0,1" transform="translate(66 29.438)" fill="#3fdd6e"/><path d="M.5,1a.5.5,0,0,0,0-1,.5.5,0,0,0,0,1" transform="translate(71 21.438)" fill="#3fdd6e"/><path d="M.05.1a.05.05,0,0,0,0-.1.05.05,0,0,0,0,.1" transform="translate(69.95 25.388)" fill="#3fdd6e"/><path d="M.5,1a.5.5,0,0,0,0-1,.5.5,0,0,0,0,1" transform="translate(60 37.438)" fill="#3fdd6e"/><path d="M.05.1a.05.05,0,0,0,0-.1.05.05,0,0,0,0,.1" transform="translate(59.95 39.388)" fill="#3fdd6e"/><path d="M.05.1a.05.05,0,0,0,0-.1.05.05,0,0,0,0,.1" transform="translate(55.95 37.388)" fill="#3fdd6e"/><path d="M.05.1a.05.05,0,0,0,0-.1.05.05,0,0,0,0,.1" transform="translate(55.95 38.388)" fill="#3fdd6e"/><path d="M.05.1a.05.05,0,0,0,0-.1.05.05,0,0,0,0,.1" transform="translate(57.95 41.388)" fill="#3fdd6e"/><path d="M.05.1a.05.05,0,0,0,0-.1.05.05,0,0,0,0,.1" transform="translate(54.95 41.388)" fill="#3fdd6e"/><path d="M.05.1a.05.05,0,0,0,0-.1.05.05,0,0,0,0,.1" transform="translate(52.95 40.388)" fill="#3fdd6e"/><path d="M.05.1a.05.05,0,0,0,0-.1.05.05,0,0,0,0,.1" transform="translate(53.95 41.388)" fill="#3fdd6e"/><path d="M.05.1a.05.05,0,0,0,0-.1.05.05,0,0,0,0,.1" transform="translate(51.95 41.388)" fill="#3fdd6e"/><path d="M.05.1a.05.05,0,0,0,0-.1.05.05,0,0,0,0,.1" transform="translate(52.95 42.388)" fill="#3fdd6e"/><path d="M.05.1a.05.05,0,0,0,0-.1.05.05,0,0,0,0,.1" transform="translate(49.95 42.388)" fill="#3fdd6e"/><path d="M.05.1a.05.05,0,0,0,0-.1.05.05,0,0,0,0,.1" transform="translate(51.95 43.388)" fill="#3fdd6e"/><path d="M.05.1a.05.05,0,0,0,0-.1.05.05,0,0,0,0,.1" transform="translate(51.95 45.388)" fill="#3fdd6e"/><path d="M.05.1a.05.05,0,0,0,0-.1.05.05,0,0,0,0,.1" transform="translate(48.95 46.388)" fill="#3fdd6e"/><path d="M.05.1a.05.05,0,0,0,0-.1.05.05,0,0,0,0,.1" transform="translate(51.95 48.388)" fill="#3fdd6e"/><path d="M.05.1a.05.05,0,0,0,0-.1.05.05,0,0,0,0,.1" transform="translate(50.95 48.388)" fill="#3fdd6e"/><path d="M.5,1a.5.5,0,0,0,0-1,.5.5,0,0,0,0,1" transform="translate(46 48.438)" fill="#3fdd6e"/><path d="M.5,1a.5.5,0,0,0,0-1,.5.5,0,0,0,0,1" transform="translate(46 49.438)" fill="#3fdd6e"/><path d="M.5,1a.5.5,0,0,0,0-1,.5.5,0,0,0,0,1" transform="translate(45 49.438)" fill="#3fdd6e"/><path d="M.5,1a.5.5,0,0,0,0-1,.5.5,0,0,0,0,1" transform="translate(43 51.438)" fill="#3fdd6e"/><path d="M.5,1a.5.5,0,0,0,0-1,.5.5,0,0,0,0,1" transform="translate(45 50.438)" fill="#3fdd6e"/><path d="M.5,1a.5.5,0,0,0,0-1,.5.5,0,0,0,0,1" transform="translate(43 50.438)" fill="#3fdd6e"/><path d="M.5,1a.5.5,0,0,0,0-1,.5.5,0,0,0,0,1" transform="translate(42 51.438)" fill="#3fdd6e"/><path d="M.5,1a.5.5,0,0,0,0-1,.5.5,0,0,0,0,1" transform="translate(42 49.438)" fill="#3fdd6e"/><path d="M.2.138.138.2a.356.356,0,0,0-.1.151A.357.357,0,0,0,0,.529a.358.358,0,0,0,.04.181.351.351,0,0,0,.1.151l.1.074A.469.469,0,0,0,.471,1L.6.983A.468.468,0,0,0,.8.862L.862.8a.352.352,0,0,0,.1-.151A.358.358,0,0,0,1,.47.357.357,0,0,0,.959.289a.357.357,0,0,0-.1-.151L.767.064A.464.464,0,0,0,.529,0L.4.017A.468.468,0,0,0,.2.138" transform="translate(41 50.438)" fill="#3fdd6e"/><path d="M.5,1a.5.5,0,0,0,0-1,.5.5,0,0,0,0,1" transform="translate(9 32.438)" fill="#3fdd6e"/><path d="M.5,1a.5.5,0,0,0,0-1,.5.5,0,0,0,0,1" transform="translate(7 28.438)" fill="#3fdd6e"/><path d="M.5,1a.5.5,0,0,0,0-1,.5.5,0,0,0,0,1" transform="translate(18 35.438)" fill="#3fdd6e"/><path d="M.5,1a.5.5,0,0,0,0-1,.5.5,0,0,0,0,1" transform="translate(15 36.438)" fill="#3fdd6e"/><path d="M.5,1a.5.5,0,0,0,0-1,.5.5,0,0,0,0,1" transform="translate(13 30.438)" fill="#3fdd6e"/><path d="M.5,1a.5.5,0,0,0,0-1,.5.5,0,0,0,0,1" transform="translate(17 40.438)" fill="#3fdd6e"/><path d="M.5,1a.5.5,0,0,0,0-1,.5.5,0,0,0,0,1" transform="translate(21 44.438)" fill="#3fdd6e"/><path d="M.5,1a.5.5,0,0,0,0-1,.5.5,0,0,0,0,1" transform="translate(24 45.438)" fill="#3fdd6e"/><path d="M.5,1a.5.5,0,0,0,0-1,.5.5,0,0,0,0,1" transform="translate(17 37.438)" fill="#3fdd6e"/><path d="M.5,1a.5.5,0,0,0,0-1,.5.5,0,0,0,0,1" transform="translate(5 27.438)" fill="#3fdd6e"/><path d="M.5,1a.5.5,0,0,0,0-1,.5.5,0,0,0,0,1" transform="translate(4 24.438)" fill="#3fdd6e"/><path d="M.5,1a.5.5,0,0,0,0-1,.5.5,0,0,0,0,1" transform="translate(13 36.438)" fill="#3fdd6e"/><path d="M.5,1a.5.5,0,0,0,0-1,.5.5,0,0,0,0,1" transform="translate(21 37.438)" fill="#3fdd6e"/><path d="M.5,1a.5.5,0,0,0,0-1,.5.5,0,0,0,0,1" transform="translate(25 37.438)" fill="#3fdd6e"/><path d="M.5,1a.5.5,0,0,0,0-1,.5.5,0,0,0,0,1" transform="translate(19 43.438)" fill="#3fdd6e"/><path d="M.5,1a.5.5,0,0,0,0-1,.5.5,0,0,0,0,1" transform="translate(28 40.438)" fill="#3fdd6e"/><path d="M.5,1a.5.5,0,0,0,0-1,.5.5,0,0,0,0,1" transform="translate(22 46.438)" fill="#3fdd6e"/><path d="M.5,1a.5.5,0,0,0,0-1,.5.5,0,0,0,0,1" transform="translate(27 45.438)" fill="#3fdd6e"/><path d="M.5,1a.5.5,0,0,0,0-1,.5.5,0,0,0,0,1" transform="translate(24 46.438)" fill="#3fdd6e"/><path d="M.5,1a.5.5,0,0,0,0-1,.5.5,0,0,0,0,1" transform="translate(26 46.438)" fill="#3fdd6e"/><path d="M.5,1a.5.5,0,0,0,0-1,.5.5,0,0,0,0,1" transform="translate(25 45.438)" fill="#3fdd6e"/><path d="M.5,1a.5.5,0,0,0,0-1,.5.5,0,0,0,0,1" transform="translate(22 44.438)" fill="#3fdd6e"/><path d="M.5,1a.5.5,0,0,0,0-1,.5.5,0,0,0,0,1" transform="translate(19 44.438)" fill="#3fdd6e"/><path d="M.5,1a.5.5,0,0,0,0-1,.5.5,0,0,0,0,1" transform="translate(18 41.438)" fill="#3fdd6e"/><path d="M.5,1a.5.5,0,0,0,0-1,.5.5,0,0,0,0,1" transform="translate(18 39.438)" fill="#3fdd6e"/><path d="M.5,1a.5.5,0,0,0,0-1,.5.5,0,0,0,0,1" transform="translate(16 39.438)" fill="#3fdd6e"/><path d="M.5,1a.5.5,0,0,0,0-1,.5.5,0,0,0,0,1" transform="translate(16 38.438)" fill="#3fdd6e"/><path d="M.5,1a.5.5,0,0,0,0-1,.5.5,0,0,0,0,1" transform="translate(11 35.438)" fill="#3fdd6e"/><path d="M.5,1a.5.5,0,0,0,0-1,.5.5,0,0,0,0,1" transform="translate(11 33.438)" fill="#3fdd6e"/><path d="M.5,1a.5.5,0,0,0,0-1,.5.5,0,0,0,0,1" transform="translate(8 32.438)" fill="#3fdd6e"/><path d="M.5,1a.5.5,0,0,0,0-1,.5.5,0,0,0,0,1" transform="translate(7 31.438)" fill="#3fdd6e"/><path d="M.5,1a.5.5,0,0,0,0-1,.5.5,0,0,0,0,1" transform="translate(10 33.438)" fill="#3fdd6e"/><path d="M.5,1a.5.5,0,0,0,0-1,.5.5,0,0,0,0,1" transform="translate(10 34.438)" fill="#3fdd6e"/><path d="M.5,1a.5.5,0,0,0,0-1,.5.5,0,0,0,0,1" transform="translate(11 32.438)" fill="#3fdd6e"/><path d="M.5,1a.5.5,0,0,0,0-1,.5.5,0,0,0,0,1" transform="translate(6 26.438)" fill="#3fdd6e"/><path d="M.5,1a.5.5,0,0,0,0-1,.5.5,0,0,0,0,1" transform="translate(6 28.438)" fill="#3fdd6e"/><path d="M.5,1a.5.5,0,0,0,0-1,.5.5,0,0,0,0,1" transform="translate(8 29.438)" fill="#3fdd6e"/><path d="M.5,1a.5.5,0,0,0,0-1,.5.5,0,0,0,0,1" transform="translate(7 29.438)" fill="#3fdd6e"/><path d="M.5,1a.5.5,0,0,0,0-1,.5.5,0,0,0,0,1" transform="translate(3 23.438)" fill="#3fdd6e"/><path d="M.05.1a.05.05,0,0,0,0-.1.05.05,0,0,0,0,.1" transform="translate(4.95 26.388)" fill="#3fdd6e"/><path d="M.5,1a.5.5,0,0,0,0-1,.5.5,0,0,0,0,1" transform="translate(13 37.438)" fill="#3fdd6e"/><path d="M.05.1a.05.05,0,0,0,0-.1.05.05,0,0,0,0,.1" transform="translate(14.95 39.388)" fill="#3fdd6e"/><path d="M.05.1a.05.05,0,0,0,0-.1.05.05,0,0,0,0,.1" transform="translate(18.95 38.388)" fill="#3fdd6e"/><path d="M.05.1a.05.05,0,0,0,0-.1.05.05,0,0,0,0,.1" transform="translate(17.95 39.388)" fill="#3fdd6e"/><path d="M.05.1a.05.05,0,0,0,0-.1.05.05,0,0,0,0,.1" transform="translate(15.95 41.388)" fill="#3fdd6e"/><path d="M.05.1a.05.05,0,0,0,0-.1.05.05,0,0,0,0,.1" transform="translate(18.95 41.388)" fill="#3fdd6e"/><path d="M.05.1a.05.05,0,0,0,0-.1.05.05,0,0,0,0,.1" transform="translate(20.95 40.388)" fill="#3fdd6e"/><path d="M.05.1a.05.05,0,0,0,0-.1.05.05,0,0,0,0,.1" transform="translate(20.95 41.388)" fill="#3fdd6e"/><path d="M.05.1a.05.05,0,0,0,0-.1.05.05,0,0,0,0,.1" transform="translate(21.95 41.388)" fill="#3fdd6e"/><path d="M.05.1a.05.05,0,0,0,0-.1.05.05,0,0,0,0,.1" transform="translate(20.95 42.388)" fill="#3fdd6e"/><path d="M.05.1a.05.05,0,0,0,0-.1.05.05,0,0,0,0,.1" transform="translate(23.95 44.388)" fill="#3fdd6e"/><path d="M.05.1a.05.05,0,0,0,0-.1.05.05,0,0,0,0,.1" transform="translate(21.95 43.388)" fill="#3fdd6e"/><path d="M.05.1a.05.05,0,0,0,0-.1.05.05,0,0,0,0,.1" transform="translate(21.95 45.388)" fill="#3fdd6e"/><path d="M.05.1a.05.05,0,0,0,0-.1.05.05,0,0,0,0,.1" transform="translate(24.95 46.388)" fill="#3fdd6e"/><path d="M.05.1a.05.05,0,0,0,0-.1.05.05,0,0,0,0,.1" transform="translate(22.95 48.388)" fill="#3fdd6e"/><path d="M.05.1a.05.05,0,0,0,0-.1.05.05,0,0,0,0,.1" transform="translate(23.95 48.388)" fill="#3fdd6e"/><path d="M.5,1a.5.5,0,0,0,0-1,.5.5,0,0,0,0,1" transform="translate(28 48.438)" fill="#3fdd6e"/><path d="M.5,1a.5.5,0,0,0,0-1,.5.5,0,0,0,0,1" transform="translate(28 50.438)" fill="#3fdd6e"/><path d="M.5,1a.5.5,0,0,0,0-1,.5.5,0,0,0,0,1" transform="translate(29 49.438)" fill="#3fdd6e"/><path d="M.5,1a.5.5,0,0,0,0-1,.5.5,0,0,0,0,1" transform="translate(31 51.438)" fill="#3fdd6e"/><path d="M.5,1a.5.5,0,0,0,0-1,.5.5,0,0,0,0,1" transform="translate(29 50.438)" fill="#3fdd6e"/><path d="M.5,1a.5.5,0,0,0,0-1,.5.5,0,0,0,0,1" transform="translate(30 50.438)" fill="#3fdd6e"/><path d="M.5,1a.5.5,0,0,0,0-1,.5.5,0,0,0,0,1" transform="translate(32 52.438)" fill="#3fdd6e"/><path d="M.5,1a.5.5,0,0,0,0-1,.5.5,0,0,0,0,1" transform="translate(32 50.438)" fill="#3fdd6e"/><path d="M.138.8.2.862a.352.352,0,0,0,.151.1A.355.355,0,0,0,.53,1,.358.358,0,0,0,.711.959a.347.347,0,0,0,.151-.1L.936.767A.468.468,0,0,0,1,.53C.994.488.988.447.983.405A.467.467,0,0,0,.862.2L.8.138a.352.352,0,0,0-.151-.1A.358.358,0,0,0,.47,0a.357.357,0,0,0-.181.04.357.357,0,0,0-.151.1L.064.233A.468.468,0,0,0,0,.47L.017.595A.467.467,0,0,0,.138.8" transform="translate(33 51.438)" fill="#3fdd6e"/><path d="M.05,1a2.525,2.525,0,0,0,0-1,2.525,2.525,0,0,0,0,1" transform="translate(59.95 56.438)" fill="#3fdd6e"/><path d="M.05,1a2.525,2.525,0,0,0,0-1,2.525,2.525,0,0,0,0,1" transform="translate(63.95 56.438)" fill="#3fdd6e"/><path d="M.05,1a2.525,2.525,0,0,0,0-1,2.525,2.525,0,0,0,0,1" transform="translate(54.95 54.438)" fill="#3fdd6e"/><path d="M.05,1a2.525,2.525,0,0,0,0-1,2.525,2.525,0,0,0,0,1" transform="translate(56.95 56.438)" fill="#3fdd6e"/><path d="M.5,1a.5.5,0,0,0,0-1,.5.5,0,0,0,0,1" transform="translate(59 54.438)" fill="#3fdd6e"/><path d="M.5,1a.5.5,0,0,0,0-1,.5.5,0,0,0,0,1" transform="translate(53 57.438)" fill="#3fdd6e"/><path d="M.5,1a.5.5,0,0,0,0-1,.5.5,0,0,0,0,1" transform="translate(49 57.438)" fill="#3fdd6e"/><path d="M.5,1a.5.5,0,0,0,0-1,.5.5,0,0,0,0,1" transform="translate(55 56.438)" fill="#3fdd6e"/><path d="M.5,1a.5.5,0,0,0,0-1,.5.5,0,0,0,0,1" transform="translate(57 57.438)" fill="#3fdd6e"/><path d="M.5,1a.5.5,0,0,0,0-1,.5.5,0,0,0,0,1" transform="translate(52 54.438)" fill="#3fdd6e"/><path d="M.5,1a.5.5,0,0,0,0-1,.5.5,0,0,0,0,1" transform="translate(50 52.438)" fill="#3fdd6e"/><path d="M.5,1a.5.5,0,0,0,0-1,.5.5,0,0,0,0,1" transform="translate(51 57.438)" fill="#3fdd6e"/><path d="M.5,1a.5.5,0,0,0,0-1,.5.5,0,0,0,0,1" transform="translate(49 53.438)" fill="#3fdd6e"/><path d="M.5,1a.5.5,0,0,0,0-1,.5.5,0,0,0,0,1" transform="translate(48 52.438)" fill="#3fdd6e"/><path d="M.5,1a.5.5,0,0,0,0-1,.5.5,0,0,0,0,1" transform="translate(47 55.438)" fill="#3fdd6e"/><path d="M.05.1a.05.05,0,0,0,0-.1.05.05,0,0,0,0,.1" transform="translate(47.95 57.388)" fill="#3fdd6e"/><path d="M.05.1a.05.05,0,0,0,0-.1.05.05,0,0,0,0,.1" transform="translate(46.95 57.388)" fill="#3fdd6e"/><path d="M.05.1a.05.05,0,0,0,0-.1.05.05,0,0,0,0,.1" transform="translate(47.95 56.388)" fill="#3fdd6e"/><path d="M.05.1a.05.05,0,0,0,0-.1.05.05,0,0,0,0,.1" transform="translate(49.95 56.388)" fill="#3fdd6e"/><path d="M.05.1a.05.05,0,0,0,0-.1.05.05,0,0,0,0,.1" transform="translate(50.95 58.388)" fill="#3fdd6e"/><path d="M.05.1a.05.05,0,0,0,0-.1.05.05,0,0,0,0,.1" transform="translate(52.95 58.388)" fill="#3fdd6e"/><path d="M.05.1a.05.05,0,0,0,0-.1.05.05,0,0,0,0,.1" transform="translate(53.95 57.388)" fill="#3fdd6e"/><path d="M.05.1a.05.05,0,0,0,0-.1.05.05,0,0,0,0,.1" transform="translate(54.95 57.388)" fill="#3fdd6e"/><path d="M.05.1a.05.05,0,0,0,0-.1.05.05,0,0,0,0,.1" transform="translate(55.95 58.388)" fill="#3fdd6e"/><path d="M.05,1a2.525,2.525,0,0,0,0-1,2.525,2.525,0,0,0,0,1" transform="translate(57.95 56.438)" fill="#3fdd6e"/><path d="M.05.1a.05.05,0,0,0,0-.1.05.05,0,0,0,0,.1" transform="translate(58.95 57.388)" fill="#3fdd6e"/><path d="M.05.1a.05.05,0,0,0,0-.1.05.05,0,0,0,0,.1" transform="translate(60.95 57.388)" fill="#3fdd6e"/><path d="M.05.1a.05.05,0,0,0,0-.1.05.05,0,0,0,0,.1" transform="translate(60.95 57.388)" fill="#3fdd6e"/><path d="M.05.1a.05.05,0,0,0,0-.1.05.05,0,0,0,0,.1" transform="translate(59.95 57.388)" fill="#3fdd6e"/><path d="M.05.1a.05.05,0,0,0,0-.1.05.05,0,0,0,0,.1" transform="translate(57.95 58.388)" fill="#3fdd6e"/><path d="M.05.1a.05.05,0,0,0,0-.1.05.05,0,0,0,0,.1" transform="translate(59.95 56.388)" fill="#3fdd6e"/><path d="M.05.1a.05.05,0,0,0,0-.1.05.05,0,0,0,0,.1" transform="translate(64.95 56.388)" fill="#3fdd6e"/><path d="M.05.1a.05.05,0,0,0,0-.1.05.05,0,0,0,0,.1" transform="translate(62.95 56.388)" fill="#3fdd6e"/><path d="M.05.1a.05.05,0,0,0,0-.1.05.05,0,0,0,0,.1" transform="translate(62.95 56.388)" fill="#3fdd6e"/><path d="M.05.1a.05.05,0,0,0,0-.1.05.05,0,0,0,0,.1" transform="translate(55.95 58.388)" fill="#3fdd6e"/><path d="M.05.1a.05.05,0,0,0,0-.1.05.05,0,0,0,0,.1" transform="translate(54.95 56.388)" fill="#3fdd6e"/><path d="M.05.1a.05.05,0,0,0,0-.1.05.05,0,0,0,0,.1" transform="translate(53.95 57.388)" fill="#3fdd6e"/><path d="M.05.1a.05.05,0,0,0,0-.1.05.05,0,0,0,0,.1" transform="translate(52.95 57.388)" fill="#3fdd6e"/><path d="M.05.1a.05.05,0,0,0,0-.1.05.05,0,0,0,0,.1" transform="translate(52.95 56.388)" fill="#3fdd6e"/><path d="M.05.1a.05.05,0,0,0,0-.1.05.05,0,0,0,0,.1" transform="translate(51.95 57.388)" fill="#3fdd6e"/><path d="M.05.1a.05.05,0,0,0,0-.1.05.05,0,0,0,0,.1" transform="translate(50.95 56.388)" fill="#3fdd6e"/><path d="M.05.1a.05.05,0,0,0,0-.1.05.05,0,0,0,0,.1" transform="translate(49.95 55.388)" fill="#3fdd6e"/><path d="M.05.1a.05.05,0,0,0,0-.1.05.05,0,0,0,0,.1" transform="translate(50.95 56.388)" fill="#3fdd6e"/><path d="M.05.1a.05.05,0,0,0,0-.1.05.05,0,0,0,0,.1" transform="translate(49.95 58.388)" fill="#3fdd6e"/><path d="M.05.1a.05.05,0,0,0,0-.1.05.05,0,0,0,0,.1" transform="translate(47.95 56.388)" fill="#3fdd6e"/><path d="M.5,1a.5.5,0,0,0,0-1,.5.5,0,0,0,0,1" transform="translate(46 56.438)" fill="#3fdd6e"/><path d="M.05,1a2.525,2.525,0,0,0,0-1,2.525,2.525,0,0,0,0,1" transform="translate(45.95 56.438)" fill="#3fdd6e"/><path d="M.05,1a2.525,2.525,0,0,0,0-1,2.525,2.525,0,0,0,0,1" transform="translate(44.95 56.438)" fill="#3fdd6e"/><path d="M.05.1a.05.05,0,0,0,0-.1.05.05,0,0,0,0,.1" transform="translate(42.95 56.388)" fill="#3fdd6e"/><path d="M.05.1a.05.05,0,0,0,0-.1.05.05,0,0,0,0,.1" transform="translate(43.95 57.388)" fill="#3fdd6e"/><path d="M.05.1a.05.05,0,0,0,0-.1.05.05,0,0,0,0,.1" transform="translate(43.95 57.388)" fill="#3fdd6e"/><path d="M.05.1a.05.05,0,0,0,0-.1.05.05,0,0,0,0,.1" transform="translate(43.95 56.388)" fill="#3fdd6e"/><path d="M.05.1a.05.05,0,0,0,0-.1.05.05,0,0,0,0,.1" transform="translate(41.95 56.388)" fill="#3fdd6e"/><path d="M.05.1a.05.05,0,0,0,0-.1.05.05,0,0,0,0,.1" transform="translate(42.95 54.388)" fill="#3fdd6e"/><path d="M.053,0H.047A.033.033,0,0,0,.029,0a.035.035,0,0,0-.015.01A.038.038,0,0,0,0,.031.04.04,0,0,0,0,.05L0,.063A.051.051,0,0,0,.014.085L.023.093A.044.044,0,0,0,.047.1H.053A.033.033,0,0,0,.071.1.034.034,0,0,0,.086.085.038.038,0,0,0,.1.069.04.04,0,0,0,.1.05L.1.037A.051.051,0,0,0,.086.015L.077.007A.043.043,0,0,0,.053,0" transform="translate(41.95 55.388)" fill="#3fdd6e"/><path d="M.05.08a.03.03,0,0,0,0-.06.03.03,0,0,0,0,.06" transform="translate(44.95 64.388)" fill="#3fdd6e"/><path d="M.05.1a.05.05,0,0,0,0-.1.05.05,0,0,0,0,.1" transform="translate(42.95 62.388)" fill="#3fdd6e"/><path d="M.05.084a.034.034,0,0,0,0-.068.034.034,0,0,0,0,.068" transform="translate(40.95 60.388)" fill="#3fdd6e"/><path d="M.05.084a.034.034,0,0,0,0-.068.034.034,0,0,0,0,.068" transform="translate(41.95 60.388)" fill="#3fdd6e"/><path d="M.05.084a.034.034,0,0,0,0-.068.034.034,0,0,0,0,.068" transform="translate(41.95 59.388)" fill="#3fdd6e"/><path d="M.05.084a.034.034,0,0,0,0-.068.034.034,0,0,0,0,.068" transform="translate(40.95 59.388)" fill="#3fdd6e"/><path d="M.05.1A.047.047,0,0,0,.05,0,.047.047,0,0,0,.05.1" transform="translate(40.95 58.388)" fill="#3fdd6e"/><path d="M.05.1A.047.047,0,0,0,.05,0,.047.047,0,0,0,.05.1" transform="translate(40.95 57.388)" fill="#3fdd6e"/><path d="M.05.084a.034.034,0,0,0,0-.068.034.034,0,0,0,0,.068" transform="translate(40.95 59.388)" fill="#3fdd6e"/><path d="M.05.084a.034.034,0,0,0,0-.068.034.034,0,0,0,0,.068" transform="translate(38.95 57.388)" fill="#3fdd6e"/><path d="M.05.076a.026.026,0,0,0,0-.051.026.026,0,0,0,0,.051" transform="translate(40.95 59.388)" fill="#3fdd6e"/><path d="M.05.076a.026.026,0,0,0,0-.051.026.026,0,0,0,0,.051" transform="translate(41.95 60.388)" fill="#3fdd6e"/><path d="M.05.076a.026.026,0,0,0,0-.051.026.026,0,0,0,0,.051" transform="translate(42.95 61.388)" fill="#3fdd6e"/><path d="M.05.076a.026.026,0,0,0,0-.051.026.026,0,0,0,0,.051" transform="translate(43.95 63.388)" fill="#3fdd6e"/><path d="M.05.076a.026.026,0,0,0,0-.051.026.026,0,0,0,0,.051" transform="translate(44.95 63.388)" fill="#3fdd6e"/><path d="M.05.071a.021.021,0,0,0,0-.043.021.021,0,0,0,0,.043" transform="translate(41.95 61.388)" fill="#3fdd6e"/><path d="M.05.071a.021.021,0,0,0,0-.043.021.021,0,0,0,0,.043" transform="translate(41.95 61.388)" fill="#3fdd6e"/><path d="M.05.071a.021.021,0,0,0,0-.043.021.021,0,0,0,0,.043" transform="translate(40.95 60.388)" fill="#3fdd6e"/><path d="M.05.071a.021.021,0,0,0,0-.043.021.021,0,0,0,0,.043" transform="translate(40.95 60.388)" fill="#3fdd6e"/><path d="M.05.08a.03.03,0,0,0,0-.06.03.03,0,0,0,0,.06" transform="translate(39.95 59.388)" fill="#3fdd6e"/><path d="M.05.076a.026.026,0,0,0,0-.051.026.026,0,0,0,0,.051" transform="translate(39.95 58.388)" fill="#3fdd6e"/><path d="M.05.076a.026.026,0,0,0,0-.051.026.026,0,0,0,0,.051" transform="translate(39.95 58.388)" fill="#3fdd6e"/><path d="M.05.076a.026.026,0,0,0,0-.051.026.026,0,0,0,0,.051" transform="translate(38.95 58.388)" fill="#3fdd6e"/><path d="M.05.08a.03.03,0,0,1,0-.06.03.03,0,0,1,0,.06" transform="translate(28.95 63.388)" fill="#3fdd6e"/><path d="M.05.1a.05.05,0,0,1,0-.1.05.05,0,0,1,0,.1" transform="translate(30.95 62.388)" fill="#3fdd6e"/><path d="M.05.084a.034.034,0,0,1,0-.068.034.034,0,0,1,0,.068" transform="translate(32.95 60.388)" fill="#3fdd6e"/><path d="M.05.084a.034.034,0,0,1,0-.068.034.034,0,0,1,0,.068" transform="translate(31.95 60.388)" fill="#3fdd6e"/><path d="M.05.084a.034.034,0,0,1,0-.068.034.034,0,0,1,0,.068" transform="translate(31.95 59.388)" fill="#3fdd6e"/><path d="M.05.084a.034.034,0,0,1,0-.068.034.034,0,0,1,0,.068" transform="translate(32.95 59.388)" fill="#3fdd6e"/><path d="M.05.1A.047.047,0,0,1,.05,0,.047.047,0,0,1,.05.1" transform="translate(32.95 58.388)" fill="#3fdd6e"/><path d="M.05.1A.047.047,0,0,1,.05,0,.047.047,0,0,1,.05.1" transform="translate(33.95 57.388)" fill="#3fdd6e"/><path d="M.05.084a.034.034,0,0,1,0-.068.034.034,0,0,1,0,.068" transform="translate(33.95 59.388)" fill="#3fdd6e"/><path d="M.05.084a.034.034,0,0,1,0-.068.034.034,0,0,1,0,.068" transform="translate(34.95 57.388)" fill="#3fdd6e"/><path d="M.05.076a.026.026,0,0,1,0-.051.026.026,0,0,1,0,.051" transform="translate(32.95 59.388)" fill="#3fdd6e"/><path d="M.05.076a.026.026,0,0,1,0-.051.026.026,0,0,1,0,.051" transform="translate(32.95 59.388)" fill="#3fdd6e"/><path d="M.05.076a.026.026,0,0,1,0-.051.026.026,0,0,1,0,.051" transform="translate(31.95 61.388)" fill="#3fdd6e"/><path d="M.05.076a.026.026,0,0,1,0-.051.026.026,0,0,1,0,.051" transform="translate(29.95 63.388)" fill="#3fdd6e"/><path d="M.05.076a.026.026,0,0,1,0-.051.026.026,0,0,1,0,.051" transform="translate(29.95 63.388)" fill="#3fdd6e"/><path d="M.05.071a.021.021,0,0,1,0-.043.021.021,0,0,1,0,.043" transform="translate(31.95 61.388)" fill="#3fdd6e"/><path d="M.05.071a.021.021,0,0,1,0-.043.021.021,0,0,1,0,.043" transform="translate(31.95 61.388)" fill="#3fdd6e"/><path d="M.05.071a.021.021,0,0,1,0-.043.021.021,0,0,1,0,.043" transform="translate(32.95 60.388)" fill="#3fdd6e"/><path d="M.05.071a.021.021,0,0,1,0-.043.021.021,0,0,1,0,.043" transform="translate(32.95 60.388)" fill="#3fdd6e"/><path d="M.05.08a.03.03,0,0,1,0-.06.03.03,0,0,1,0,.06" transform="translate(33.95 59.388)" fill="#3fdd6e"/><path d="M.05.076a.026.026,0,0,1,0-.051.026.026,0,0,1,0,.051" transform="translate(34.95 58.388)" fill="#3fdd6e"/><path d="M.05.076a.026.026,0,0,1,0-.051.026.026,0,0,1,0,.051" transform="translate(33.95 58.388)" fill="#3fdd6e"/><path d="M.05.076a.026.026,0,0,1,0-.051.026.026,0,0,1,0,.051" transform="translate(34.95 58.388)" fill="#3fdd6e"/><path d="M.05,1a2.525,2.525,0,0,0,0-1,2.525,2.525,0,0,0,0,1" transform="translate(13.95 56.438)" fill="#3fdd6e"/><path d="M.05,1a2.525,2.525,0,0,0,0-1,2.525,2.525,0,0,0,0,1" transform="translate(9.95 55.438)" fill="#3fdd6e"/><path d="M.05,1a2.525,2.525,0,0,0,0-1,2.525,2.525,0,0,0,0,1" transform="translate(18.95 54.438)" fill="#3fdd6e"/><path d="M.05,1a2.525,2.525,0,0,0,0-1,2.525,2.525,0,0,0,0,1" transform="translate(16.95 56.438)" fill="#3fdd6e"/><path d="M.5,1a.5.5,0,0,0,0-1,.5.5,0,0,0,0,1" transform="translate(14 54.438)" fill="#3fdd6e"/><path d="M.5,1a.5.5,0,0,0,0-1,.5.5,0,0,0,0,1" transform="translate(20 57.438)" fill="#3fdd6e"/><path d="M.5,1a.5.5,0,0,0,0-1,.5.5,0,0,0,0,1" transform="translate(25 57.438)" fill="#3fdd6e"/><path d="M.5,1a.5.5,0,0,0,0-1,.5.5,0,0,0,0,1" transform="translate(18 56.438)" fill="#3fdd6e"/><path d="M.5,1a.5.5,0,0,0,0-1,.5.5,0,0,0,0,1" transform="translate(21 54.438)" fill="#3fdd6e"/><path d="M.5,1a.5.5,0,0,0,0-1,.5.5,0,0,0,0,1" transform="translate(23 52.438)" fill="#3fdd6e"/><path d="M.5,1a.5.5,0,0,0,0-1,.5.5,0,0,0,0,1" transform="translate(24 53.438)" fill="#3fdd6e"/><path d="M.5,1a.5.5,0,0,0,0-1,.5.5,0,0,0,0,1" transform="translate(25 52.438)" fill="#3fdd6e"/><path d="M.5,1a.5.5,0,0,0,0-1,.5.5,0,0,0,0,1" transform="translate(27 55.438)" fill="#3fdd6e"/><path d="M.05.1a.05.05,0,0,0,0-.1.05.05,0,0,0,0,.1" transform="translate(26.95 57.388)" fill="#3fdd6e"/><path d="M.05.1a.05.05,0,0,0,0-.1.05.05,0,0,0,0,.1" transform="translate(26.95 57.388)" fill="#3fdd6e"/><path d="M.05.1a.05.05,0,0,0,0-.1.05.05,0,0,0,0,.1" transform="translate(25.95 56.388)" fill="#3fdd6e"/><path d="M.05.1a.05.05,0,0,0,0-.1.05.05,0,0,0,0,.1" transform="translate(24.95 56.388)" fill="#3fdd6e"/><path d="M.05.1a.05.05,0,0,0,0-.1.05.05,0,0,0,0,.1" transform="translate(22.95 58.388)" fill="#3fdd6e"/><path d="M.05.1a.05.05,0,0,0,0-.1.05.05,0,0,0,0,.1" transform="translate(21.95 58.388)" fill="#3fdd6e"/><path d="M.05.1a.05.05,0,0,0,0-.1.05.05,0,0,0,0,.1" transform="translate(20.95 57.388)" fill="#3fdd6e"/><path d="M.05.1a.05.05,0,0,0,0-.1.05.05,0,0,0,0,.1" transform="translate(18.95 57.388)" fill="#3fdd6e"/><path d="M.05.1a.05.05,0,0,0,0-.1.05.05,0,0,0,0,.1" transform="translate(17.95 57.388)" fill="#3fdd6e"/><path d="M.05,1a2.525,2.525,0,0,0,0-1,2.525,2.525,0,0,0,0,1" transform="translate(15.95 57.438)" fill="#3fdd6e"/><path d="M.05.1a.05.05,0,0,0,0-.1.05.05,0,0,0,0,.1" transform="translate(14.95 57.388)" fill="#3fdd6e"/><path d="M.05.1a.05.05,0,0,0,0-.1.05.05,0,0,0,0,.1" transform="translate(13.95 57.388)" fill="#3fdd6e"/><path d="M.05.1a.05.05,0,0,0,0-.1.05.05,0,0,0,0,.1" transform="translate(14.95 57.388)" fill="#3fdd6e"/><path d="M.05.1a.05.05,0,0,0,0-.1.05.05,0,0,0,0,.1" transform="translate(14.95 56.388)" fill="#3fdd6e"/><path d="M.05.1a.05.05,0,0,0,0-.1.05.05,0,0,0,0,.1" transform="translate(8.95 56.388)" fill="#3fdd6e"/><path d="M.05.1a.05.05,0,0,0,0-.1.05.05,0,0,0,0,.1" transform="translate(10.95 56.388)" fill="#3fdd6e"/><path d="M.05.1a.05.05,0,0,0,0-.1.05.05,0,0,0,0,.1" transform="translate(10.95 56.388)" fill="#3fdd6e"/><path d="M.05.1a.05.05,0,0,0,0-.1.05.05,0,0,0,0,.1" transform="translate(19.95 56.388)" fill="#3fdd6e"/><path d="M.05.1a.05.05,0,0,0,0-.1.05.05,0,0,0,0,.1" transform="translate(19.95 57.388)" fill="#3fdd6e"/><path d="M.05.1a.05.05,0,0,0,0-.1.05.05,0,0,0,0,.1" transform="translate(20.95 57.388)" fill="#3fdd6e"/><path d="M.05.1a.05.05,0,0,0,0-.1.05.05,0,0,0,0,.1" transform="translate(21.95 57.388)" fill="#3fdd6e"/><path d="M.05.1a.05.05,0,0,0,0-.1.05.05,0,0,0,0,.1" transform="translate(21.95 57.388)" fill="#3fdd6e"/><path d="M.05.1a.05.05,0,0,0,0-.1.05.05,0,0,0,0,.1" transform="translate(22.95 55.388)" fill="#3fdd6e"/><path d="M.05.1a.05.05,0,0,0,0-.1.05.05,0,0,0,0,.1" transform="translate(22.95 56.388)" fill="#3fdd6e"/><path d="M.05.1a.05.05,0,0,0,0-.1.05.05,0,0,0,0,.1" transform="translate(23.95 55.388)" fill="#3fdd6e"/><path d="M.05.1a.05.05,0,0,0,0-.1.05.05,0,0,0,0,.1" transform="translate(23.95 56.388)" fill="#3fdd6e"/><path d="M.05.1a.05.05,0,0,0,0-.1.05.05,0,0,0,0,.1" transform="translate(26.95 56.388)" fill="#3fdd6e"/><path d="M.5,1a.5.5,0,0,0,0-1,.5.5,0,0,0,0,1" transform="translate(27 56.438)" fill="#3fdd6e"/><path d="M.05,1a2.525,2.525,0,0,0,0-1,2.525,2.525,0,0,0,0,1" transform="translate(28.95 57.438)" fill="#3fdd6e"/><path d="M.05,1a2.525,2.525,0,0,0,0-1,2.525,2.525,0,0,0,0,1" transform="translate(28.95 56.438)" fill="#3fdd6e"/><path d="M.05.1a.05.05,0,0,0,0-.1.05.05,0,0,0,0,.1" transform="translate(30.95 56.388)" fill="#3fdd6e"/><path d="M.05.1a.05.05,0,0,0,0-.1.05.05,0,0,0,0,.1" transform="translate(29.95 57.388)" fill="#3fdd6e"/><path d="M.05.1a.05.05,0,0,0,0-.1.05.05,0,0,0,0,.1" transform="translate(29.95 56.388)" fill="#3fdd6e"/><path d="M.05.1a.05.05,0,0,0,0-.1.05.05,0,0,0,0,.1" transform="translate(31.95 56.388)" fill="#3fdd6e"/><path d="M.05.1a.05.05,0,0,0,0-.1.05.05,0,0,0,0,.1" transform="translate(30.95 54.388)" fill="#3fdd6e"/><path d="M.047.1H.053A.032.032,0,0,0,.071.1.034.034,0,0,0,.086.085.038.038,0,0,0,.1.069.04.04,0,0,0,.1.05L.1.037A.052.052,0,0,0,.086.015L.077.007A.043.043,0,0,0,.053,0H.047A.033.033,0,0,0,.029,0a.034.034,0,0,0-.015.01A.038.038,0,0,0,0,.031.04.04,0,0,0,0,.05L0,.063A.051.051,0,0,0,.014.085L.023.093A.043.043,0,0,0,.047.1" transform="translate(31.95 55.388)" fill="#3fdd6e"/></g></g></svg>