<svg xmlns="http://www.w3.org/2000/svg" xmlns:xlink="http://www.w3.org/1999/xlink" width="15" height="16" viewBox="0 0 15 16"><defs><clipPath id="a"><path d="M0,0H15V16H0Z" fill="none"/></clipPath></defs><path d="M0,0H15V16H0Z" fill="none"/><g clip-path="url(#a)"><path d="M6.665,16c-.3-.042-.6-.068-.891-.127A7.783,7.783,0,0,1,.082,11.464a.779.779,0,0,1,.354-1.048.752.752,0,0,1,1.023.373,6.424,6.424,0,0,0,1.706,2.2,6.105,6.105,0,0,0,4.49,1.423A6.357,6.357,0,0,0,13.339,9.3,6.454,6.454,0,0,0,8.428,1.693,6.283,6.283,0,0,0,1.5,5.132a.79.79,0,0,1-.909.513A.786.786,0,0,1,.088,4.524,7.846,7.846,0,0,1,2.069,1.912,7.666,7.666,0,0,1,6.548.026.856.856,0,0,0,6.665,0h.981c.044.009.089.02.133.027.4.063.8.1,1.192.193a7.923,7.923,0,0,1,5.91,6.4c.048.292.08.586.119.879v1c-.009.04-.02.08-.026.121-.053.37-.087.744-.161,1.11a7.919,7.919,0,0,1-6.291,6.146c-.291.048-.584.082-.876.123Z" transform="translate(0)" fill="#3fdd6e"/></g><path d="M5.509,4.334H5.287q-2.214,0-4.428,0A.835.835,0,1,1,.871,2.664q2.206,0,4.411,0H5.49c-.051-.059-.079-.1-.112-.129Q4.855,2,4.331,1.469A.847.847,0,0,1,4.292.245.82.82,0,0,1,5.5.283q1,1.009,1.99,2.024a1.642,1.642,0,0,1-.013,2.4c-.666.68-1.331,1.361-2,2.035A.831.831,0,1,1,4.31,5.553c.386-.4.776-.789,1.2-1.218" transform="translate(3 4)" fill="#3fdd6e"/></svg>