<svg xmlns="http://www.w3.org/2000/svg" xmlns:xlink="http://www.w3.org/1999/xlink" width="8" height="11" viewBox="0 0 8 11"><defs><clipPath id="a"><path d="M0,0H8V11H0Z" fill="none"/></clipPath></defs><path d="M0,0H8V11H0Z" fill="none"/><g clip-path="url(#a)"><path d="M4.134,11H3.978a.577.577,0,0,1-.273-.254l-.371-.579C2.459,8.8,1.552,7.385.654,5.995A3.814,3.814,0,0,1,.023,3.468,3.734,3.734,0,0,1,.987,1.329,3.975,3.975,0,0,1,2.666.224,4.02,4.02,0,0,1,4.624.05,3.917,3.917,0,0,1,7.3,1.694a3.667,3.667,0,0,1,.64,2.821,3.81,3.81,0,0,1-.544,1.4c-1.155,1.863-2.108,3.4-3,4.843A.551.551,0,0,1,4.134,11ZM4,.642H4A3.538,3.538,0,0,0,3.384.7a3.281,3.281,0,0,0-2.7,2.793,3.13,3.13,0,0,0,.5,2.112L3.228,8.776l.022.035L3.988,9.96c.019.03.039.059.061.091l.015-.018a.182.182,0,0,0,.018-.025L4.906,8.68C5.55,7.643,6.215,6.571,6.864,5.514a3.023,3.023,0,0,0,.318-2.605A3.305,3.305,0,0,0,4,.643Z" transform="translate(0 0)" fill="#3fdd6e"/></g><path d="M2,4H2A2,2,0,0,1,2,0h.007A2,2,0,0,1,2,4ZM2,.664a1.336,1.336,0,0,0-.008,2.671H2A1.336,1.336,0,0,0,2,.664H2Z" transform="translate(2 2)" fill="#3fdd6e"/></svg>