<svg xmlns="http://www.w3.org/2000/svg" xmlns:xlink="http://www.w3.org/1999/xlink" width="15" height="15" viewBox="0 0 15 15"><defs><clipPath id="a"><path d="M0,0H4V4H0Z" fill="none"/></clipPath></defs><path d="M7.5,13.5a6,6,0,0,0,5.927-5.1c.066-.432.054-.875.077-1.313a.746.746,0,0,1,.5-.674.715.715,0,0,1,.818.244.88.88,0,0,1,.162.433A7.5,7.5,0,1,1,4.9.462a7.724,7.724,0,0,1,3-.457.741.741,0,0,1,.718.741.754.754,0,0,1-.729.751,12.689,12.689,0,0,0-1.624.139A5.986,5.986,0,0,0,6.008,13.3c.485.122.99.163,1.486.241L7.5,13.5" fill="#3fdd6e"/><path d="M.752,7A.706.706,0,0,1,.02,6.133C.213,5.32.419,4.509.632,3.7a.827.827,0,0,1,.211-.349q1.545-1.56,3.1-3.108A.7.7,0,0,1,5.005.239q.88.872,1.752,1.752a.7.7,0,0,1,0,1.062q-1.549,1.555-3.107,3.1a.959.959,0,0,1-.41.233c-.775.206-1.555.395-2.333.588A1.4,1.4,0,0,1,.752,7" transform="translate(5 3)" fill="#3fdd6e"/><g transform="translate(11)"><path d="M0,0H4V4H0Z" fill="none"/><g clip-path="url(#a)"><path d="M4,1.839A1.924,1.924,0,0,1,3.495,3.2c-.191.206-.391.405-.6.6a.664.664,0,0,1-.948,0Q1.069,2.934.2,2.055a.646.646,0,0,1-.04-.9A6.072,6.072,0,0,1,.941.408,1.8,1.8,0,0,1,2.951.222,1.81,1.81,0,0,1,4,1.839" transform="translate(0 0)" fill="#3fdd6e"/></g></g></svg>