<svg class="icon-arrow-right" width="17px" height="18px" viewBox="0 0 17 18" version="1.1"
    xmlns="http://www.w3.org/2000/svg" xmlns:xlink="http://www.w3.org/1999/xlink">
    <g stroke="none" stroke-width="1" fill="none" fill-rule="evenodd">
        <path
            d="M7.55398122,18 C7.21702691,17.9531719 6.87669241,17.9237344 6.54367395,17.8568438 C3.59846085,17.2652813 1.44481488,15.6118594 0.0933396307,12.8968594 C-0.129012243,12.4502344 0.0620381175,11.928 0.494841733,11.7177656 C0.928941861,11.5069219 1.42856217,11.6788594 1.65452575,12.1378125 C2.12858625,13.1005781 2.75744105,13.9390312 3.58832028,14.6116875 C5.07639236,15.816375 6.77366598,16.36425 8.67694616,16.2126094 C11.8485396,15.9598594 14.4766165,13.6086094 15.1175103,10.4648438 C15.9139857,6.55804687 13.3992147,2.69001563 9.55204571,1.90439063 C6.35762442,1.25203125 3.17343631,2.82178125 1.7046267,5.77298437 C1.47143968,6.2415 1.09498805,6.45220312 0.673945658,6.34996875 C0.123205719,6.21628125 -0.153275546,5.617125 0.0992202404,5.08917188 C0.643662833,3.95057812 1.39045396,2.967375 2.34505751,2.151375 C3.81224649,0.897234375 5.50354689,0.18496875 7.42057936,0.029390625 C7.46554055,0.025734375 7.50952937,0.010078125 7.55398122,0 L8.66527755,0 C8.71565631,0.01021875 8.76571095,0.0223125 8.81646015,0.030328125 C9.26704451,0.101484375 9.72401882,0.144234375 10.1674261,0.24703125 C13.5925339,1.041375 16.2847882,3.94101562 16.8653479,7.44848437 C16.9196625,7.7765625 16.9555481,8.10778125 16.9999902,8.4375 L16.9999902,9.5625 C16.9901372,9.60778125 16.9774962,9.65264063 16.9708748,9.69839063 C16.9104943,10.1148281 16.8723398,10.5358125 16.7882517,10.9472344 C16.0748921,14.4362344 13.1291697,17.2896563 9.65854494,17.8613906 C9.32876776,17.9157187 8.99644385,17.9541563 8.66527755,18 L7.55398122,18 Z"
            id="Fill-1" fill="#3E9E6C" mask="url(#mask-2)"></path>
        <path
            d="M10.1971154,9.95363574 C10.0789459,9.95363574 10.0131425,9.95363574 9.94738856,9.95363574 C8.28703862,9.95363574 6.62668869,9.95537119 4.96633876,9.95271697 C4.32445931,9.95169612 3.88320115,9.3877769 4.02740542,8.7633211 C4.12764196,8.32945856 4.50028083,8.04525307 4.97957848,8.04484473 C6.63375317,8.04351762 8.28792786,8.0443343 9.94210255,8.0443343 C10.0082023,8.0443343 10.0743021,8.0443343 10.1762184,8.0443343 C10.1189615,7.97680487 10.0868996,7.93449052 10.050441,7.89671895 C9.65814017,7.4903684 9.26430788,7.08554913 8.87259987,6.67863711 C8.46621948,6.25651438 8.44853358,5.6721781 8.82794051,5.28042574 C9.2039387,4.89224637 9.77754467,4.90740604 10.182937,5.323812 C10.9314259,6.09266746 11.6801617,6.8613698 12.4216849,7.6373202 C13.1997655,8.45150154 13.1906262,9.56663035 12.4068643,10.3789231 C11.657338,11.1557412 10.9098866,11.9348052 10.1537405,12.7046816 C9.64406062,13.2236322 8.82596443,13.0304868 8.60686681,12.3454944 C8.48484401,11.9640016 8.57742325,11.6280389 8.84824471,11.3459772 C9.28283361,10.893382 9.72102885,10.444615 10.1971154,9.95363574"
            id="Fill-4" fill="#3E9E6C"></path>
    </g>
</svg>