<?xml version="1.0" encoding="UTF-8"?>
<svg width="38px" height="33px" viewBox="0 0 38 33" version="1.1" xmlns="http://www.w3.org/2000/svg" xmlns:xlink="http://www.w3.org/1999/xlink">
    <title>Group 7</title>
    <defs>
        <polygon id="path-1" points="0 0 23 0 23 25 0 25"></polygon>
        <polygon id="path-3" points="0.533686975 32.2740289 37.533687 32.2740289 37.533687 0.274028901 0.533686975 0.274028901"></polygon>
    </defs>
    <g id="Page-1" stroke="none" stroke-width="1" fill="none" fill-rule="evenodd">
        <g id="Strain" transform="translate(-244.000000, -920.000000)">
            <g id="Group-7" transform="translate(244.466313, 920.725971)">
                <g id="Group-3" transform="translate(0.533687, 0.274029)">
                    <mask id="mask-2" fill="white">
                        <use xlink:href="#path-1"></use>
                    </mask>
                    <g id="Clip-2"></g>
                    <path d="M22.1861517,4.18603247 C19.5377531,5.85018661 17.587489,8.14888293 16.30455,11.0548341 C16.236277,11.2094623 16.173139,11.3664763 16.1076143,11.5224464 C16.0571328,11.4351419 16.057856,11.3633449 16.0569881,11.2915479 C16.0103398,7.52462942 15.2980298,3.89742798 13.9110902,0.410987399 C13.8232177,0.190004786 13.7182046,0.0019011662 13.4586371,-6.75286822e-05 C13.1992865,-0.00197572173 13.0908742,0.181207233 13.0020615,0.403979178 C11.6127352,3.88967421 10.900136,7.51665198 10.8526197,11.2836451 C10.8516795,11.3606609 10.8463276,11.4376768 10.8430731,11.5146927 C10.8286808,11.5152145 10.8142885,11.515811 10.7999685,11.5164074 C10.761131,11.4251515 10.7222935,11.3338209 10.683456,11.2425649 C9.40015542,8.22448225 7.39926524,5.85369072 4.66154759,4.14659259 C4.4901419,4.03967995 4.31953177,3.96907585 4.12888815,4.08523338 C3.93072292,4.20601335 3.88964342,4.39799386 3.91256983,4.61681436 C3.94453663,4.92234295 3.97151314,5.22839343 4.00673448,5.53354925 C4.40530694,8.98450139 5.58077386,12.1309687 7.49711836,14.9866695 C7.55049279,15.0662202 7.60082965,15.1478585 7.65254065,15.2285276 C7.53819787,15.2171206 7.45235038,15.1751459 7.36896187,15.1283995 C5.24671358,13.9387914 2.98018076,13.2342416 0.579343986,12.9796344 C0.355721041,12.9558512 0.163341663,12.9958875 0.0496497905,13.2208961 C-0.053048975,13.4242091 0.016091884,13.5944194 0.142512618,13.7602309 C2.13805088,16.3780995 4.58307705,18.4102597 7.52908516,19.7911028 C7.59583936,19.8223416 7.65818185,19.8637945 7.76312263,19.9236626 C7.67315273,19.9464766 7.63916088,19.9553487 7.60502439,19.9636989 C5.93060057,20.3713686 4.47437547,21.1905848 3.23634909,22.4223914 C3.09069042,22.5673274 2.99240336,22.729262 3.0611826,22.9431618 C3.12829842,23.1519919 3.28711989,23.2363888 3.49280671,23.2690441 C3.98366341,23.3471037 4.47386921,23.4306805 4.96168835,23.5265589 C6.68254358,23.8648174 8.35971567,23.7309156 9.98944382,23.0513419 C10.0318251,23.0335977 10.0816557,23.0347906 10.155353,23.022638 C9.89824443,23.625345 9.72770662,24.2342401 9.63368662,24.8531256 C9.9172654,24.9170942 10.2063407,24.9527318 10.4928124,25 C10.5748991,24.3911795 10.7455816,23.8276142 11.0003758,23.2902179 C11.170118,22.9322767 11.3810844,22.59372 11.5899535,22.2572509 C11.7258485,22.0383558 11.7845749,21.828482 11.6015975,21.6206212 C11.4293239,21.4249129 11.2247943,21.4434027 11.0091992,21.5595602 C10.1595477,22.0171075 9.29695039,22.4383463 8.3482163,22.6429267 C7.22323088,22.885605 6.10366969,22.8498929 4.98324062,22.6210074 C4.82420218,22.5885757 4.6640789,22.5617357 4.44175777,22.5207302 C4.56615345,22.4210494 4.65106074,22.3491779 4.73965651,22.2824507 C6.02686259,21.313676 7.47100973,20.7811258 9.05387254,20.6337295 C9.2158039,20.6185947 9.37686739,20.593395 9.53887107,20.5791549 C9.77522288,20.5582793 9.93744353,20.4365301 9.97331578,20.1945974 C10.0117193,19.934995 9.86779641,19.784542 9.64222074,19.6859795 C8.72068013,19.2833796 7.77816583,18.9220835 6.88765182,18.4558132 C4.9004307,17.4153906 3.18818192,15.9945858 1.70411244,14.2815232 C1.65594527,14.2259048 1.60922456,14.1690189 1.5635887,14.1112384 C1.55331883,14.0981911 1.55049823,14.0789558 1.52308778,14.0073079 C1.82785722,14.0667287 2.10420368,14.1147425 2.37801884,14.1748342 C4.76229363,14.6985123 6.93632524,15.7067268 8.90416377,17.1888909 C9.13769498,17.3647674 9.37151548,17.5402712 9.60605921,17.7146566 C9.90497047,17.9369066 10.128955,17.9438403 10.3048448,17.7382907 C10.4745147,17.5401221 10.4424756,17.3234637 10.2208777,17.0420911 C9.54877933,16.1890266 8.83552917,15.3656353 8.22005981,14.4709688 C6.40569085,11.8334176 5.32026615,8.89033775 4.89283678,5.68855021 C4.88061418,5.59707056 4.8790954,5.50402525 4.86817461,5.34827874 C5.65049331,5.88455672 6.32483365,6.46922124 6.94847552,7.11740708 C8.76559276,9.0061225 9.96282893,11.2397318 10.6049132,13.7820757 C10.9718805,13.5397702 11.4578192,13.7178088 11.6792725,14.0739606 C11.687228,14.0867841 11.6925799,14.096029 11.6969916,14.1037828 C11.7001015,14.1069141 11.7027775,14.1093745 11.7065383,14.1131768 C11.7108776,14.1175756 11.7152893,14.1216761 11.7196287,14.1260003 C11.7226663,13.4195121 11.7238958,12.7129493 11.717676,12.006461 C11.6875173,8.57392405 12.2104854,5.23741465 13.3380745,2.00461201 C13.367293,1.92096069 13.4013572,1.83909871 13.4954495,1.7487374 C13.6789331,2.32631915 13.8755796,2.89980034 14.0435138,3.48200453 C14.8161412,6.16011398 15.1951141,8.89779331 15.1914256,11.6918366 C15.1901961,12.6610586 15.190847,13.6303551 15.1914979,14.5996517 C15.1917149,14.9776482 15.3184249,15.1734311 15.5784264,15.202806 C15.8251927,15.2306152 15.9974662,15.0756142 16.0778172,14.7260979 C16.3867814,13.3832035 16.7577264,12.0631977 17.3687841,10.8261723 C18.4306314,8.67658703 19.9058052,6.8955298 21.8192568,5.50313059 C21.8765366,5.46145404 21.9358416,5.42275972 22.0681928,5.33180196 C22.0591524,5.38965706 22.0504736,5.44639382 22.0419395,5.50283236 C22.2718546,5.24501932 22.6348441,5.20050966 22.9315856,5.31398319 C22.9534995,5.11283235 22.9736777,4.91108507 22.9904566,4.70799578 C23.0102731,4.46792695 23.0212663,4.23397168 22.7885306,4.08791738 C22.5644737,3.94738019 22.3765784,4.06637083 22.1861517,4.18603247 Z" id="Fill-1" fill="#3FDD6E" mask="url(#mask-2)"></path>
                </g>
                <mask id="mask-4" fill="white">
                    <use xlink:href="#path-3"></use>
                </mask>
                <g id="Clip-5"></g>
                <path d="M22.9437182,31.1678831 L24.1086349,31.1678831 L24.1086349,29.1146956 L22.9437182,29.1146956 L22.9437182,31.1678831 Z M23.6977495,4.2740289 C23.8311141,4.41774765 23.9899995,4.54513307 24.0939786,4.70766432 C25.0669057,6.22885182 25.7338016,7.89106015 26.3167703,9.59031015 C26.4319057,9.92594557 26.2937286,10.2296435 26.0015516,10.3307789 C25.6923849,10.4378206 25.4216453,10.2779143 25.2777807,9.93053932 C24.7769161,8.72136223 24.2698536,7.51466432 23.7614786,6.30862265 C23.7059891,6.17708098 23.6267286,6.0555289 23.5274161,5.87192473 C23.3303224,6.25466432 23.1462078,6.58322682 22.9879786,6.92389348 C21.6662182,9.77019557 20.7812286,12.743081 20.4908016,15.8733206 C20.3412495,17.4847789 20.3663328,19.0988622 20.8586661,20.6648935 C20.9860516,21.0700185 21.177312,21.4569872 21.3605516,21.8420602 C21.5353328,22.2092685 21.4917286,22.512456 21.206187,22.6786331 C20.9110932,22.8504247 20.6071036,22.7353622 20.3989995,22.3696852 C19.7593016,21.2456018 19.4864474,20.0161539 19.3891036,18.7434664 C19.3689786,18.4803831 19.2797286,18.3147893 19.0805932,18.1539352 C16.6925724,16.2260914 13.9948016,14.9124977 11.0516661,14.0810289 C11.026437,14.0738831 10.9987286,14.0754143 10.9444786,14.0702372 C10.9642391,14.1467268 10.9751766,14.2137372 10.998437,14.2761539 C12.0945932,17.2196539 13.4864995,20.0011331 15.4752286,22.4565289 C16.111062,23.2415497 16.8389891,23.9227372 17.6934266,24.4657477 C17.8765932,24.5821956 18.0543641,24.7336435 18.0134578,24.9644247 C17.9831974,25.1349039 17.888187,25.3233206 17.7627703,25.440206 C17.5960099,25.5954456 17.3679995,25.5699977 17.1799474,25.436706 C16.7490828,25.131331 16.3274057,24.8129768 15.8952286,24.5095706 C15.8071453,24.4478102 15.6857391,24.3872893 15.5856974,24.3958206 C14.2793224,24.5073102 12.9740411,24.6310497 11.6686141,24.7528206 C11.6265411,24.7567581 11.585562,24.7721435 11.4484786,24.8052477 C12.0772391,25.2256852 12.6274682,25.6275289 13.2094891,25.9762893 C14.6886766,26.8625914 16.2673953,27.5019247 17.9693432,27.8229039 C18.2092391,27.8681852 18.3852599,27.8444143 18.5371453,27.6351435 C18.6484161,27.4818727 18.7962182,27.3541956 18.9332286,27.2206852 C19.2415203,26.9203414 19.5514891,26.8912477 19.795687,27.1347164 C20.0416349,27.3799352 20.0097703,27.6934768 19.7049057,27.9947685 C18.9666974,28.724081 18.3593016,29.5499352 17.8763745,30.4678831 C17.8341557,30.5481643 17.7949995,30.6300497 17.7349161,30.7500706 C17.8328432,30.7244768 17.8991245,30.712956 17.9612495,30.6900602 C18.9114995,30.3402789 19.8516141,29.9579039 20.6756453,29.3631227 C21.1057078,29.0527893 21.4769266,28.6563414 21.8520828,28.2764456 C22.0098745,28.1166122 22.1614682,28.0067268 22.3896245,28.0075289 C23.1551766,28.0103727 23.9210932,27.9977581 24.6861349,28.0178102 C24.8405724,28.0218935 25.0497703,28.1005706 25.1353016,28.2170185 C25.6921661,28.9758622 26.4475828,29.4761435 27.2671661,29.8857893 C27.9148849,30.2095393 28.5866661,30.4850914 29.2477286,30.782081 C29.2647182,30.7615914 29.2817078,30.7411747 29.2986974,30.7207581 C29.2593224,30.6363206 29.2236661,30.5499872 29.180062,30.4678102 C28.6899161,29.5442477 28.0864578,28.706581 27.3398641,27.9692477 C27.2127703,27.8437581 27.1071141,27.620706 27.1156453,27.4489143 C27.1370099,27.0162268 27.6579266,26.8251852 28.0001974,27.1098518 C28.1954682,27.2723102 28.3797286,27.4543831 28.5388328,27.6519143 C28.6851766,27.8335497 28.8402703,27.8694977 29.0602599,27.8283727 C30.5593536,27.5476435 31.974812,27.0302997 33.2997078,26.2844352 C33.9802391,25.9012581 34.6189891,25.4437789 35.2743641,25.0164872 C35.3625932,24.958956 35.4379891,24.8817372 35.5747078,24.7672581 C35.1503328,24.7429768 34.797562,24.7347372 34.4473432,24.7003206 C33.4776974,24.6049456 32.5097286,24.4929456 31.5396453,24.4036227 C31.4143016,24.3921018 31.2606661,24.4471539 31.1536974,24.5204352 C30.7255307,24.8136331 30.3155203,25.133081 29.8891036,25.4289039 C29.6302495,25.6084977 29.3101453,25.5484872 29.1347807,25.3138414 C28.9581036,25.0774456 29.0018536,24.7661643 29.2413849,24.5566747 C29.2619474,24.5386643 29.2829474,24.5206539 29.306062,24.5062893 C30.9907286,23.4617581 32.1067182,21.8971122 33.147312,20.2720914 C34.3498536,18.3941227 35.2819474,16.3806747 36.0554474,14.2921227 C36.079437,14.2273727 36.0941661,14.1592685 36.1324474,14.0254664 C35.5060203,14.2291227 34.924437,14.3990185 34.3563432,14.6061747 C32.0120724,15.460831 29.8370411,16.6206435 27.9045307,18.2145289 C27.7597182,18.3339664 27.6940932,18.4561018 27.6791453,18.6465602 C27.5898224,19.787706 27.3750099,20.9010706 26.8784474,21.9442893 C26.8120203,22.0838518 26.7404891,22.2213727 26.6649474,22.3561956 C26.4562599,22.7285081 26.1600724,22.8491122 25.863812,22.686581 C25.5658016,22.5231018 25.5248953,22.2116018 25.7011349,21.8330914 C25.9077078,21.3891018 26.1188745,20.9401539 26.2560307,20.4723206 C26.5945828,19.3173206 26.6884266,18.1274664 26.624187,16.9289352 C26.585687,16.2110706 26.5048224,15.4953206 26.437812,14.7791331 C26.4006974,14.3823935 26.5732911,14.1035602 26.8947078,14.061706 C27.2420828,14.0165706 27.4856974,14.2322581 27.5292286,14.6452581 C27.5959474,15.2791227 27.6515099,15.9141539 27.7110099,16.5487477 C27.7218016,16.6636643 27.7291661,16.7789456 27.7410516,16.9322893 C27.8472182,16.8577685 27.9201349,16.8084768 27.9911557,16.7565602 C30.428687,14.9715602 33.1115828,13.7046331 36.0364891,12.9500914 C36.2565516,12.8932893 36.4830307,12.8611331 36.7025828,12.8026539 C37.0657078,12.7060393 37.3441766,12.8031643 37.533687,13.1334039 L37.533687,13.4615289 C37.2969995,14.0895602 37.068187,14.7206539 36.8223849,15.3451122 C35.7063953,18.1799664 34.3104057,20.8571747 32.3665203,23.2243414 C32.3340724,23.2638622 32.3105203,23.3107477 32.2718745,23.3714143 C32.3237911,23.3877477 32.3553641,23.4047372 32.3878849,23.4067789 C33.8498641,23.4990914 35.3112599,23.6038727 36.7744057,23.6710289 C37.1183536,23.6868518 37.3726141,23.7612268 37.533687,24.0709039 L37.533687,24.3443414 C37.4162911,24.4920706 37.3117286,24.6524872 37.1795307,24.7854872 C35.6110203,26.364206 33.7328328,27.4537997 31.6634578,28.225331 C30.9704578,28.4837477 30.2511349,28.6714352 29.5264161,28.8968206 C29.5723536,28.9720706 29.6300307,29.0526435 29.6737078,29.1402164 C30.0587807,29.9120393 30.446187,30.6828414 30.8216349,31.459331 C30.9251766,31.6735602 30.8856557,31.8900497 30.7141557,32.0643935 C30.5508224,32.2303518 30.3519057,32.256456 30.133812,32.1895185 C28.8447182,31.7935081 27.5796141,31.3371227 26.4043432,30.6650497 C26.0136557,30.4416331 25.6399578,30.1884664 25.1767182,29.8975289 C25.1767182,30.4794039 25.1633016,31.0047685 25.1815307,31.5290393 C25.1931974,31.8640185 25.0817078,32.109456 24.7914995,32.2740289 L22.2758745,32.2740289 C22.0810411,32.1503622 21.8972911,32.0185289 21.8906557,31.7550081 C21.8881766,31.6548935 21.8848224,31.5547789 21.880812,31.4546643 C21.860687,30.9511018 21.8401974,30.4475393 21.8182495,29.9059143 C21.6324578,30.0366539 21.4872078,30.143331 21.3376557,30.2435185 C20.0164057,31.1292372 18.5440724,31.6759664 17.0419891,32.1560497 C16.7880932,32.237206 16.540687,32.2776747 16.3339682,32.0541122 C16.1200307,31.8226747 16.1651661,31.5663727 16.2897807,31.3177997 C16.668437,30.5626747 17.0546036,29.8113414 17.4376349,29.058331 C17.4689891,28.9966435 17.4986661,28.9340081 17.5348328,28.8602893 C17.4258224,28.8310497 17.3397807,28.8055289 17.2526453,28.7849664 C14.7464995,28.1946331 12.5038016,27.0754352 10.5439474,25.4063727 C10.1740411,25.0912997 9.86873906,24.7003206 9.53368697,24.3443414 L9.53368697,24.0709039 C9.66070781,23.8317372 9.83133281,23.6812372 10.1290516,23.6743831 C11.1113849,23.651706 12.093937,23.6242164 13.0749578,23.571206 C13.6416661,23.540581 14.2055307,23.4573831 14.8047599,23.3943102 C14.7537911,23.3157789 14.7335932,23.2767685 14.7062495,23.2436643 C12.9345932,21.0988935 11.6203432,18.6854977 10.5543745,16.1304247 C10.1878224,15.2517789 9.87238489,14.3517685 9.53368697,13.4615289 L9.53368697,13.1334039 C9.78379114,12.7514664 9.92802031,12.7043622 10.4954578,12.8320393 C13.6396974,13.5394039 16.4936557,14.8801956 19.0932078,16.7755185 C19.1561349,16.8213831 19.221687,16.8636747 19.3123224,16.9257268 C19.3211453,16.8397581 19.3290932,16.7887893 19.3312078,16.7376018 C19.4005516,15.0657685 19.6685932,13.4237581 20.0909266,11.8072685 C20.746812,9.29682057 21.6065724,6.8670914 22.9965099,4.65494557 C23.0888953,4.50787265 23.2437703,4.40010182 23.3696245,4.2740289 L23.6977495,4.2740289 Z" id="Fill-4" fill="#3FDD6E" mask="url(#mask-4)"></path>
                <path d="M26.5335962,11.7817852 C26.5286209,12.0580415 26.3056069,12.2769603 26.0322349,12.2739992 C25.7600059,12.2710381 25.5353784,12.0454568 25.5336975,11.7733057 C25.5318822,11.4899831 25.7647123,11.2664208 26.0533463,11.2742273 C26.3331055,11.2818992 26.5386387,11.4991356 26.5335962,11.7817852" id="Fill-6" fill="#3FDD6E" mask="url(#mask-4)"></path>
            </g>
        </g>
    </g>
</svg>