<?xml version="1.0" encoding="UTF-8"?>
<svg width="30px" height="29px" viewBox="0 0 30 29" version="1.1" xmlns="http://www.w3.org/2000/svg" xmlns:xlink="http://www.w3.org/1999/xlink">
    <title>Group 15</title>
    <defs>
        <polygon id="path-1" points="3.34197123e-16 0 28 0 28 28 3.34197123e-16 28"></polygon>
        <polygon id="path-3" points="0.698072702 28.3607573 28.6980727 28.3607573 28.6980727 0.360757299 0.698072702 0.360757299"></polygon>
    </defs>
    <g id="Page-1" stroke="none" stroke-width="1" fill="none" fill-rule="evenodd">
        <g id="Strain" transform="translate(-249.000000, -837.000000)">
            <g id="Group-15" transform="translate(249.301927, 837.639243)">
                <path d="M22.6924255,21.3613045 C22.1489398,21.3640679 21.6999806,21.8145282 21.6987277,22.3581815 C21.6974799,22.9012513 22.1451888,23.3548793 22.6877575,23.3602141 C23.2423296,23.3656323 23.7044592,22.9020016 23.6974572,22.3472618 C23.6905386,21.8049422 23.2355777,21.3585663 22.6924255,21.3613045 M22.6882577,20.3607711 C23.7938176,20.3567005 24.6970708,21.254537 24.6980727,22.358515 C24.6990713,23.4617427 23.7959015,24.3633303 22.6920921,24.3607518 C21.6031201,24.3581622 20.7052018,23.4654104 20.6981165,22.3780205 C20.6908644,21.272292 21.5861154,20.3648695 22.6882577,20.3607711" id="Fill-1" fill="#3FDD6E"></path>
                <g id="Group-5" transform="translate(0.698073, 0.360757)">
                    <mask id="mask-2" fill="white">
                        <use xlink:href="#path-1"></use>
                    </mask>
                    <g id="Clip-4"></g>
                    <path d="M18.0654119,22.5456623 C18.0589555,25.0298987 20.073067,27.0659089 22.5488649,27.0777711 C25.0479164,27.0896779 27.0910761,25.0705166 27.0977148,22.5821432 C27.1043209,20.0977563 25.0896074,18.0619717 22.613659,18.0510198 C20.1124251,18.040008 18.0718993,20.0564615 18.0654119,22.5456623 M5.06551323,5.39587883 C5.07687666,5.55300996 5.078457,5.64680724 5.09117501,5.73917537 C5.53592912,8.96942735 6.66527343,11.9386717 8.55325838,14.5996712 C9.19367419,15.5022913 9.93575883,16.3330028 10.6350989,17.1936511 C10.865754,17.47745 10.8990917,17.6961097 10.7225446,17.8960401 C10.5394504,18.1034171 10.3063873,18.0964218 9.9953604,17.8721959 C9.75131005,17.6962601 9.50801224,17.5191961 9.26509071,17.3417561 C7.21749096,15.8464153 4.95526538,14.8291623 2.47435021,14.3009039 C2.18943667,14.2402779 1.90196447,14.1918373 1.58476674,14.1318883 C1.6132882,14.2041731 1.61622313,14.2235794 1.62690927,14.2366674 C1.67439486,14.2949616 1.72308452,14.3524285 1.77312876,14.4084661 C3.3174264,16.1368333 5.09907673,17.5702694 7.16676943,18.6199415 C8.09345337,19.090357 9.07417004,19.4547899 10.0329876,19.8610442 C10.2677817,19.9604829 10.4175382,20.1122735 10.3775028,20.3741838 C10.3402518,20.6182673 10.1714559,20.7410989 9.92544896,20.7620848 C9.75687888,20.7765267 9.5892871,20.8019505 9.42079227,20.8172199 C7.77377224,20.9658513 6.27109035,21.5032112 4.93178598,22.4805984 C4.83959921,22.5479188 4.75117517,22.6204293 4.62173743,22.7209963 C4.85314502,22.7623663 5.01975849,22.7893697 5.18524314,22.8221649 C6.35101063,23.0530853 7.51602557,23.0890396 8.68660935,22.8442791 C9.67379791,22.63788 10.5712831,22.2128963 11.455373,21.7512061 C11.6797819,21.6340911 11.8926016,21.6153617 12.0718579,21.8128099 C12.2622518,22.0225939 12.2010699,22.2342583 12.0596666,22.4551746 C11.8424069,22.7945598 11.6228895,23.1362015 11.4462672,23.4973248 C11.1065684,24.1919663 10.908348,24.92873 10.8670333,25.7513179 C10.9877415,25.6759491 11.0737574,25.6257032 11.1563116,25.5702673 C12.1759348,24.8854042 12.9749119,24.0014382 13.5418793,22.9119756 C13.665372,22.6746618 13.8438004,22.5213668 14.1022243,22.6144119 C14.2495726,22.667516 14.3962437,22.8138909 14.4733795,22.9560536 C15.0549463,24.0274637 15.8476773,24.9017266 16.8587967,25.5802713 C16.9382655,25.6336011 17.0209702,25.6820418 17.1272296,25.7484596 C17.1272296,25.6591002 17.1301645,25.6220927 17.1268533,25.5855366 C17.0233783,24.4456025 16.6278407,23.4133812 15.9667299,22.4829302 C15.8098995,22.2622395 15.7259907,22.0463629 15.9234585,21.8198804 C16.1213026,21.5929467 16.3522587,21.6437191 16.588031,21.7717407 C16.7735334,21.8724581 16.9672385,21.958207 17.1629002,22.0533582 C17.184423,21.9970196 17.2002264,21.9722728 17.2029356,21.946172 C17.4837854,19.2291349 19.9438551,16.9356522 23.0113038,17.1594268 C23.1039421,17.1661964 23.218931,17.1327995 23.2938092,17.0777397 C24.3966639,16.2673372 25.4010858,15.3483946 26.303613,14.3192572 C26.3415413,14.2760818 26.3681061,14.2229025 26.416269,14.1493389 C26.3149012,14.1582147 26.2490535,14.1589669 26.1850872,14.1703248 C23.9586075,14.5653716 21.8703703,15.3328996 19.9523588,16.5330084 C19.2520404,16.9711553 18.5909296,17.4718086 17.9091991,17.9400428 C17.6710938,18.1035675 17.4335906,18.0848381 17.2763087,17.8931066 C17.1071366,17.6868578 17.1294119,17.4770739 17.2945203,17.2785726 C17.4328381,17.1122649 17.5728115,16.9472358 17.7176764,16.7867199 C20.2808447,13.945422 21.98265,10.6686851 22.7147258,6.90363062 C22.8081167,6.42306059 22.8727603,5.93692441 22.9626894,5.37925557 C22.8248984,5.47094674 22.7631897,5.51006028 22.7035881,5.55210734 C20.7125798,6.95688521 19.177689,8.75377634 18.0727271,10.9224718 C17.4369771,12.1704946 17.0509215,13.5022355 16.7295095,14.8570684 C16.6458265,15.209692 16.4665703,15.3660709 16.2098772,15.3379393 C15.939262,15.3083784 15.8074161,15.1108551 15.8071903,14.729498 C15.8065883,13.7515843 15.8058358,12.7736705 15.8071903,11.7957568 C15.8109531,8.97687396 15.4166195,6.21493142 14.6127509,3.51301313 C14.4379347,2.92555783 14.2333177,2.34697829 14.0424723,1.76433696 C13.9444909,1.8555016 13.909046,1.93809135 13.8787185,2.02248633 C12.7053503,5.28402914 12.161185,8.65020067 12.1926413,12.1132534 C12.2009193,13.0252759 12.1965546,13.9374488 12.1917383,14.8494713 C12.1902332,15.1295092 12.0245228,15.3234973 11.7828806,15.336134 C11.5190383,15.349899 11.3605523,15.2084885 11.29335,14.9601175 C11.2516591,14.8060703 11.2122257,14.651271 11.1776086,14.495569 C10.5529963,11.6845841 9.26478969,9.23126242 7.23005847,7.18073502 C6.58121415,6.5267867 5.87954117,5.93692441 5.06551323,5.39587883 M24.351135,17.4200584 C26.7415942,18.4580716 28.0771359,20.2118626 27.9759938,22.8172757 C27.8882471,25.0763084 26.7101378,26.7437487 24.6038396,27.5643057 C21.9889714,28.5829126 19.8164492,27.7685235 18.0651264,25.6117878 C18.0651264,25.9289084 18.0608369,26.2242156 18.0666315,26.5192972 C18.0707705,26.7311873 18.0211025,26.9109591 17.8228822,27.0204771 C17.6203723,27.1322515 17.4468354,27.0567323 17.2713419,26.9432278 C16.2662428,26.2934165 15.2774739,25.6247254 14.5287669,24.6664436 C14.5204136,24.6557626 14.4973857,24.65659 14.4608873,24.6462851 L14.4608873,27.9590516 L13.5558014,27.9590516 L13.5558014,24.5829513 C13.4551109,24.6940488 13.3994225,24.7500864 13.3497546,24.8110133 C12.6002197,25.7304824 11.6239431,26.3706657 10.6374318,26.9943011 C10.2871221,27.2157439 9.94930464,26.9900888 9.93568358,26.5534463 C9.90016345,25.4104283 10.0910089,24.3090812 10.5669936,23.2273662 C10.490234,23.2395515 10.4384589,23.2384233 10.3943598,23.25625 C8.69849956,23.9419405 6.95342292,24.0770326 5.1628173,23.735767 C4.65522568,23.6390362 4.14507541,23.5547164 3.63439836,23.4759628 C3.4202993,23.4430172 3.25511567,23.35787 3.18527949,23.1471834 C3.11363721,22.931382 3.21590808,22.7680077 3.36747064,22.6217833 C4.65575246,21.3790257 6.17092661,20.5524513 7.91329409,20.1412326 C7.94881422,20.1328081 7.98418383,20.1238571 8.07772518,20.1008403 C7.96853089,20.04044 7.90373677,19.9986186 7.83427686,19.9670269 C4.76878472,18.573983 2.22465578,16.5237565 0.148233556,13.8826147 C0.0167639411,13.715329 -0.0551793628,13.5436056 0.0516820301,13.3384851 C0.169982107,13.1114761 0.370159083,13.0710839 0.602770748,13.0950033 C3.1009192,13.3519492 5.45932003,14.0627626 7.66758814,15.2629466 C7.75435658,15.3100332 7.84375893,15.3524564 7.9627363,15.3639648 C7.90885407,15.2825786 7.8565522,15.2002145 7.80101437,15.1199565 C5.80699583,12.2388681 4.58388441,9.06442812 4.16915685,5.58279642 C4.13243266,5.27492772 4.10443798,4.96608118 4.07110024,4.65791161 C4.04731981,4.43707054 4.09006437,4.24345851 4.29626171,4.12160479 C4.49463257,4.0044146 4.67215794,4.07564637 4.85051111,4.18350949 C7.69919503,5.90578401 9.78111083,8.29765228 11.116502,11.342491 C11.1569136,11.4346335 11.19725,11.5267008 11.2376617,11.6188432 C11.2526374,11.6182415 11.267613,11.6176397 11.2825887,11.6171132 C11.2859751,11.5394127 11.2914687,11.4617121 11.2925222,11.3840116 C11.3418892,7.58352927 12.0833718,3.92423184 13.529086,0.40762361 C13.6214233,0.182871185 13.7343051,-0.0019402972 14.0040925,-5.79653106e-15 C14.2741809,0.00197105692 14.3834504,0.19174695 14.4749599,0.414694135 C15.9181155,3.93212977 16.6592218,7.59157764 16.7078362,11.3919847 C16.7087393,11.46442 16.7079115,11.5368552 16.7605144,11.6249359 C16.8286949,11.4675791 16.8943169,11.3091693 16.9653571,11.1531664 C18.3002967,8.22138087 20.3296849,5.90224875 23.0854295,4.22329999 C23.2835746,4.10257454 23.4790858,3.98245084 23.712149,4.12431265 C23.954318,4.27159017 23.9428793,4.50770057 23.9222596,4.74990365 C23.5955798,8.58927381 22.3315299,12.0882057 20.1126509,15.2411332 C20.0860108,15.2789681 20.0632839,15.319586 19.9993176,15.4219582 C20.1279276,15.3618587 20.1985163,15.3333509 20.264966,15.2970957 C22.4875325,14.0843503 24.8601564,13.3569888 27.3777205,13.0956803 C27.6085261,13.0716856 27.8136699,13.0984634 27.9395706,13.319831 C28.067428,13.5447338 27.9741877,13.7285675 27.8292475,13.9105959 C26.8533472,15.1358276 25.7754769,16.2602666 24.5524408,17.2424678 C24.4877219,17.2944437 24.4276688,17.3522866 24.351135,17.4200584" id="Fill-3" fill="#3FDD6E" mask="url(#mask-2)"></path>
                </g>
                <mask id="mask-4" fill="white">
                    <use xlink:href="#path-3"></use>
                </mask>
                <g id="Clip-7"></g>
                <polygon id="Fill-6" fill="#3FDD6E" mask="url(#mask-4)" points="21.6980727 20.3607573 22.6980727 20.3607573 22.6980727 18.3607573 21.6980727 18.3607573"></polygon>
                <polygon id="Fill-8" fill="#3FDD6E" mask="url(#mask-4)" points="18.6980727 23.3607573 20.6980727 23.3607573 20.6980727 22.3607573 18.6980727 22.3607573"></polygon>
                <polygon id="Fill-9" fill="#3FDD6E" mask="url(#mask-4)" points="24.6980727 23.3607573 26.6980727 23.3607573 26.6980727 22.3607573 24.6980727 22.3607573"></polygon>
                <polygon id="Fill-10" fill="#3FDD6E" mask="url(#mask-4)" points="21.6980727 26.3607573 22.6980727 26.3607573 22.6980727 24.3607573 21.6980727 24.3607573"></polygon>
                <path d="M19.6980727,20.1387636 C19.9404486,19.8951225 20.2210777,19.6130573 20.4720606,19.3607573 C20.879775,19.7775773 21.2853642,20.1922326 21.6980727,20.6142479 C21.4569719,20.8386229 21.1601915,21.1148432 20.8959263,21.3607573 C20.5431476,21.0009781 20.1368146,20.5863228 19.6980727,20.1387636" id="Fill-11" fill="#3FDD6E" mask="url(#mask-4)"></path>
                <path d="M25.6980727,20.2000524 C25.3102843,20.5640511 24.8952865,20.9535403 24.4614597,21.3607573 C24.2093918,21.0764816 23.9411071,20.7739536 23.6980727,20.4998531 C24.0458089,20.1664848 24.4636365,19.7658764 24.8861441,19.3607573 C25.1200361,19.602549 25.4010549,19.8930137 25.6980727,20.2000524" id="Fill-12" fill="#3FDD6E" mask="url(#mask-4)"></path>
                <path d="M20.493119,25.3607573 C20.236735,25.1040601 19.960393,24.8272582 19.6980727,24.5646539 C20.1045002,24.1594515 20.5001811,23.7649233 20.9056875,23.3607573 C21.158694,23.6165218 21.4332961,23.8942564 21.6980727,24.1619387 C21.2910311,24.5669338 20.8944291,24.9615656 20.493119,25.3607573" id="Fill-13" fill="#3FDD6E" mask="url(#mask-4)"></path>
                <path d="M24.8568975,25.3607573 C24.4957515,24.9845411 24.1038653,24.576433 23.6980727,24.1536222 C23.9789175,23.8871357 24.2704274,23.610487 24.5336018,23.3607573 C24.8900426,23.7312438 25.2890388,24.1460546 25.6980727,24.5712438 C25.4570648,24.7974059 25.1637774,25.0727573 24.8568975,25.3607573" id="Fill-14" fill="#3FDD6E" mask="url(#mask-4)"></path>
            </g>
        </g>
    </g>
</svg>