<?xml version="1.0" encoding="UTF-8"?>
<svg width="30px" height="29px" viewBox="0 0 30 29" version="1.1" xmlns="http://www.w3.org/2000/svg" xmlns:xlink="http://www.w3.org/1999/xlink">
    <title>Group 4</title>
    <g id="Page-1" stroke="none" stroke-width="1" fill="none" fill-rule="evenodd">
        <g id="Strain" transform="translate(-249.000000, -748.000000)" fill="#3FDD6E">
            <g id="Group-4" transform="translate(249.301927, 748.000000)">
                <path d="M14.1081769,26.8938542 L15.2730935,26.8938542 L15.2730935,24.8406667 L14.1081769,24.8406667 L14.1081769,26.8938542 Z M14.8621352,0 C14.9955727,0.14371875 15.1544581,0.271104167 15.2583644,0.433635417 C16.2312915,1.95482292 16.8981873,3.61703125 17.481229,5.31628125 C17.5963644,5.65191667 17.4581873,5.95561458 17.1659373,6.05675 C16.8567706,6.16379167 16.586104,6.00388542 16.4421665,5.65651042 C15.9413019,4.44733333 15.4342394,3.24063542 14.9258644,2.03459375 C14.8704477,1.90305208 14.7911144,1.7815 14.6918019,1.59789583 C14.494781,1.98063542 14.3105935,2.30919792 14.1524373,2.64986458 C12.8306769,5.49616667 11.9456144,8.46905208 11.6551873,11.5992917 C11.5057081,13.21075 11.5307185,14.8248333 12.0231248,16.3908646 C12.1505102,16.7959896 12.3416977,17.1829583 12.5250102,17.5680312 C12.6997915,17.9352396 12.6561873,18.2384271 12.3706456,18.4046042 C12.075479,18.5763958 11.7714894,18.4613333 11.5633852,18.0956563 C10.9237602,16.9715729 10.6508331,15.742125 10.5535623,14.4694375 C10.5334373,14.2063542 10.4441873,14.0407604 10.244979,13.8799062 C7.85695812,11.9520625 5.15918728,10.6384688 2.21605187,9.807 C2.1908227,9.79985417 2.16318728,9.80138542 2.10893728,9.79620833 C2.12862478,9.87269792 2.1396352,9.93970833 2.16289562,10.002125 C3.25897895,12.945625 4.65095812,15.7271042 6.63961437,18.1825 C7.2754477,18.9675208 8.00337478,19.6487083 8.85781228,20.1917187 C9.04105187,20.3081667 9.21874978,20.4596146 9.17784353,20.6903958 C9.14765603,20.860875 9.0525727,21.0492917 8.92715603,21.1661771 C8.76046853,21.3214167 8.53245812,21.2959688 8.34433312,21.1626771 C7.91346853,20.8573021 7.49186437,20.5389479 7.05961437,20.2355417 C6.97160395,20.1737813 6.8501977,20.1132604 6.75008312,20.1217917 C5.44378103,20.2332813 4.13849978,20.3570208 2.8330727,20.4787917 C2.79099978,20.4827292 2.7499477,20.4981146 2.61286437,20.5312188 C3.24162478,20.9516562 3.79185395,21.3535 4.37387478,21.7022604 C5.85306228,22.5885625 7.43185395,23.2278958 9.13380187,23.548875 C9.37362478,23.5941562 9.54964562,23.5703854 9.70153103,23.3611146 C9.81280187,23.2078438 9.96067687,23.0801667 10.0976873,22.9466563 C10.405906,22.6463125 10.7158748,22.6172187 10.9601456,22.8606875 C11.2060935,23.1059063 11.174229,23.4194479 10.8692915,23.7207396 C10.131156,24.4500521 9.52368728,25.2759063 9.04083312,26.1938542 C8.99854145,26.2741354 8.9593852,26.3560208 8.89937478,26.4760417 C8.99722895,26.4504479 9.0635102,26.4389271 9.1256352,26.4160312 C10.0758852,26.06625 11.0159998,25.683875 11.840031,25.0890937 C12.2700935,24.7787604 12.6413123,24.3823125 13.0164685,24.0024167 C13.1743331,23.8425833 13.3259269,23.7326979 13.5540102,23.7335 C14.3196352,23.7363437 15.085479,23.7237292 15.8505206,23.7437813 C16.0049581,23.7478646 16.214156,23.8265417 16.2996873,23.9429896 C16.8565519,24.7018333 17.6120415,25.2021146 18.4316248,25.6117604 C19.0792706,25.9355104 19.7510519,26.2110625 20.4121144,26.5080521 C20.4291769,26.4875625 20.4461665,26.4671458 20.463156,26.4467292 C20.423781,26.3622917 20.3880519,26.2759583 20.3444477,26.1937813 C19.8543748,25.2702188 19.2508435,24.4325521 18.5042498,23.6952188 C18.377229,23.5697292 18.2714998,23.3466771 18.280031,23.1748854 C18.3014685,22.7421979 18.8223123,22.5511563 19.1645831,22.8358229 C19.359854,22.9982812 19.5441873,23.1803542 19.7032915,23.3778854 C19.8495623,23.5595208 20.004656,23.5954688 20.2246456,23.5543438 C21.7238123,23.2736146 23.1392706,22.7562708 24.4641665,22.0104062 C25.1446248,21.6272292 25.7833748,21.16975 26.4388227,20.7424583 C26.5270519,20.6849271 26.6024477,20.6077083 26.7391665,20.4932292 C26.3147915,20.4689479 25.9619477,20.4607083 25.611729,20.4262917 C24.642156,20.3309167 23.6741873,20.2189167 22.704031,20.1295938 C22.5787602,20.1180729 22.4250519,20.173125 22.3180831,20.2464062 C21.8899894,20.5396042 21.479906,20.8590521 21.0535623,21.154875 C20.7946352,21.3344687 20.474604,21.2744583 20.2991665,21.0398125 C20.1225623,20.8034167 20.1662394,20.4921354 20.4058435,20.2826458 C20.4263331,20.2646354 20.447406,20.246625 20.4705206,20.2322604 C22.1551873,19.1877292 23.271104,17.6230833 24.3116977,15.9980625 C25.5142394,14.1200937 26.446406,12.1066458 27.219906,10.0180937 C27.2438227,9.95334375 27.2586248,9.88523958 27.296906,9.7514375 C26.670406,9.95509375 26.0888227,10.1249896 25.5208019,10.3321458 C23.176531,11.1868021 21.0014269,12.3466146 19.0689165,13.9405 C18.924104,14.0599375 18.858479,14.1820729 18.843604,14.3725313 C18.754281,15.5136771 18.5393956,16.6270417 18.0428331,17.6702604 C17.976406,17.8098229 17.9048748,17.9473438 17.8293331,18.0821667 C17.6207185,18.4544792 17.324531,18.5750833 17.0282706,18.4125521 C16.7301873,18.2490729 16.689281,17.9375729 16.8655206,17.5590625 C17.0721665,17.1150729 17.2832602,16.666125 17.4204165,16.1982917 C17.7590415,15.0432917 17.8528852,13.8534375 17.7886456,12.6549062 C17.7501456,11.9370417 17.669281,11.2212917 17.6021977,10.5051042 C17.5650831,10.1083646 17.7377498,9.82953125 18.0591665,9.78767708 C18.4065415,9.74254167 18.650156,9.95822917 18.6936144,10.3712292 C18.760406,11.0050938 18.8158956,11.640125 18.8754685,12.2747187 C18.8862602,12.3896354 18.8935519,12.5049167 18.9055102,12.6582604 C19.011604,12.5837396 19.0845935,12.5344479 19.1555415,12.4825312 C21.5931456,10.6975312 24.2759685,9.43060417 27.2008748,8.6760625 C27.4209373,8.61926042 27.6474165,8.58710417 27.8670415,8.528625 C28.2301665,8.43201042 28.5085623,8.52913542 28.6980727,8.859375 L28.6980727,9.1875 C28.4614581,9.81553125 28.2326456,10.446625 27.9868435,11.0710833 C26.870854,13.9059375 25.4747915,16.5831458 23.530979,18.9503125 C23.4984581,18.9898333 23.474979,19.0367187 23.4362602,19.0973854 C23.4882498,19.1137188 23.5198227,19.1307083 23.5523435,19.13275 C25.0143227,19.2250625 26.4757185,19.3298438 27.9388644,19.397 C28.2828123,19.4128229 28.5370727,19.4871979 28.6980727,19.796875 L28.6980727,20.0703125 C28.5806769,20.2180417 28.4761144,20.3784583 28.3439894,20.5114583 C26.775479,22.0901771 24.8972915,23.1797708 22.8278435,23.9513021 C22.1349165,24.2097188 21.4155935,24.3974063 20.6908019,24.6227917 C20.7368123,24.6980417 20.7944894,24.7786146 20.8381665,24.8661875 C21.2232394,25.6380104 21.6105727,26.4088125 21.9860206,27.1853021 C22.0895623,27.3995312 22.0501144,27.6160208 21.8785415,27.7903646 C21.715281,27.9563229 21.5163644,27.9824271 21.2981977,27.9154896 C20.009104,27.5194792 18.7440727,27.0630938 17.568729,26.3910208 C17.1780415,26.1676042 16.8043435,25.9144375 16.3411769,25.6235 C16.3411769,26.205375 16.3277602,26.7307396 16.3459894,27.2550104 C16.357656,27.5899896 16.2460935,27.8354271 15.9558852,28 L13.4402602,28 C13.2454269,27.8763333 13.0617498,27.7445 13.0551144,27.4809792 C13.0525623,27.3808646 13.049281,27.28075 13.0452706,27.1806354 C13.0250727,26.6770729 13.0045831,26.1735104 12.9826352,25.6318854 C12.7969165,25.762625 12.6515935,25.8693021 12.5020415,25.9694896 C11.1807915,26.8552083 9.70845812,27.4019375 8.2064477,27.8820208 C7.95247895,27.9631771 7.70514562,28.0036458 7.49842687,27.7800833 C7.28448937,27.5486458 7.32962478,27.2923438 7.45423937,27.0437708 C7.8328227,26.2886458 8.21906228,25.5373125 8.60202062,24.7843021 C8.6334477,24.7226146 8.66312478,24.6599792 8.69921853,24.5862604 C8.59020812,24.5570208 8.50423937,24.5315 8.41703103,24.5109375 C5.9108852,23.9206042 3.66818728,22.8014062 1.70840603,21.1323438 C1.33842687,20.8172708 1.0331977,20.4262917 0.698072702,20.0703125 C0.698072702,19.9791667 0.698072702,19.8880208 0.698072702,19.796875 C0.825166452,19.5577083 0.995718535,19.4072083 1.2935102,19.4003542 C2.27577062,19.3776771 3.25839562,19.3501875 4.23941645,19.2971771 C4.80612478,19.2665521 5.36998937,19.1833542 5.96914562,19.1202812 C5.91817687,19.04175 5.89797895,19.0027396 5.8706352,18.9696354 C4.09905187,16.8248646 2.78480187,14.4114688 1.7187602,11.8563958 C1.35220812,10.97775 1.03684353,10.0777396 0.698072702,9.1875 C0.698072702,9.078125 0.698072702,8.96875 0.698072702,8.859375 C0.948249785,8.4774375 1.09240603,8.43033333 1.65984353,8.55801042 C4.80415603,9.265375 7.65811437,10.6061667 10.2576665,12.5014896 C10.3205935,12.5473542 10.3860727,12.5896458 10.476781,12.6516979 C10.485531,12.5657292 10.493479,12.5147604 10.4955935,12.4635729 C10.5649373,10.7917396 10.8330519,9.14972917 11.2553852,7.53323958 C11.9112706,5.02279167 12.771031,2.5930625 14.1609685,0.380916667 C14.253354,0.23384375 14.408229,0.126072917 14.5340102,0 L14.8621352,0 Z" id="Fill-1"></path>
            </g>
        </g>
    </g>
</svg>