<?xml version="1.0" encoding="UTF-8"?>
<svg width="56px" height="55px" viewBox="0 0 56 55" version="1.1" xmlns="http://www.w3.org/2000/svg" xmlns:xlink="http://www.w3.org/1999/xlink">
    <title>leaf</title>
    <defs>
        <polygon id="path-1" points="0 0 28 0 28 28 0 28"></polygon>
        <polygon id="path-3" points="0 55 56 55 56 0 0 0"></polygon>
    </defs>
    <g id="Page-1" stroke="none" stroke-width="1" fill="none" fill-rule="evenodd">
        <g id="Greenwire-index" transform="translate(-677.000000, -2644.000000)">
            <g id="leaf" transform="translate(677.000000, 2644.000000)">
                <path d="M28.0001673,0 C28.0854944,0.633612734 28.5348837,3.09792328 29.4189393,4.7725671 C30.3920027,6.61534651 29.6217166,8.23394514 29.6217166,8.23394514 C29.6357705,8.22689754 29.6501589,8.21917874 29.6642128,8.21112434 C30.1805253,7.90841317 30.3920027,6.96437047 30.3920027,6.96437047 C31.020077,9.32967902 30.4120796,11.0231164 30.4120796,11.0231164 C31.1415426,10.4750817 31.3242429,9.82770937 31.3242429,9.82770937 C32.0744521,11.8446652 31.2573197,14.4593245 31.2573197,14.4593245 C31.7903631,14.1354705 32.1755061,13.388425 32.1755061,13.388425 C32.5201606,15.8537423 31.5875857,17.5471798 31.5875857,17.5471798 C32.1755061,17.2481602 32.5716915,16.7242886 32.5716915,16.7242886 C32.803915,18.7670856 31.9526518,21.3569106 31.9526518,21.3569106 C32.566003,21.1364214 32.8852267,20.4105187 32.8852267,20.4105187 C33.0010038,22.4449256 31.6755898,25.133417 31.6755898,25.133417 C32.3240756,24.8182886 33,24.1044675 33,24.1044675 C32.9053037,26.1962621 31.3513468,28.4702874 31.3513468,28.4702874 C32.1487368,28.4535074 32.8584574,27.9517855 32.8584574,27.9517855 C32.6824494,30.4707988 30.7165802,32.836443 30.7165802,32.836443 C31.3269199,32.7518718 31.9827673,32.1555106 31.9827673,32.1555106 C31.9827673,32.1555106 28.4057219,38.1650992 28.0001673,42 C27.4731471,38.1899336 23.7445207,32.1847078 23.7445207,32.1847078 C23.7445207,32.1847078 24.4525682,32.718983 25.2837544,32.836443 C25.2837544,32.836443 23.3178852,30.4707988 23.1418772,27.9517855 C23.1418772,27.9517855 23.8515978,28.4535074 24.6489878,28.4702874 C24.6489878,28.4702874 23.0946963,26.1962621 23,24.1044675 C23,24.1044675 23.6759244,24.8182886 24.3244102,25.133417 C24.3244102,25.133417 22.9993308,22.4449256 23.1151079,20.4105187 C23.1151079,20.4105187 23.4343316,21.1364214 24.0476828,21.3569106 C24.0476828,21.3569106 23.1964196,18.7670856 23.4286431,16.7242886 C23.4286431,16.7242886 23.8248285,17.2481602 24.4124143,17.5471798 C24.4124143,17.5471798 23.480174,15.8537423 23.8248285,13.388425 C23.8248285,13.388425 24.2096369,14.1354705 24.7426803,14.4593245 C24.7426803,14.4593245 23.9258825,11.8446652 24.6760917,9.82770937 C24.6760917,9.82770937 24.8584574,10.4750817 25.5879204,11.0231164 C25.5879204,11.0231164 24.9802577,9.32967902 25.6083319,6.96437047 C25.6083319,6.96437047 25.8194747,7.90841317 26.3357872,8.21112434 C26.3501757,8.21917874 26.3642295,8.22689754 26.3782834,8.23394514 C26.3782834,8.23394514 25.6692321,6.60292931 26.5813953,4.7725671 C27.7548938,2.41766215 27.9235402,0.66683713 28.0001673,0" id="Fill-1" fill="#3E9E6C"></path>
                <g id="Group-5" transform="translate(28.000000, 14.000000)">
                    <mask id="mask-2" fill="white">
                        <use xlink:href="#path-1"></use>
                    </mask>
                    <g id="Clip-4"></g>
                    <path d="M28.0000673,0 C27.6346823,0.479104083 26.2922455,2.42310927 25.7670466,4.13059047 C25.189025,6.00932446 23.5949234,6.57355026 23.5949234,6.57355026 C23.6093908,6.57826056 23.6238582,6.5826344 23.638662,6.58667179 C24.1857302,6.72999928 24.9565378,6.24214751 24.9565378,6.24214751 C23.7994852,8.23931172 22.2645989,8.96133234 22.2645989,8.96133234 C23.117164,9.08413641 23.6709612,8.77460287 23.6709612,8.77460287 C22.8278167,10.6203648 20.5386089,11.8174521 20.5386089,11.8174521 C21.1109108,11.958088 21.8665782,11.7175266 21.8665782,11.7175266 C20.4531505,13.5915503 18.7009173,14.0968975 18.7009173,14.0968975 C19.2930698,14.2906924 19.9070917,14.2062435 19.9070917,14.2062435 C18.7009173,15.7232943 16.4049804,16.8803441 16.4049804,16.8803441 C16.9621421,17.1437841 17.6592672,16.8732787 17.6592672,16.8732787 C16.3804196,18.30689 13.7019387,19.2132849 13.7019387,19.2132849 C14.3459046,19.4366874 15.273498,19.4127995 15.273498,19.4127995 C13.8159953,20.7437937 11.2603188,21.2212155 11.2603188,21.2212155 C11.8046954,21.7430487 12.6138584,21.8830117 12.6138584,21.8830117 C10.8168773,23.4448103 7.92508694,23.7072409 7.92508694,23.7072409 C8.38972481,24.059167 9.22580382,24.1002139 9.22580382,24.1002139 C9.22580382,24.1002139 2.82786481,25.7144986 0,28 C2.18726343,25.1075437 3.69826175,18.6113768 3.69826175,18.6113768 C3.69826175,18.6113768 3.81568291,19.4403884 4.29310589,20.0749321 C4.29310589,20.0749321 4.55520068,17.1831487 6.117003,15.3861719 C6.117003,15.3861719 6.25730277,16.195333 6.7791372,16.7397083 C6.7791372,16.7397083 7.25622373,14.1843743 8.58755759,12.7265387 C8.58755759,12.7265387 8.56333317,13.6541299 8.78707262,14.2984307 C8.78707262,14.2984307 9.69346974,11.6196198 11.126748,10.3411117 C11.126748,10.3411117 10.856242,11.0382351 11.1193461,11.595059 C11.1193461,11.595059 12.2767352,9.29946408 13.7941261,8.09295619 C13.7941261,8.09295619 13.7093406,8.70697652 13.903136,9.29912763 C13.903136,9.29912763 14.4084843,7.54689866 16.282849,6.13381077 C16.282849,6.13381077 16.0419505,6.88947634 16.1825868,7.46177693 C16.1825868,7.46177693 17.379677,5.17223811 19.2257798,4.32909567 C19.2257798,4.32909567 18.9159091,4.88289154 19.0387134,5.73579102 C19.0387134,5.73579102 19.7610722,4.20057196 21.7582412,3.04352215 C21.7582412,3.04352215 21.2700518,3.81432794 21.4133797,4.36105837 C21.4174171,4.3761986 21.4217909,4.39066593 21.4265012,4.40513326 C21.4265012,4.40513326 22.0395137,2.8433347 23.8694669,2.23301531 C26.2242826,1.44774218 27.504476,0.393309461 28.0000673,0" id="Fill-3" fill="#3E9E6C" mask="url(#mask-2)"></path>
                </g>
                <path d="M54,42 C53.6080302,42.0512132 52.0821475,42.3204853 51.0455606,42.8516212 C49.9046484,43.4349367 48.9027254,42.9730513 48.9027254,42.9730513 C48.9070584,42.9814258 48.912058,42.9901224 48.9170577,42.9984969 C49.1043766,43.308353 49.688665,43.4352588 49.688665,43.4352588 C48.224111,43.8117887 47.1761916,43.4474984 47.1761916,43.4474984 C47.5151655,43.8849044 47.9161347,43.994417 47.9161347,43.994417 C46.6672307,44.4443848 45.0486886,43.954155 45.0486886,43.954155 C45.2493398,44.2743182 45.7116376,44.5052609 45.7116376,44.5052609 C44.1857549,44.7120464 43.1371689,44.152566 43.1371689,44.152566 C43.322488,44.5052609 43.6467964,44.7429676 43.6467964,44.7429676 C42.3818937,44.882435 40.779017,44.3715912 40.779017,44.3715912 C40.9153398,44.7397466 41.3646386,44.9307494 41.3646386,44.9307494 C40.1057355,45.0006442 38.4408635,44.2050676 38.4408635,44.2050676 C38.6361818,44.5944814 39.0781478,45 39.0781478,45 C37.7832474,44.9433111 36.3753557,44.0108439 36.3753557,44.0108439 C36.3856883,44.4891561 36.6963311,44.9152888 36.6963311,44.9152888 C35.1371177,44.8093193 33.6725636,43.6298046 33.6725636,43.6298046 C33.724893,43.9960275 34.0941979,44.3896285 34.0941979,44.3896285 C34.0941979,44.3896285 30.3738174,42.2431823 28,42 C30.3581519,41.684024 34.075866,39.4470689 34.075866,39.4470689 C34.075866,39.4470689 33.7452247,39.8715912 33.6725636,40.3701954 C33.6725636,40.3701954 35.1371177,39.1906807 36.6963311,39.0850333 C36.6963311,39.0850333 36.3856883,39.5108439 36.3753557,39.9891561 C36.3753557,39.9891561 37.7832474,39.057011 39.0781478,39 C39.0781478,39 38.6361818,39.4058407 38.4408635,39.7949324 C38.4408635,39.7949324 40.1057355,38.9996779 41.3646386,39.0692506 C41.3646386,39.0692506 40.9153398,39.2605755 40.779017,39.6287309 C40.779017,39.6287309 42.3818937,39.117565 43.6467964,39.2576766 C43.6467964,39.2576766 43.3228213,39.4950612 43.1375022,39.847434 C43.1375022,39.847434 44.1857549,39.2882757 45.7116376,39.4950612 C45.7116376,39.4950612 45.2493398,39.7256818 45.0486886,40.045845 C45.0486886,40.045845 46.667564,39.5556152 47.9161347,40.005583 C47.9161347,40.005583 47.5151655,40.1150956 47.1761916,40.5528237 C47.1761916,40.5528237 48.2244443,40.1878892 49.688665,40.5647412 C49.688665,40.5647412 49.1043766,40.691647 48.9170577,41.0015031 C48.912058,41.0098776 48.9070584,41.0185742 48.9027254,41.0269487 C48.9027254,41.0269487 49.9126477,40.6014602 51.0455606,41.1487009 C52.5031151,41.8528022 53.5870318,41.9542624 54,42" id="Fill-6" fill="#3E9E6C"></path>
                <path d="M37,51 C36.8462156,50.8826901 36.2212202,50.4512395 35.6724597,50.282011 C35.0684947,50.0963526 34.887108,49.5840666 34.887108,49.5840666 C34.885465,49.588667 34.8841506,49.5932674 34.8828362,49.5981964 C34.8368323,49.7739969 34.9935741,50.0217606 34.9935741,50.0217606 C34.3514915,49.6497864 34.1195005,49.1565592 34.1195005,49.1565592 C34.0800686,49.4306108 34.1796342,49.6087115 34.1796342,49.6087115 C33.5861842,49.3376173 33.2013947,48.6015554 33.2013947,48.6015554 C33.1563766,48.7855708 33.2332688,49.0284056 33.2332688,49.0284056 C32.6312753,48.5742816 32.4689474,48.0107342 32.4689474,48.0107342 C32.4065136,48.2013217 32.4337873,48.3988097 32.4337873,48.3988097 C31.9461463,48.0107342 31.5741721,47.2730293 31.5741721,47.2730293 C31.4893936,47.4521158 31.5764723,47.6762204 31.5764723,47.6762204 C31.1154478,47.2654715 30.824309,46.4042134 30.824309,46.4042134 C30.7523458,46.6112308 30.7602322,46.9092701 30.7602322,46.9092701 C30.3323962,46.4410165 30.1789405,45.6195188 30.1789405,45.6195188 C30.0110263,45.7943335 29.9660083,46.0542554 29.9660083,46.0542554 C29.4642375,45.4765782 29.3797875,44.5473 29.3797875,44.5473 C29.2667494,44.6968126 29.2536055,44.965278 29.2536055,44.965278 C29.2536055,44.965278 28.7344189,42.908905 28,42 C28.9296068,42.703202 31.0175253,43.1885428 31.0175253,43.1885428 C31.0175253,43.1885428 30.7510314,43.2263317 30.5473,43.3797875 C30.5473,43.3797875 31.4769068,43.4642375 32.0542554,43.9663369 C32.0542554,43.9663369 31.7943335,44.0110263 31.6195188,44.1789405 C31.6195188,44.1789405 32.4406879,44.3323962 32.9092701,44.7602322 C32.9092701,44.7602322 32.6109022,44.7523458 32.4038848,44.824309 C32.4038848,44.824309 33.2651429,45.1157764 33.6762204,45.5764723 C33.6762204,45.5764723 33.4521158,45.4893936 33.2730293,45.5741721 C33.2730293,45.5741721 34.0107342,45.9458177 34.3984811,46.4337873 C34.3984811,46.4337873 34.2013217,46.4065136 34.0110628,46.4689474 C34.0110628,46.4689474 34.5742816,46.6312753 35.0284056,47.2335974 C35.0284056,47.2335974 34.7855708,47.1563766 34.6015554,47.2017233 C34.6015554,47.2017233 35.3376173,47.5861842 35.6087115,48.1799628 C35.6087115,48.1799628 35.4306108,48.0800686 35.1565592,48.1198291 C35.1565592,48.1198291 35.6497864,48.3514915 36.0217606,48.9935741 C36.0217606,48.9935741 35.7739969,48.8368323 35.5981964,48.8831648 C35.593596,48.8841506 35.588667,48.885465 35.5840666,48.887108 C35.5840666,48.887108 36.086166,49.0839388 36.282011,49.6724597 C36.5343751,50.4292234 36.8734894,50.8406294 37,51" id="Fill-8" fill="#3E9E6C"></path>
                <path d="M19,51 C19.1176342,50.845887 19.5487404,50.2208916 19.7179628,49.6724597 C19.9036145,49.0684947 20.4158817,48.887108 20.4158817,48.887108 C20.4112815,48.885465 20.4063527,48.8841506 20.4017525,48.8828362 C20.2256298,48.8368323 19.9782037,48.9935741 19.9782037,48.9935741 C20.3501643,48.3514915 20.8433735,48.1198291 20.8433735,48.1198291 C20.5690033,48.0800686 20.3912377,48.1796342 20.3912377,48.1796342 C20.662322,47.5861842 21.3983571,47.2013947 21.3983571,47.2013947 C21.2143483,47.1563766 20.9715225,47.2332688 20.9715225,47.2332688 C21.4256298,46.6312753 21.988828,46.4686188 21.988828,46.4686188 C21.7985761,46.4065136 21.6010953,46.4337873 21.6010953,46.4337873 C21.9891566,45.9458177 22.7268346,45.5738435 22.7268346,45.5738435 C22.5477547,45.4893936 22.3236583,45.5764723 22.3236583,45.5764723 C22.7343921,45.1154478 23.5956188,44.8239804 23.5956188,44.8239804 C23.388609,44.7523458 23.0902519,44.7602322 23.0902519,44.7602322 C23.5588171,44.3323962 24.3802848,44.1786119 24.3802848,44.1786119 C24.2054765,44.0110263 23.9452355,43.9660083 23.9452355,43.9660083 C24.5228916,43.4639089 25.4521358,43.3797875 25.4521358,43.3797875 C25.3032859,43.2664208 25.0341731,43.2532769 25.0341731,43.2532769 C25.0341731,43.2532769 27.0907996,42.7344189 28,42 C27.2968237,42.9296068 26.811172,45.0175253 26.811172,45.0175253 C26.811172,45.0175253 26.7733844,44.75136 26.6199343,44.5473 C26.6199343,44.5473 26.5354874,45.4765782 26.0334064,46.0542554 C26.0334064,46.0542554 25.9883899,45.7940049 25.8208105,45.6195188 C25.8208105,45.6195188 25.6673604,46.4406879 25.23954,46.9092701 C25.23954,46.9092701 25.2474261,46.6109022 25.1754655,46.4038848 C25.1754655,46.4038848 24.8840088,47.2648143 24.4233297,47.6758918 C24.4233297,47.6758918 24.5104053,47.4517872 24.4256298,47.2727007 C24.4256298,47.2727007 24.0536692,48.0107342 23.566046,48.3988097 C23.566046,48.3988097 23.5933187,48.2013217 23.5308872,48.0107342 C23.5308872,48.0107342 23.3685652,48.573953 22.7662651,49.0284056 C22.7662651,49.0284056 22.843483,48.7855708 22.798138,48.6015554 C22.798138,48.6015554 22.4136911,49.3372887 21.8202629,49.6083829 C21.8202629,49.6083829 21.9198248,49.4306108 21.8803943,49.1562306 C21.8803943,49.1562306 21.6480832,49.6497864 21.0063527,50.0217606 C21.0063527,50.0217606 21.1630887,49.7739969 21.1167579,49.5981964 C21.1157722,49.5932674 21.1144578,49.588667 21.1128149,49.5840666 C21.1128149,49.5840666 20.9156627,50.0858374 20.3274918,50.282011 C19.5707558,50.5343751 19.1593647,50.8734894 19,51" id="Fill-10" fill="#3E9E6C"></path>
                <path d="M2,42.0001611 C2.39196482,41.9492672 3.91816119,41.6793364 4.95440153,41.1488162 C6.09529914,40.5648253 7.09720922,41.0270575 7.09720922,41.0270575 C7.09287628,41.0183604 7.08787673,41.0099855 7.08287718,41.0016106 C6.89556065,40.6917378 6.31127976,40.5648253 6.31127976,40.5648253 C7.77548169,40.187953 8.82372095,40.552585 8.82372095,40.552585 C8.48475137,40.1151554 8.08378735,40.0053149 8.08378735,40.0053149 C9.33234197,39.555645 10.9511967,40.045579 10.9511967,40.045579 C10.750548,39.7257207 10.2882562,39.4944435 10.2882562,39.4944435 C11.8141192,39.2879691 12.8626918,39.8474795 12.8626918,39.8474795 C12.6773751,39.4944435 12.3530709,39.2570462 12.3530709,39.2570462 C13.6179574,39.1175713 15.2208135,39.6284426 15.2208135,39.6284426 C15.0844924,39.2602674 14.6351994,39.0689322 14.6351994,39.0689322 C15.8940864,38.9996779 17.558937,39.794975 17.558937,39.794975 C17.3636212,39.4055403 16.9216609,39 16.9216609,39 C18.2165447,39.0566919 19.6244183,39.9892092 19.6244183,39.9892092 C19.6144192,39.5108713 19.3034471,39.0847157 19.3034471,39.0847157 C20.8629738,39.1906909 22.3271758,40.370269 22.3271758,40.370269 C22.2748471,40.0040264 21.9058802,39.6104043 21.9058802,39.6104043 C21.9058802,39.6104043 25.6258797,41.7569657 28,42.0001611 C25.641545,42.3164761 21.9238786,44.5532292 21.9238786,44.5532292 C21.9238786,44.5532292 22.2545156,44.1286842 22.3271758,43.629731 C22.3271758,43.629731 20.8626405,44.8096312 19.3034471,44.9152843 C19.3034471,44.9152843 19.6144192,44.4891287 19.6244183,44.0111129 C19.6244183,44.0111129 18.2165447,44.9433081 16.9216609,45 C16.9216609,45 17.3636212,44.5944597 17.558937,44.2053471 C17.558937,44.2053471 15.8940864,45.0006442 14.6355327,44.9310678 C14.6355327,44.9310678 15.0844924,44.7397326 15.2208135,44.3718795 C15.2208135,44.3718795 13.6179574,44.8824287 12.3530709,44.7429538 C12.3530709,44.7429538 12.6773751,44.5052343 12.8623585,44.1528426 C12.8623585,44.1528426 11.8141192,44.712353 10.2882562,44.5052343 C10.2882562,44.5052343 10.750548,44.2742793 10.9511967,43.954421 C10.9511967,43.954421 9.33234197,44.4446771 8.08378735,43.9946851 C8.08378735,43.9946851 8.48475137,43.8851667 8.82372095,43.447415 C8.82372095,43.447415 7.77548169,43.812047 6.31127976,43.4351747 C6.31127976,43.4351747 6.89556065,43.3085843 7.08287718,42.9987115 C7.08787673,42.9903366 7.09287628,42.9816396 7.09720922,42.9729425 C7.09720922,42.9729425 6.08763316,43.398776 4.95440153,42.8515059 C3.49686567,42.1473667 2.41296294,42.0462232 2,42.0001611" id="Fill-12" fill="#3E9E6C"></path>
                <path d="M0,14 C0.365384153,14.4791041 1.70781764,16.4231093 2.23301531,18.1305905 C2.81103554,20.0093245 4.40513326,20.5735503 4.40513326,20.5735503 C4.39066593,20.5782606 4.3761986,20.5826344 4.36139482,20.5866718 C3.81399149,20.7299993 3.04352215,20.2421475 3.04352215,20.2421475 C4.20057196,22.2393117 5.73579102,22.9613323 5.73579102,22.9613323 C4.88289154,23.0841364 4.32909567,22.7746029 4.32909567,22.7746029 C5.17223811,24.6203648 7.46144048,25.8174521 7.46144048,25.8174521 C6.88913989,25.958088 6.13381077,25.7175266 6.13381077,25.7175266 C7.54689866,27.5915503 9.29946408,28.0968975 9.29946408,28.0968975 C8.70697652,28.2906924 8.09295619,28.2062435 8.09295619,28.2062435 C9.29946408,29.7232943 11.595059,30.8803441 11.595059,30.8803441 C11.0382351,31.1437841 10.3407753,30.8732787 10.3407753,30.8732787 C11.6196198,32.30689 14.2980943,33.2132849 14.2980943,33.2132849 C13.6541299,33.4366874 12.7265387,33.4127995 12.7265387,33.4127995 C14.1840379,34.7437937 16.7393718,35.2212155 16.7393718,35.2212155 C16.195333,35.7430487 15.3861719,35.8830117 15.3861719,35.8830117 C17.1831487,37.4448103 20.0749321,37.7072409 20.0749321,37.7072409 C19.6102954,38.059167 18.7742184,38.1002139 18.7742184,38.1002139 C18.7742184,38.1002139 25.1724784,39.7144986 28,42 C25.8124054,39.1075437 24.3017471,32.6113768 24.3017471,32.6113768 C24.3017471,32.6113768 24.1843263,33.4403884 23.7072409,34.0749321 C23.7072409,34.0749321 23.4448103,31.1831487 21.8830117,29.3861719 C21.8830117,29.3861719 21.7430487,30.195333 21.2212155,30.7397083 C21.2212155,30.7397083 20.7437937,28.1843743 19.4127995,26.7265387 C19.4127995,26.7265387 19.4366874,27.6541299 19.2132849,28.2984307 C19.2132849,28.2984307 18.30689,25.6196198 16.8732787,24.3411117 C16.8732787,24.3411117 17.1441205,25.0382351 16.8806806,25.595059 C16.8806806,25.595059 15.7236308,23.2994641 14.2059071,22.0929562 C14.2059071,22.0929562 14.2906924,22.7069765 14.0968975,23.2991276 C14.0968975,23.2991276 13.5915503,21.5468987 11.7175266,20.1338108 C11.7175266,20.1338108 11.958088,20.8894763 11.8174521,21.4617769 C11.8174521,21.4617769 10.6203648,19.1722381 8.77460287,18.3290957 C8.77460287,18.3290957 9.08413641,18.8828915 8.96099589,19.735791 C8.96099589,19.735791 8.23897527,18.200572 6.24181106,17.0435221 C6.24181106,17.0435221 6.72999928,17.8143279 6.58667179,18.3610584 C6.5826344,18.3761986 6.57859701,18.3906659 6.57355026,18.4051333 C6.57355026,18.4051333 5.96053928,16.8433347 4.13059047,16.2330153 C1.77578044,15.4477422 0.495926558,14.3933095 0,14" id="Fill-14" fill="#3E9E6C"></path>
                <mask id="mask-4" fill="white">
                    <use xlink:href="#path-3"></use>
                </mask>
                <g id="Clip-17"></g>
                <polygon id="Fill-16" fill="#3E9E6C" mask="url(#mask-4)" points="27 55 28 55 28 39 27 39"></polygon>
            </g>
        </g>
    </g>
</svg>